<?xml version="1.0" encoding="utf-8"?>
<!-- Generator: Adobe Illustrator 24.3.0, SVG Export Plug-In . SVG Version: 6.00 Build 0)  -->
<svg version="1.1" id="Layer_1" xmlns="http://www.w3.org/2000/svg" xmlns:xlink="http://www.w3.org/1999/xlink" x="0px" y="0px"
	 viewBox="0 0 146 113.8" style="enable-background:new 0 0 146 113.8;" xml:space="preserve">
<style type="text/css">
	.st0{fill:#A99565;}
	.st1{fill:#135292;}
	.st2{fill:#EC4048;}
	.st3{fill:#FFFFFF;}
	.st4{fill:none;stroke:#231F20;stroke-width:2.880125e-02;}
	.st5{fill:#EF3E33;}
	.st6{fill:none;stroke:#231F20;stroke-width:2.880125e-02;stroke-linejoin:round;}
</style>
<g>
	<path class="st0" d="M70.4,99.6c17.6,0,34.2-3.6,46.7-10.3c12.6-6.7,19.5-15.6,19.5-25.1s-6.9-18.4-19.5-25.1
		C104.7,32.6,88.1,29,70.4,29s-34.2,3.6-46.7,10.3C11.1,45.9,4.2,54.8,4.2,64.3s6.9,18.4,19.5,25.1C36.2,96,52.8,99.6,70.4,99.6
		 M5,64.3c0-19,29.3-34.5,65.4-34.5s65.4,15.5,65.4,34.5s-29.3,34.5-65.4,34.5S5,83.3,5,64.3"/>
	<path class="st1" d="M70.7,95.5c16.6,0,32.3-3.2,44.1-9.1c11.8-5.9,18.4-13.7,18.4-22.1c0-8.4-6.5-16.2-18.4-22.1
		c-11.8-5.9-27.5-9.1-44.1-9.1s-32.3,3.2-44.1,9.1C14.7,48.1,8.2,55.9,8.2,64.3s6.5,16.2,18.4,22.1C38.4,92.3,54.1,95.5,70.7,95.5
		 M8.8,64.3c0-16.9,27.8-30.6,61.9-30.6s61.9,13.7,61.9,30.6S104.9,95,70.7,95C36.6,95,8.8,81.2,8.8,64.3"/>
	<path class="st1" d="M13.8,33.9l-1.2-1.4c0,0.2,0,0.4,0,0.6c0,0.2,0,0.4-0.1,0.8s-0.1,0.6-0.1,0.7c0.6-0.3,1-0.5,1.2-0.6L13.8,33.9
		z M15.8,32.7l1.7,2.5l-0.9,0.7c-0.2,0.2-0.6,0.1-1.1-0.3c-0.3-0.3-0.7-0.6-1-0.9c0,0.2,0,0.5,0.2,1.1c0.1,0.5,0.1,0.8-0.1,1
		c-0.5,0.2-0.9,0.3-1.4,0.5c-0.5,0.2-1,0.4-1.3,0.7c-0.4-0.9-0.6-1.5-0.7-1.6c-0.3-0.7-0.4-1.2-0.4-1.7c0-0.3,0.1-0.8,0.4-1.6
		c0.3-0.8,0.4-1.2,0.3-1.4l-0.4-0.4L11.1,29c0.1,0.1,0.7,0.8,1.8,2.1c0.8,0.8,1.4,1.5,1.9,2c0.2,0.2,0.4,0.2,0.6,0.1
		C15.3,33.1,15.5,33,15.8,32.7 M10.2,28.3c0.1,0.6,0.1,1.2,0.1,1.7C10,30,9.7,30.1,9.4,30.1c-0.3,0-0.5,0-0.8,0
		c-0.1,0.4-0.1,0.8-0.1,1.2c-0.4,0.2-1,0.2-1.7,0v-1.7c0.9,0.1,1.4,0.1,1.5,0c0.1,0,0.1-0.2,0.1-0.6c0-0.2,0-0.5,0.1-0.7L10.2,28.3z
		"/>
	<polygon class="st1" points="20.7,33.4 16.7,35.7 15.2,33.1 19.3,30.7 	"/>
	<path class="st1" d="M25.3,33.3c0,0.6-0.1,1.1-0.2,1.6c-0.1,0-0.4,0-0.7-0.1c-0.2-0.1-0.5-0.1-0.7-0.2c-0.1,0.2-0.1,0.5-0.2,1
		c-0.4,0-0.9-0.1-1.4-0.3l0.2-1.5c0.4,0.2,0.8,0.3,1.2,0.4c0.1-0.1,0.1-0.3,0.2-0.6c0.1-0.3,0.1-0.4,0.1-0.5L25.3,33.3z M25.2,31.1
		L24,31.7c-0.3,0.1-0.6,0.1-0.9-0.3c-0.2-0.2-0.3-0.4-0.5-0.5l0,1.4l-2.3,1.2l-1.2-2.8l2.5-1.3c-0.1-0.6-0.3-1-0.4-1.4
		c-0.1-0.3-0.2-0.5-0.2-0.7c0-0.3,0.2-0.9,0.4-1.8l0.4,1c0.1,0.2,0.2,0.4,0.3,0.8c0.1,0.3,0.2,0.6,0.3,0.8c0.2,0.5,0.6,0.7,1,0.5
		l0.5-0.3L25.2,31.1z"/>
	<path class="st1" d="M29.2,32.1c0,0.1-0.1,0.3-0.3,0.8c-0.2,0.4-0.4,0.7-0.5,0.7c-0.1,0-0.4-0.1-0.8-0.2C27.2,33.2,27,33.1,27,33
		c0-0.1,0.1-0.4,0.2-0.9c0.2-0.5,0.3-0.8,0.4-0.8c0.1,0,0.3,0.1,0.8,0.3C28.9,31.9,29.1,32.1,29.2,32.1 M27.9,25.6
		c0.2,0.5,0.4,1.2,0.5,2c0.1,0.7,0.3,1.3,0.4,2l-4.3,1.7l-1-2.9l3.6-1.5l0-0.1c-0.1-0.3-0.3-0.6-0.7-1c-0.4-0.4-0.7-0.7-0.9-0.8
		l0.1-2.4C26.7,23.5,27.5,24.5,27.9,25.6"/>
	<path class="st1" d="M33.1,24.7c-0.1-0.2-0.2-0.4-0.4-0.6c-0.2-0.2-0.4-0.3-0.5-0.2c-0.1,0-0.1,0.1-0.2,0.3
		c-0.1,0.2-0.2,0.3-0.1,0.3c0.1,0.2,0.2,0.3,0.4,0.4c0.2,0.1,0.4,0.1,0.6,0.1C33.1,24.9,33.2,24.8,33.1,24.7 M35.8,27.2l-0.8,0.3
		c-0.1,0.7-0.1,1.4-0.2,2.1c-0.2,1-0.5,1.5-1,1.7c-0.5,0.2-1,0.2-1.7,0.3c-0.8,0-1.3,0-1.7-0.2c1.6-0.5,2.7-1.7,3.5-3.6
		C33.2,28,32.6,28,32.4,28c-0.6-0.1-0.9-0.5-1.1-1.1c-0.2-0.7-0.3-1.7-0.2-3c0.1-1.5,0.4-2.3,1-2.5c0.4-0.1,0.9,0.3,1.5,1.1
		c0.4,0.6,0.7,1.2,1,1.9l0.5-0.2L35.8,27.2z"/>
	<path class="st1" d="M40.9,25.8l-1.1,0.3c-0.3,0.1-0.6,0-0.8-0.3c-0.1-0.1-0.3-0.4-0.6-0.8l-0.2,1.5l-2.8,0.9l-0.7-3l3-0.9
		c0-0.1,0-0.4-0.1-0.8c-0.2-0.7-0.2-1.2,0-1.6c0.2-0.5,0.4-1,0.7-1.5l0.3,1.1c0,0,0.1,0.6,0.3,1.6c0.1,0.5,0.4,0.7,0.8,0.7l0.6-0.2
		L40.9,25.8z M38,16.7c0,0.2-0.1,0.5-0.3,1.1c-0.2,0.6-0.3,0.9-0.4,0.9c-0.1,0-0.7-0.2-1.8-0.7c0.1-0.4,0.2-0.7,0.3-1
		c0.1-0.4,0.3-0.7,0.4-1L38,16.7z"/>
	<path class="st1" d="M45.9,26.8c0,0.1-0.2,0.4-0.4,0.8c-0.3,0.5-0.4,0.7-0.5,0.7c-0.1,0-0.4-0.1-0.8-0.4s-0.6-0.5-0.6-0.6
		c0-0.1,0.1-0.4,0.3-0.8c0.2-0.4,0.4-0.7,0.5-0.8C44.9,26.2,45.4,26.5,45.9,26.8 M50,16c-0.2,0.4-0.3,0.8-0.5,1.2
		c-0.3,0.7-0.4,1.1-0.3,1.2l0.7,2.8c0.1,0.3,0.1,0.7,0.1,1.4c0,0.6,0,1.1-0.1,1.4c-0.3,0.2-0.4,0.2-0.4,0.2l-4.2,0.7l0-0.1
		c-0.1-0.2-0.2-1-0.5-2.6c-0.2,0.2-0.4,0.7-0.6,1.4c-0.2,0.7-0.4,1.2-0.7,1.5l-3.1,0.7l-0.5-3c1-0.2,2.3-0.6,2.3-0.6
		c0.2,0,0.3-0.1,0.5-0.1c0.6-0.1,1.1-0.5,1.5-1.1c-0.4-0.1-0.9-0.1-1.5,0c-0.6,0.1-1.1,0.3-1.5,0.7l-0.1-0.2
		c-0.1-0.7-0.1-1.4,0.1-2.1c0.2-0.9,0.6-1.4,1.2-1.5c0.3-0.1,0.7,0,1.2,0.2c0.8,0.3,1.2,0.5,1.5,0.5c0.7,0.2,1.4,0.2,2.2,0
		c-0.1,0.8-0.2,1.5-0.3,2c-0.4,0.1-0.7,0.2-0.9,0.3c-0.3,0.2-0.6,0.4-0.7,0.6l3.2-0.6l0.1-0.1c-0.3-1.6-0.7-3-1.2-4
		c-0.2-0.1-0.3-0.3-0.6-0.6c0.2-1.2,0.4-2.1,0.7-2.7c0.2,0.6,0.5,1,0.9,1.3C48.8,15.4,49.2,15.6,50,16"/>
	<path class="st1" d="M54.7,19.7c0.2,1.6,0,2.9-0.4,3.8l-1.5-6.9c-0.1-0.2,0.2-1.1,0.7-2.9C54.2,16.5,54.6,18.5,54.7,19.7"/>
	<path class="st1" d="M86.8,19.5l-0.1-1.9c-0.1,0.1-0.2,0.3-0.4,0.5c-0.1,0.1-0.3,0.3-0.6,0.5c-0.3,0.2-0.5,0.4-0.5,0.4
		c0.6,0.3,1,0.4,1.2,0.4L86.8,19.5z M89.1,20.1l-0.4,3.1L87.6,23c-0.3-0.1-0.5-0.4-0.6-1c-0.1-0.5-0.1-0.9-0.2-1.3
		c-0.1,0.1-0.3,0.4-0.5,0.9c-0.2,0.5-0.4,0.7-0.7,0.7c-0.4-0.2-0.9-0.4-1.3-0.6c-0.5-0.2-1-0.4-1.4-0.4c0.3-1,0.5-1.5,0.5-1.6
		c0.2-0.7,0.5-1.2,0.8-1.5c0.2-0.2,0.6-0.5,1.3-0.9c0.7-0.4,1.1-0.7,1.1-0.8l-0.1-0.6l1.2-1.8c0,0.2,0,1.1,0.1,2.8
		c0,1.1,0.1,2.1,0.2,2.8c0,0.3,0.2,0.4,0.4,0.4C88.5,20,88.7,20,89.1,20.1 M87.7,12.7c-0.4,0.5-0.7,0.9-1.1,1.3
		c-0.2-0.1-0.4-0.3-0.7-0.5c-0.2-0.2-0.4-0.4-0.6-0.6c-0.3,0.3-0.6,0.6-0.8,0.8c-0.4-0.2-0.8-0.6-1.2-1.2l1.1-1.3
		c0.6,0.7,0.9,1,1.1,1.1c0.1,0,0.2-0.1,0.5-0.4c0.2-0.2,0.3-0.3,0.5-0.5L87.7,12.7z"/>
	<polygon class="st1" points="92.6,23.8 88.3,23 88.9,20 93.1,20.8 	"/>
	<path class="st1" d="M99.5,22.2c0-0.4-0.1-0.7-0.3-1c-0.2-0.4-0.5-0.6-0.8-0.6c-0.5-0.1-1.2,0.2-2.2,0.9L99.5,22.2z M101.8,26
		l-9.7-2.1l0.7-3l1.5,0.2c0.5,0.1,0.7,0,0.8-0.4c0.1-0.6,0.3-1.3,0.4-2.3c0.2-1.1,0.2-1.9,0.2-2.3c0-0.1-0.1-0.2-0.1-0.4
		c-0.1-0.2-0.1-0.3-0.1-0.5c0.1-0.4,0.5-0.9,1.3-1.5c-0.1,0.4,0,0.8,0.3,1.3c0.3,0.5,0.6,0.8,0.9,1c-0.2,0.3-0.4,0.7-0.6,1
		c-0.3,0.4-0.5,0.6-0.9,0.6c0,0.4-0.1,0.7-0.2,1c-0.1,0.4-0.3,1-0.7,2c0.5-0.4,1.3-0.7,2.3-1c1-0.3,1.8-0.5,2.5-0.6
		c0.4,0.3,0.7,0.7,1,1.4c0.3,0.7,0.4,1.2,0.3,1.7c0-0.1-0.1,0.2-0.4,0.7l0.9,0.4L101.8,26z M101.4,16.6c0,0.1-0.3,0.3-0.7,0.6
		c-0.5,0.3-0.7,0.4-0.8,0.4c-0.1,0-0.3-0.3-0.5-0.7s-0.4-0.7-0.4-0.8c0-0.1,0.2-0.3,0.7-0.6c0.4-0.3,0.7-0.5,0.9-0.5
		c0.1,0.1,0.3,0.4,0.6,0.9C101.2,16.2,101.4,16.5,101.4,16.6"/>
	<polygon class="st1" points="105.5,27.2 101.2,25.9 102,23 106.3,24.3 	"/>
	<path class="st1" d="M110.5,22.9c-0.1-0.7-0.2-1-0.4-1.1c-0.1,0-0.2,0-0.3,0.1c-0.2,0.1-0.3,0.1-0.3,0.2c0,0,0,0.2,0.1,0.3
		c0.1,0.2,0.2,0.3,0.2,0.4c0.1,0.1,0.1,0.1,0.3,0.1C110,22.8,110.2,22.8,110.5,22.9 M111.8,25.5c-0.1,0.4-0.4,1-0.7,1.8
		c-0.4,1-0.7,1.5-0.8,1.6l-5.1-1.7l1-2.9l4.4,1.5l0.1-0.1c0.1-0.2,0.1-0.4,0.1-0.8c0-0.4,0-0.6,0-0.7c-0.5,0.6-1.1,0.7-1.7,0.5
		c-0.4-0.1-0.6-0.4-0.8-0.8c-0.2-0.4-0.2-0.8-0.1-1.1c0.2-0.6,0.7-1.2,1.4-1.9c0.8-0.7,1.5-1,2-0.8c0.5,0.2,0.8,1,0.7,2.5
		C112.2,23.8,112,24.7,111.8,25.5 M111.4,19c0,0.1-0.3,0.3-0.7,0.5c-0.4,0.2-0.7,0.3-0.8,0.3c-0.1-0.1-0.4-0.6-0.7-1.6
		c0.8-0.7,1.3-1.1,1.5-1c0.1,0,0.2,0.3,0.4,0.9C111.3,18.6,111.4,18.9,111.4,19"/>
	<path class="st1" d="M115.2,31l-1.9-0.8l2.5-7.9c0-0.1,0.3-0.4,0.8-0.8c0.3-0.2,0.7-0.5,1-0.7c0,0.1-0.7,2.4-2.1,7l0.9,0.4
		L115.2,31z"/>
	<polygon class="st1" points="120.5,22.1 120.3,22.6 122.2,22.2 122.5,21.8 	"/>
	<path class="st1" d="M123.7,35.4l-3.2-1.7l0.1-0.1c0.1-0.3,0.3-0.7,0.5-1.1c0.3-0.6,0.4-0.9,0.5-1.2c-0.2,0-0.6,0.3-1.3,0.9
		c-0.7,0.6-1.2,0.8-1.3,0.7l-3.9-1.9l1.3-2.7l2.8,1.3c0.7,0.4,1.2,0.6,1.4,0.7c0.5,0.2,1,0.1,1.3-0.2c0-0.1-0.2-0.3-0.5-0.6
		c-0.3-0.2-0.5-0.3-0.7-0.5c-0.6-0.3-1.1-0.4-1.5-0.3l0.1-0.1c0.3-0.7,0.7-1.2,1.3-1.7c0.7-0.6,1.3-0.8,1.8-0.5
		c0.3,0.2,0.6,0.5,0.9,0.9c0.5,0.8,0.8,1.2,0.9,1.4c0.5,0.5,1,1,1.6,1.3c-0.3,0.3-0.8,0.8-1.4,1.4c-0.1,0-0.4-0.1-0.9-0.2
		c-0.4-0.1-0.7-0.1-0.9,0l2.6,1.4L123.7,35.4z"/>
	<path class="st1" d="M129.4,27.4c0.1-0.2,0.1-0.3-0.1-0.3c-0.1-0.1-0.2-0.1-0.3,0l0,0.1c-0.1,0.1-0.1,0.3-0.1,0.7
		c0,0,0.1,0,0.2-0.1C129.2,27.6,129.3,27.5,129.4,27.4 M129.9,27.3c-0.2,0.4-0.6,0.7-1,0.9c0,0.2,0,0.3-0.1,0.4
		c-0.1,0.1-0.2,0.2-0.4,0.4c0-0.2,0-0.4,0-0.5c-0.7,0.3-1.2,0.3-1.6,0.1c0.3-0.1,0.8-0.2,1.5-0.4c0-0.4,0-0.7,0.1-0.8
		c0.1-0.2,0.3-0.4,0.6-0.5c0.3-0.1,0.6-0.2,0.8-0.1C130,26.8,130,27,129.9,27.3"/>
	<path class="st1" d="M129.6,36.9c-0.5,0.9-1.2,1.6-2,2.1c-0.1-0.4-0.2-0.8-0.3-1.2c-0.1-0.2-0.2-0.4-0.3-0.5
		c-0.1,0-0.2-0.1-0.6-0.3l-2.9-1.8l1.5-2.6l2.9,1.8c0.1-0.1,0.2-0.2,0.2-0.2c0.4-0.7,1.1-2.1,1.9-4.2c-0.1-0.5-0.1-0.8-0.1-0.9
		c0.1-0.2,0.4-0.4,1-0.8c0.6-0.4,1-0.6,1.2-0.6l-0.1,0.1c-0.4,0.6-0.2,1.6,0.4,3l-2.1,1.1c-0.3,0.5-0.5,0.9-0.7,1.4
		c-0.4,0.7-0.6,1.1-0.6,1.4c-0.1,0.2,0.1,0.5,0.3,1C129.7,36.2,129.7,36.6,129.6,36.9"/>
	<path class="st1" d="M133.8,37.9c-0.9,1.3-1.8,2.1-2.8,2.6l3.3-6.2c0.1-0.2,0.9-0.7,2.4-1.7C135.5,35.1,134.5,36.9,133.8,37.9"/>
	<polygon class="st0" points="109.7,63.5 110.5,63.7 110.5,66.1 111.1,66.1 111.1,63.3 109.7,63 	"/>
	<polygon class="st0" points="91.3,65.8 91.8,65.9 91.8,67.4 92.2,67.5 92.2,65.6 91.3,65.4 	"/>
	<polygon class="st0" points="89.4,65.5 89.9,65.6 89.9,67.1 90.3,67.2 90.3,65.3 89.5,65.2 	"/>
	<polygon class="st0" points="87.6,65.2 88.1,65.3 88.1,66.9 88.5,66.9 88.5,65 87.6,64.9 	"/>
	<path class="st0" d="M73.2,63.9v-0.6c0.1,0,0.1,0,0.2-0.2c0.1-0.1,0.1-0.3,0.1-0.4v0v-6c0-0.3-0.1-0.3-0.1-0.4c0,0-0.1,0-0.1,0
		v-0.2l0,0.2l-0.1-0.6c0,0,0,0,0.1,0c0.1,0,0.3,0,0.5,0.2c0.2,0.2,0.3,0.5,0.3,0.8v6v0c0,0.1,0,0.3-0.1,0.6
		C73.8,63.6,73.6,63.9,73.2,63.9L73.2,63.9z"/>
	<path class="st0" d="M78.3,63.4v-0.6c0.1,0,0.1,0,0.2-0.2c0.1-0.1,0.1-0.3,0.1-0.4v-0.1v-3.3c0-0.3-0.1-0.3-0.1-0.4
		c0,0-0.1,0-0.1,0l0,0v-0.2l0,0.2l-0.1-0.6c0,0,0,0,0.1,0c0.1,0,0.3,0,0.5,0.2c0.2,0.2,0.3,0.5,0.3,0.9v3.3v0c0,0.1,0,0.3-0.1,0.6
		C79,63.1,78.7,63.4,78.3,63.4C78.3,63.4,78.3,63.4,78.3,63.4"/>
	<path class="st0" d="M68.4,63.4c-0.1,0-0.3,0-0.5-0.2c-0.2-0.2-0.3-0.5-0.3-0.8v-3.3v0c0-0.1,0-0.3,0.1-0.6
		c0.1-0.3,0.3-0.6,0.7-0.6l0,0v0.6c-0.1,0-0.1,0-0.2,0.2c-0.1,0.1-0.1,0.3-0.1,0.4v0v3.3c0,0.3,0.1,0.3,0.1,0.4c0,0,0.1,0,0.1,0l0,0
		V63v-0.2l0,0L68.4,63.4C68.4,63.4,68.4,63.4,68.4,63.4 M58,67.1L57,67.2v-2.1L58,65V67.1z M56.2,67.3l-0.9,0.1v-2.1l0.9-0.1V67.3z
		 M54.4,67.5l-0.9,0.1v-2.1l0.9-0.1V67.5z M35.7,67.5l-1.3,0.1v-3l1.3-0.1V67.5z M120,74.7c0,0-5.8-2.3-11.8-3.3l-0.4-4.8l-0.6-0.5
		l-0.1-5.2l-4.6,1.4l-0.2,8.4c0,0-13.4-1.2-23.2,2.2c0,0-4.6-1.3-6.1-1.9v-7.5c0,0-0.8-0.2-0.8-1.3v-5.1c0,0-0.1-1.2,0.7-1.2v-6.9
		h-0.3V50H72v0.8h-0.7v1.3h-1.1v-0.7h-0.5v-0.8H69v-0.9h-0.6v0.9h-0.5v1.1h-0.7l-0.6,10.9L64.8,70l1-8.4l-1.1,0.1c0,0,0-1.3-1.2-1.3
		c-1.1,0-1.2,1.7-1.2,1.7l-0.9,0.2c0,0-0.2-1.4-1-1.4c-0.8,0-1.4,1-1.3,1.7l-0.8,0.2c0,0-0.2-1.4-1.3-1.4c-1.1,0-1.1,1.7-1.1,1.7
		l-0.9,0.2c0,0,0.1-1.4-1.1-1.4c-1.2,0-1.1,1.7-1.1,1.7L52.1,64c0,0-0.3-1.4-1.2-1.4c-0.9,0-1.1,1.7-1.1,1.7l-0.9,0.1
		c0,0-0.2-1.3-1.1-1.3s-1.2,1.7-1.2,1.7l-1.6,0.4l0,4.7L38.4,71l0.2-4c0,0,0.2-0.4,0.6-0.6v-5l-8.4,2.7l-0.1,4.2
		c0,0-0.6,0.4-0.6,0.7c-0.1,0.4-0.4,4.4-0.4,4.4l-3.2,1.3l-2.7,5.8c0,0,21.9-10.5,53.3-7.1c0,0-15.4,4.7-22.3,10.9
		c0,0,34.1-20.8,66.2-5.8L120,74.7z"/>
	<rect x="77.1" y="49.8" class="st0" width="0.4" height="0.6"/>
	<rect x="76.5" y="50.6" class="st0" width="0.4" height="0.6"/>
	<rect x="75.9" y="51.4" class="st0" width="0.4" height="0.6"/>
	<path class="st0" d="M82.2,62c0,0-0.2-1.4,0.9-1.8c0,0-1.2,0.1-1.4,1.7L82.2,62z"/>
	<path class="st0" d="M85.4,62.6c0,0-0.2-1.4,0.9-1.8c0,0-1.2,0.1-1.4,1.7L85.4,62.6z"/>
	<path class="st0" d="M88.6,63.2c0,0-0.2-1.4,0.9-1.8c0,0-1.2,0.1-1.4,1.7L88.6,63.2z"/>
	<path class="st0" d="M91.9,63.7c0,0-0.2-1.4,0.9-1.8c0,0-1.2,0.1-1.4,1.7L91.9,63.7z"/>
	<path class="st0" d="M95.1,64.3c0,0-0.2-1.4,0.9-1.8c0,0-1.2,0.1-1.4,1.7L95.1,64.3z"/>
	<path class="st0" d="M98.3,64.9c0,0-0.2-1.4,0.9-1.8c0,0-1.2,0.1-1.4,1.7L98.3,64.9z"/>
	<rect x="72.6" y="37.7" class="st0" width="0.3" height="11.5"/>
	<path class="st2" d="M74.1,38c0,0,1.3-0.5,1.9,0.3c0.7,0.7,0.4,0.8,0.8,0.8c0.5,0,1.5,0,1.7,0.3c0.2,0.3,0.4,0.7,1,0.7
		c0,0-0.3,1.7,0.2,2.4c0.4,0.7,0.1,1-0.4,0.8c-0.4-0.2-0.9-0.6-1.2-0.6c-0.3-0.1-1.5,0.5-1.9,0.1c-0.4-0.4-1.2-0.6-1.5-0.3
		c0,0,0.8-0.8,1.3-0.9c0,0-0.9-0.3-1.3-0.2c0,0,0.8-0.5,1.2-0.5c0,0-0.7-0.4-1.3-0.3c0,0,0.6-0.4,1.3-0.4c0,0-0.1-0.5-1.2-0.5
		c0,0,0.5-0.4,1.1-0.2c0,0-0.5-0.6-1.3-0.6c0,0,0.6-0.4,1-0.3C75.6,38.6,75,38,74.1,38"/>
	<path class="st1" d="M1,84.5C0.9,85.2,1.2,86,1.9,87c0.4,0.6,0.8,1,1.2,1.2c0.4,0.3,0.8,0.4,1.3,0.4c0.5,0,0.8-0.2,1.2-0.4
		c0.3-0.2,0.5-0.5,0.7-0.9c0.2-0.4,0.2-0.8,0.1-1.2c-0.1-0.5-0.3-1.2-0.7-2.1c-0.2-0.4-0.2-0.6-0.2-0.8c0-0.2,0.1-0.3,0.2-0.3
		c0.1-0.1,0.3-0.1,0.4-0.1c0.2,0.1,0.3,0.2,0.5,0.4c0.2,0.3,0.3,0.5,0.3,0.7c0,0.2-0.1,0.5-0.4,0.7l1.3,1.6c0.5-0.5,0.8-1.1,0.8-1.7
		c0-0.6-0.3-1.3-0.8-2c-0.4-0.6-0.8-1-1.2-1.3c-0.4-0.3-0.8-0.4-1.1-0.3c-0.4,0-0.7,0.2-1,0.4c-0.4,0.3-0.7,0.8-0.7,1.3
		c-0.1,0.6,0.1,1.3,0.5,2.2c0.2,0.6,0.3,1,0.3,1.2c0,0.2-0.1,0.4-0.3,0.5c-0.2,0.1-0.3,0.2-0.6,0.1c-0.2-0.1-0.4-0.2-0.6-0.5
		c-0.3-0.4-0.3-0.7-0.2-1.1c0.1-0.2,0.2-0.5,0.5-0.7L2,82.9C1.4,83.3,1.1,83.9,1,84.5"/>
	<path class="st1" d="M10.1,88.6c0.4-0.1,0.8,0.1,1.1,0.4c0.3,0.3,0.5,0.7,0.5,1.1c0,0.4-0.2,0.9-0.6,1.4c-0.5,0.6-1,0.9-1.3,1
		c-0.4,0.1-0.8-0.1-1.1-0.4c-0.3-0.3-0.5-0.7-0.5-1.1c0-0.4,0.2-0.9,0.7-1.5C9.2,89,9.7,88.6,10.1,88.6 M6.2,89.9
		c-0.1,0.6-0.1,1.2,0.2,1.8c0.2,0.6,0.6,1.1,1.2,1.6c0.6,0.5,1.2,0.9,1.7,1c0.6,0.1,1.1,0.1,1.7-0.2c0.5-0.2,1.1-0.7,1.6-1.3
		c0.7-0.9,1.1-1.8,1-2.7c-0.1-0.9-0.5-1.8-1.4-2.6c-0.8-0.8-1.7-1.1-2.6-1.1c-0.9,0.1-1.7,0.5-2.4,1.4C6.6,88.7,6.3,89.3,6.2,89.9"
		/>
	<path class="st1" d="M17.1,96.9c-0.2,0.3-0.5,0.5-0.7,0.6s-0.6,0-0.9-0.2c-0.3-0.2-0.5-0.5-0.6-0.8c-0.1-0.3,0-0.6,0.2-1l2.2-3.7
		l-1.8-1.2l-2.2,3.7c-0.2,0.3-0.3,0.7-0.5,1.1c-0.1,0.3-0.1,0.6,0,1c0.1,0.4,0.2,0.7,0.3,0.9c0.2,0.3,0.4,0.5,0.7,0.8
		c0.3,0.3,0.6,0.5,0.9,0.7c0.5,0.3,1,0.5,1.4,0.6c0.3,0.1,0.7,0.1,1,0c0.4-0.1,0.7-0.3,1-0.5c0.3-0.3,0.6-0.6,0.8-0.9l2.2-3.7
		l-1.8-1.2L17.1,96.9z"/>
	<polygon class="st1" points="21.2,96.3 23.2,97.3 21,102.3 22.9,103.2 25.1,98.3 27.1,99.2 27.8,97.6 21.9,94.7 	"/>
	<polygon class="st1" points="26.5,104.8 28.5,105.5 29.4,102.8 31.6,103.6 30.7,106.3 32.7,107.1 35,100.2 33,99.5 32.2,101.9 
		30,101.1 30.8,98.7 28.7,98 	"/>
	<polygon class="st1" points="34.8,107.7 40.5,109.2 40.8,107.6 37.3,106.6 37.6,105.3 40.8,106.1 41.2,104.7 37.9,103.8 
		38.2,102.7 41.7,103.6 42,102.1 36.5,100.7 	"/>
	<path class="st1" d="M45.5,104.4l0.9,0.2c0.4,0.1,0.6,0.2,0.7,0.4c0.1,0.2,0.2,0.3,0.1,0.6c0,0.2-0.1,0.3-0.2,0.4
		c-0.1,0.1-0.2,0.2-0.4,0.2c-0.3,0-0.5,0-0.6,0l-0.9-0.2L45.5,104.4z M44.5,110.1l0.5-2.9l0.2,0.1c0.2,0.1,0.4,0.1,0.5,0.3
		c0.1,0.1,0.2,0.3,0.3,0.6l0.7,2.4L49,111l-0.6-2.3c0-0.1-0.1-0.3-0.2-0.5c-0.1-0.2-0.2-0.4-0.3-0.5c-0.1-0.1-0.3-0.2-0.5-0.4
		c0.3,0,0.6-0.1,0.8-0.1c0.3-0.1,0.6-0.3,0.8-0.6c0.2-0.3,0.4-0.6,0.4-1c0.1-0.5,0.1-0.9-0.1-1.2c-0.2-0.4-0.4-0.6-0.7-0.8
		c-0.3-0.2-0.8-0.4-1.4-0.5l-3.5-0.7l-1.3,7.1L44.5,110.1z"/>
	<polygon class="st1" points="50.5,111.1 52.5,111.3 52.9,107.4 55.1,111.6 57,111.9 57.8,104.7 55.8,104.4 55.4,108.4 53.2,104.1 
		51.2,103.9 	"/>
	<path class="st1" d="M68.1,109.7l0,0.7c-0.3,0.2-0.5,0.3-0.8,0.4s-0.5,0.1-0.7,0.1c-0.5,0-0.9-0.2-1.2-0.5s-0.4-0.9-0.4-1.7
		c0-0.7,0.2-1.3,0.5-1.6c0.3-0.3,0.7-0.5,1.1-0.5c0.3,0,0.6,0.1,0.8,0.2c0.2,0.2,0.3,0.4,0.4,0.6l2.1-0.4c-0.1-0.5-0.3-0.9-0.5-1.2
		c-0.3-0.3-0.6-0.5-0.9-0.7c-0.4-0.2-0.9-0.2-1.7-0.3c-0.8,0-1.4,0.1-1.9,0.3c-0.6,0.3-1.1,0.7-1.4,1.3c-0.3,0.6-0.5,1.3-0.5,2
		c0,0.8,0.1,1.4,0.4,2c0.3,0.6,0.7,1,1.2,1.3c0.5,0.3,1.2,0.5,2,0.5c0.7,0,1.2-0.1,1.7-0.2s1.1-0.5,1.7-0.9l0.1-3.1l-3.3-0.1l0,1.5
		L68.1,109.7z"/>
	<path class="st1" d="M74.1,107.1c0.3-0.3,0.6-0.5,1-0.5c0.5,0,0.8,0.1,1.1,0.4c0.3,0.3,0.4,0.8,0.4,1.5c0,0.8-0.1,1.4-0.3,1.7
		c-0.2,0.3-0.6,0.5-1,0.5c-0.5,0-0.8-0.1-1.1-0.4c-0.3-0.3-0.4-0.8-0.4-1.6C73.7,107.9,73.8,107.4,74.1,107.1 M72.2,110.8
		c0.3,0.6,0.8,0.9,1.3,1.2c0.5,0.2,1.2,0.4,1.9,0.3c0.8,0,1.4-0.2,1.9-0.5c0.5-0.3,0.9-0.8,1.1-1.3c0.3-0.6,0.4-1.2,0.3-2.1
		c-0.1-1.2-0.4-2-1-2.7s-1.5-0.9-2.7-0.9c-1.1,0.1-2,0.4-2.6,1.1c-0.6,0.7-0.9,1.6-0.9,2.8C71.6,109.6,71.8,110.3,72.2,110.8"/>
	<polygon class="st1" points="82.7,111.8 85,111.6 86.9,104.1 84.8,104.3 83.7,109.7 81.7,104.6 79.5,104.8 	"/>
	<polygon class="st1" points="89,111.2 94.8,110.5 94.6,108.8 90.9,109.3 90.7,107.9 94,107.5 93.9,106 90.6,106.4 90.5,105.3 
		94,104.8 93.8,103.3 88.2,104 	"/>
	<polygon class="st1" points="141.8,87.1 145,82 143.7,81.1 141.7,84.3 140.5,83.5 142.4,80.6 141.2,79.8 139.4,82.6 138.5,82 
		140.5,78.9 139.3,78 136.1,83 	"/>
	<path class="st1" d="M97.7,104l0.9-0.2c0.4-0.1,0.7-0.1,0.8,0c0.2,0.1,0.3,0.3,0.3,0.5c0,0.2,0,0.3-0.1,0.4
		c-0.1,0.1-0.2,0.2-0.3,0.3c-0.3,0.1-0.4,0.2-0.5,0.2l-0.9,0.2L97.7,104z M98.8,109.7l-0.5-2.9l0.2-0.1c0.2-0.1,0.4,0,0.5,0.1
		c0.1,0.1,0.3,0.2,0.5,0.5l1.5,1.9l2.3-0.5l-1.4-1.8c-0.1-0.1-0.2-0.2-0.4-0.4c-0.2-0.2-0.3-0.3-0.4-0.3c-0.1-0.1-0.3-0.1-0.6-0.2
		c0.3-0.2,0.5-0.3,0.7-0.4c0.3-0.2,0.4-0.5,0.5-0.8c0.1-0.3,0.1-0.7,0.1-1.1c-0.1-0.5-0.3-0.8-0.5-1.1c-0.3-0.3-0.6-0.4-0.9-0.5
		c-0.4-0.1-0.9,0-1.5,0.1l-3.5,0.7l1.3,7.1L98.8,109.7z"/>
	<polygon class="st1" points="104.8,108.4 106.7,107.8 105.7,104 109.2,107.1 111.1,106.6 109.3,99.6 107.4,100.1 108.4,104 
		104.9,100.8 103,101.4 	"/>
	<path class="st1" d="M113.5,100.1c0.1-0.4,0.4-0.7,0.8-0.8c0.4-0.2,0.8-0.2,1.2,0c0.4,0.2,0.6,0.6,0.9,1.2c0.3,0.8,0.4,1.3,0.2,1.7
		s-0.4,0.7-0.8,0.8c-0.4,0.2-0.8,0.2-1.1-0.1c-0.4-0.2-0.7-0.6-0.9-1.3C113.5,101,113.4,100.5,113.5,100.1 M112.9,104.3
		c0.5,0.4,1,0.6,1.6,0.7c0.6,0.1,1.2-0.1,1.9-0.4s1.3-0.7,1.6-1.1c0.4-0.5,0.6-1,0.7-1.6c0.1-0.6-0.1-1.3-0.3-2.1
		c-0.4-1.1-1-1.8-1.8-2.2c-0.8-0.4-1.7-0.3-2.8,0.1c-1,0.4-1.7,1.1-2.1,1.9s-0.3,1.8,0.1,2.9C112,103.3,112.4,103.9,112.9,104.3"/>
	<path class="st1" d="M120.8,96.2l0.8-0.4c0.4-0.2,0.6-0.3,0.8-0.2c0.2,0.1,0.3,0.2,0.4,0.4c0.1,0.2,0.1,0.3,0.1,0.4
		c0,0.2-0.1,0.3-0.2,0.4c-0.2,0.2-0.4,0.3-0.5,0.4l-0.8,0.4L120.8,96.2z M123.3,101.3l-1.3-2.6l0.2-0.1c0.2-0.1,0.4-0.1,0.5-0.1
		c0.1,0,0.3,0.1,0.6,0.3l2,1.4l2.1-1.1l-1.8-1.4c-0.1-0.1-0.3-0.2-0.5-0.3c-0.2-0.1-0.4-0.2-0.5-0.2c-0.2,0-0.4,0-0.6,0
		c0.3-0.2,0.4-0.4,0.6-0.6c0.2-0.3,0.3-0.6,0.3-1c0-0.3-0.1-0.7-0.2-1c-0.2-0.4-0.5-0.7-0.8-0.9c-0.3-0.2-0.7-0.3-1-0.2
		c-0.4,0.1-0.8,0.3-1.4,0.6l-3.2,1.7l3.1,6.4L123.3,101.3z"/>
	<path class="st1" d="M129,94.6l-0.8-2.6l2,1.7L129,94.6z M132.4,95.6l1.8-1.3l-6-4.5l-1.9,1.4l1.7,7.5l1.8-1.3l-0.4-1.2l2-1.4
		L132.4,95.6z"/>
	<polygon class="st1" points="131.6,89.4 133.2,88 136.6,92.1 138.2,90.6 134.8,86.5 136.5,85 135.4,83.6 130.5,88.1 	"/>
	<path class="st3" d="M62.5,6.7l13.8,0.1c0,0,0.2,6.7-0.7,7.4c0,0-3.2,8-6.1,10.2c0,0-5.5-5.7-6.2-10.3C63.3,14,62,7.7,62.5,6.7"/>
	<path class="st4" d="M76.1,11.9c0.5-2.1,0.3-5.2,0.3-5.2L62.5,6.7c0,0-0.3,2.5,0.3,5.2"/>
	<path class="st3" d="M73.2,24.4c0.2,0.7-0.1,1.3-0.2,1.6c-0.2,0.3-1.3,0.9-1.8,1c0.1-0.3,0.1-0.7,0.3-0.8c-0.4,0.1-0.8,0.2-1-0.2
		C71.4,25,72.7,24.9,73.2,24.4"/>
	<path class="st4" d="M73.2,24.4c0.2,0.7-0.1,1.3-0.2,1.6c-0.2,0.3-1.3,0.9-1.8,1c0.1-0.3,0.1-0.7,0.3-0.8c-0.4,0.1-0.8,0.2-1-0.2
		C71.4,25,72.7,24.9,73.2,24.4z"/>
	<path class="st3" d="M64.4,19.6c-0.6,1.2-0.1,1.8,0.3,3.2c0.3,0.9-0.3,1.3-0.8,1.2c-0.1,1,1.1,1.9,1.7,0.8c0.3,0.7,0.9,1.1,1,1.7
		c0.5-0.2,0.8-1,0-2.2c0.7,0.5,1.9,0.3,2.6,1.2c0.1-1.4-1-1.5-1.8-1.7c0,0,0.4,0.1,0.7,0.2c0.4,0.1,0.6-0.3,0.4-0.5
		c-0.2-0.3-0.5-0.4-0.7-0.4C66.8,23,65.1,23.1,64.4,19.6"/>
	<path class="st4" d="M64.4,19.6c-0.6,1.2-0.1,1.8,0.3,3.2c0.3,0.9-0.3,1.3-0.8,1.2c-0.1,1,1.1,1.9,1.7,0.8c0.3,0.7,0.9,1.1,1,1.7
		c0.5-0.2,0.8-1,0-2.2c0.7,0.5,1.9,0.3,2.6,1.2c0.1-1.4-1-1.5-1.8-1.7c0,0,0.4,0.1,0.7,0.2c0.4,0.1,0.6-0.3,0.4-0.5
		c-0.2-0.3-0.5-0.4-0.7-0.4C66.8,23,65.1,23.1,64.4,19.6z"/>
	<path class="st3" d="M62.9,19.6c-0.3,0.9-0.4,1.7,0.3,1.9s0.9-0.8,0.8-1.3C63.8,20.8,62.7,21.1,62.9,19.6"/>
	<path class="st4" d="M62.9,19.6c-0.3,0.9-0.4,1.7,0.3,1.9s0.9-0.8,0.8-1.3C63.8,20.8,62.7,21.1,62.9,19.6z"/>
	<path class="st3" d="M63.2,13.5c-0.1,1.5-1.2,2.8-1.2,3.3c0,0.5,0.2,1.3,1,1c0.2-0.8,0.8-1.6,0.7-2.7L63.2,13.5z"/>
	<path class="st4" d="M63.2,13.5c-0.1,1.5-1.2,2.8-1.2,3.3c0,0.5,0.2,1.3,1,1c0.2-0.8,0.8-1.6,0.7-2.7L63.2,13.5z"/>
	<path class="st3" d="M62.5,6.8c-0.2,0.5-0.9,0.9-1.5,1.3c-0.4,0.3-0.5,1.1,0.1,1.4c-0.1,0.3-0.4,0.5-0.6,0.5
		c-0.2,0-0.8,0.5-0.2,0.8c-0.7,0.7-0.3,1.2-0.5,1.7c0.4,0.2,1-0.3,1.1-0.6c0.2,0.6,0.3,1.5,0,2.2c0.3,0.5,1.2,0.6,1.4-0.3
		c0.2-0.9-0.8-2.6,0.2-3.7C62.6,10.1,62.4,8.2,62.5,6.8"/>
	<path class="st4" d="M62.5,6.8c-0.2,0.5-0.9,0.9-1.5,1.3c-0.4,0.3-0.5,1.1,0.1,1.4c-0.1,0.3-0.4,0.5-0.6,0.5
		c-0.2,0-0.8,0.5-0.2,0.8c-0.7,0.7-0.3,1.2-0.5,1.7c0.4,0.2,1-0.3,1.1-0.6c0.2,0.6,0.3,1.5,0,2.2c0.3,0.5,1.2,0.6,1.4-0.3
		c0.2-0.9-0.8-2.6,0.2-3.7C62.6,10.1,62.4,8.2,62.5,6.8z"/>
	<path class="st3" d="M76.2,11.7c-0.8,1.7,0.7,4.4,0.8,5.4c0.1,1-0.9,1.3-1.2,0.3c-0.6,0.5-0.2,1.7,0.7,1.7
		c-0.1,1.2-1.1,0.8-1.3,0.1c-1.3,1.2-0.8,2.2-1.6,3c-0.5,0.2-1,0.1-1.2-0.3c0.6-0.1,1.1-0.7,0.7-1.7C74.4,18.1,75.5,15.6,76.2,11.7"
		/>
	<path class="st4" d="M76.2,11.7c-0.8,1.7,0.7,4.4,0.8,5.4c0.1,1-0.9,1.3-1.2,0.3c-0.6,0.5-0.2,1.7,0.7,1.7
		c-0.1,1.2-1.1,0.8-1.3,0.1c-1.3,1.2-0.8,2.2-1.6,3c-0.5,0.2-1,0.1-1.2-0.3c0.6-0.1,1.1-0.7,0.7-1.7C74.4,18.1,75.5,15.6,76.2,11.7z
		"/>
	<path class="st3" d="M80.2,11.8c0.5,0.8,0.2,1.7-0.8,1.7c-0.9,0.1-1.1-0.8-0.8-2C78.9,12.6,79.6,12.8,80.2,11.8"/>
	<path class="st4" d="M80.2,11.8c0.5,0.8,0.2,1.7-0.8,1.7c-0.9,0.1-1.1-0.8-0.8-2C78.9,12.6,79.6,12.8,80.2,11.8z"/>
	<path class="st3" d="M79,7.8c1.1,0.6,0.9,1.2,0.9,1.7c0.6,0.6,0.9,1.7,0.3,2.4c-0.9-0.1-1.1-0.3-1-1.4c-0.6,0-1-0.6-0.9-1.1
		C78.9,9.9,80.2,8.9,79,7.8"/>
	<path class="st4" d="M79,7.8c1.1,0.6,0.9,1.2,0.9,1.7c0.6,0.6,0.9,1.7,0.3,2.4c-0.9-0.1-1.1-0.3-1-1.4c-0.6,0-1-0.6-0.9-1.1
		C78.9,9.9,80.2,8.9,79,7.8z"/>
	<path class="st3" d="M76.5,1.1c-1.2-0.9-2.5,0.4-3.3,0.5C74.6,2.6,75.4,1.1,76.5,1.1"/>
	<path class="st4" d="M76.5,1.1c-1.2-0.9-2.5,0.4-3.3,0.5C74.6,2.6,75.4,1.1,76.5,1.1z"/>
	<path class="st3" d="M75.4,4.4C74.8,4.2,74.7,4,74.7,4s1-0.8,1.8,0C76.2,4.1,75.4,4.4,75.4,4.4"/>
	<path class="st4" d="M75.4,4.4C74.8,4.2,74.7,4,74.7,4s1-0.8,1.8,0C76.2,4.1,75.4,4.4,75.4,4.4z"/>
	<path class="st3" d="M69.7,5c0.2-0.5,0.6-1,0.8-1.2c0.5,0,1.1,0.4,1.2,0.5c0,0-1.3,0.6-1.4,1L69.7,5z"/>
	<path class="st4" d="M69.7,5c0.2-0.5,0.6-1,0.8-1.2c0.5,0,1.1,0.4,1.2,0.5c0,0-1.3,0.6-1.4,1L69.7,5z"/>
	<path class="st3" d="M70.1,6.7c-0.1-1.6,1-2.3,1.6-2.4C73,4,74.6,5,75.2,4.4c0.6-0.5,2-0.7,2.5-0.2c-0.6,0-1.1,0.4-1.1,0.6
		c0.4,0.1,0.6,0.3,1.2,0.2c1-0.2,1-1.5-0.1-1.5c0.7-0.5,1.4,0,1.3,0.5c-0.1,0.5-0.2,1.3-0.8,1.5c0.7,0.3,1.6,0,2-1.5
		c0.3-0.2,0.8,0.6,0.1,1.6c1.1,1,0.5,1.4,0.6,2.1c-0.6,0.3-0.9-1.3-2.4-1.2c0,0,0.2,0.4,0.2,0.6c0,0-0.2,0.5-1.2,0
		c-1-0.6-1.3-1.5-2-1.7C75.7,5.7,75.8,6,75.8,6s-0.4,0.6-1.5-0.4c0,0.4-0.1,0.8-0.3,0.9c0-0.7-0.9-1.4-1.5-1.5
		C72,4.9,70.8,5.6,71,6.8L70.1,6.7z"/>
	<path class="st4" d="M70.1,6.7c-0.1-1.6,1-2.3,1.6-2.4C73,4,74.6,5,75.2,4.4c0.6-0.5,2-0.7,2.5-0.2c-0.6,0-1.1,0.4-1.1,0.6
		c0.4,0.1,0.6,0.3,1.2,0.2c1-0.2,1-1.5-0.1-1.5c0.7-0.5,1.4,0,1.3,0.5c-0.1,0.5-0.2,1.3-0.8,1.5c0.7,0.3,1.6,0,2-1.5
		c0.3-0.2,0.8,0.6,0.1,1.6c1.1,1,0.5,1.4,0.6,2.1c-0.6,0.3-0.9-1.3-2.4-1.2c0,0,0.2,0.4,0.2,0.6c0,0-0.2,0.5-1.2,0
		c-1-0.6-1.3-1.5-2-1.7C75.7,5.7,75.8,6,75.8,6s-0.4,0.6-1.5-0.4c0,0.4-0.1,0.8-0.3,0.9c0-0.7-0.9-1.4-1.5-1.5
		C72,4.9,70.8,5.6,71,6.8L70.1,6.7z"/>
	<path class="st3" d="M67.5,5.7c0,0,0.8,0.8,0.9,1l0.9,0c0,0-0.4-0.9-0.5-1.2C68.4,5.4,67.5,5.7,67.5,5.7"/>
	<path class="st4" d="M67.5,5.7c0,0,0.8,0.8,0.9,1l0.9,0c0,0-0.4-0.9-0.5-1.2C68.4,5.4,67.5,5.7,67.5,5.7z"/>
	<path class="st3" d="M64.7,3.7c-0.4-0.3,1.4-0.1,1.7,0.4C66.4,4.1,66.2,4.9,64.7,3.7"/>
	<path class="st4" d="M64.7,3.7c-0.4-0.3,1.4-0.1,1.7,0.4C66.4,4.1,66.2,4.9,64.7,3.7z"/>
	<path class="st3" d="M58.9,5.9c-0.6,0.3-0.3,1.4-1.4,1.3c1.3,1.3,2.1-0.9,3-1.2"/>
	<path class="st4" d="M58.9,5.9c-0.6,0.3-0.3,1.4-1.4,1.3c1.3,1.3,2.1-0.9,3-1.2"/>
	<path class="st3" d="M57.5,5c0.4,0.1,0.7,0.3,0.9,0.6"/>
	<path class="st4" d="M57.5,5c0.4,0.1,0.7,0.3,0.9,0.6"/>
	<path class="st3" d="M60.7,3.8c0.2,0.1,1.1,0.8,1.8-0.2c0,0-0.7-0.2-0.9-0.4C62.3,3.5,63.4,4,64,2.7c0,0-0.4,0-0.9-0.1
		c0.2-0.1,0-0.1,0.1-0.3C63.3,2.2,62,1.6,61.1,2c0.4-0.3,0.3-0.5,0.3-0.5c-0.9-0.4-1.6,0.8-1.7,1c0-0.3-0.1-0.6-0.1-0.6
		C59.3,2.2,59,2.7,59,3c-0.2,0.2-0.6,1.3,0.6,1.9C59.7,4.2,60.2,3.8,60.7,3.8"/>
	<path class="st4" d="M60.7,3.8c0.2,0.1,1.1,0.8,1.8-0.2c0,0-0.7-0.2-0.9-0.4C62.3,3.5,63.4,4,64,2.7c0,0-0.4,0-0.9-0.1
		c0.2-0.1,0-0.1,0.1-0.3C63.3,2.2,62,1.6,61.1,2c0.4-0.3,0.3-0.5,0.3-0.5c-0.9-0.4-1.6,0.8-1.7,1c0-0.3-0.1-0.6-0.1-0.6
		C59.3,2.2,59,2.7,59,3c-0.2,0.2-0.6,1.3,0.6,1.9C59.7,4.2,60.2,3.8,60.7,3.8z"/>
	<path class="st5" d="M71.2,5.7c0,0,1.2-0.1,1.9-0.5c0,0,0.6,0.2,0.7,0.4C73.9,5.9,72,6.6,71,6.4L71.2,5.7z"/>
	<path class="st4" d="M71.2,5.7c0,0,1.2-0.1,1.9-0.5c0,0,0.6,0.2,0.7,0.4C73.9,5.9,72,6.6,71,6.4L71.2,5.7z"/>
	<path class="st5" d="M80.2,4c0.9,0.3,0.7,0.8,1,1.4C83,4.2,80.6,1.4,80.2,4"/>
	<path class="st4" d="M80.2,4c0.9,0.3,0.7,0.8,1,1.4C83,4.2,80.6,1.4,80.2,4z"/>
	<path class="st5" d="M66.5,24.3c0.5,0.9,0.4,1.2,0.5,1.7c0.1,0.6,0.7,1.4,1.6,1.1c-0.3-0.3-0.5-0.7-0.5-1.2c0.6,0,1,0.5,1.1,0.7
		c0.2-0.7,0.2-1.2-0.6-1.6C67.9,24.7,67.3,24.8,66.5,24.3"/>
	<path class="st4" d="M66.5,24.3c0.5,0.9,0.4,1.2,0.5,1.7c0.1,0.6,0.7,1.4,1.6,1.1c-0.3-0.3-0.5-0.7-0.5-1.2c0.6,0,1,0.5,1.1,0.7
		c0.2-0.7,0.2-1.2-0.6-1.6C67.9,24.7,67.3,24.8,66.5,24.3z"/>
	<path class="st5" d="M63.6,15.5c0,1.1,0.1,2.5-0.5,3.5c-0.6,1-0.2,1.6,0.2,1.6c0.2,0,0.7-0.1,0.7-0.6l0.2,0.1l0.2-0.5
		c0.2,0.7,0.7,2.8,1.8,3.1L66,21.6l0.8,0.3l-0.1-0.8c-0.3-0.4-0.6-0.8-0.6-0.8c-0.6-0.1-1.3-0.6-1.4-1.3l0.6-0.1
		c0,0-1.5-2.9-1.7-3.9L63.6,15.5z"/>
	<path class="st4" d="M63.6,15.5c0,1.1,0.1,2.5-0.5,3.5c-0.6,1-0.2,1.6,0.2,1.6c0.2,0,0.7-0.1,0.7-0.6l0.2,0.1l0.2-0.5
		c0.2,0.7,0.7,2.8,1.8,3.1L66,21.6l0.8,0.3l-0.1-0.8c-0.3-0.4-0.6-0.8-0.6-0.8c-0.6-0.1-1.3-0.6-1.4-1.3l0.6-0.1
		c0,0-1.5-2.9-1.7-3.9L63.6,15.5z"/>
	<path class="st5" d="M63,17.8c0.3,0.5-0.1,1.4-0.9,1.4c-0.8,0-1.1-1.1-0.7-1.9c0.3-0.8,0.8-1.1,1.1-1.6c-0.3,0.9-0.9,1-0.2,2
		C62.4,17.9,62.8,17.9,63,17.8"/>
	<path class="st4" d="M63,17.8c0.3,0.5-0.1,1.4-0.9,1.4c-0.8,0-1.1-1.1-0.7-1.9c0.3-0.8,0.8-1.1,1.1-1.6c-0.3,0.9-0.9,1-0.2,2
		C62.4,17.9,62.8,17.9,63,17.8z"/>
	<path class="st5" d="M62.5,13.4c0.2,1.2-0.5,2-1.2,2.3c-0.7,0.2-1.2-0.5-1.2-1c0.1-0.5,0.1-0.9,0.7-1.2
		C60.8,14.3,62.3,15.1,62.5,13.4"/>
	<path class="st4" d="M62.5,13.4c0.2,1.2-0.5,2-1.2,2.3c-0.7,0.2-1.2-0.5-1.2-1c0.1-0.5,0.1-0.9,0.7-1.2
		C60.8,14.3,62.3,15.1,62.5,13.4z"/>
	<path class="st5" d="M60.5,10.7c-0.5-0.2-0.8,0.2-1,0.3c-0.3,0.2-0.7-0.2-0.5-0.7c-0.7,0.5-0.6,1.4-0.2,1.7c0.5,0.4,1.1,0,1.3-0.6
		C60.1,11.3,60.2,11.1,60.5,10.7"/>
	<path class="st4" d="M60.5,10.7c-0.5-0.2-0.8,0.2-1,0.3c-0.3,0.2-0.7-0.2-0.5-0.7c-0.7,0.5-0.6,1.4-0.2,1.7c0.5,0.4,1.1,0,1.3-0.6
		C60.1,11.3,60.2,11.1,60.5,10.7z"/>
	<path class="st5" d="M60,8.6c-0.9,0.5-0.8,1.5,0.5,1.3c-0.3,0.2-0.3,0.5-0.2,0.6c-0.3,0.3-1,0.5-1.4-0.3S59.3,8.6,60,8.6"/>
	<path class="st4" d="M60,8.6c-0.9,0.5-0.8,1.5,0.5,1.3c-0.3,0.2-0.3,0.5-0.2,0.6c-0.3,0.3-1,0.5-1.4-0.3S59.3,8.6,60,8.6z"/>
	<path class="st5" d="M61.3,7.9c-0.7,0-1.3,0.2-1.4,1c-0.1,0.5,0.2,0.9,0.6,1.1c0.3,0.1,0.7-0.3,0.7-0.5C60.7,9.2,60.6,8.3,61.3,7.9
		"/>
	<path class="st4" d="M61.3,7.9c-0.7,0-1.3,0.2-1.4,1c-0.1,0.5,0.2,0.9,0.6,1.1c0.3,0.1,0.7-0.3,0.7-0.5C60.7,9.2,60.6,8.3,61.3,7.9
		z"/>
	<path class="st5" d="M76.2,11.7c-0.4,2.7,0.8,3.5,1.3,4.8c0.4,1.3,0.1,2.1-0.4,2.3c0.4,1.2-0.6,2.6-1.6,2c0,0.8-0.3,1.3-0.4,1.7
		c-0.1,0.3,0.2,1,0.7,0.3c0.5,0.7-0.3,2.6-1.2,1.1c0.1,1.5-1,1.9-1.6,2.2c0.3-0.6,0.2-1.1,0.2-1.6c-0.5,0.5-1.9,0.4-3.1,2
		c-0.5-0.8,0.4-1.9,0.9-2.1l-0.5-0.3l1.2-0.6l-0.4-0.3c0.4-0.6,1.5-0.4,2.3-1.1c0.8-0.7,0.3-1.8,1.6-3c0.2,0.7,1.2,1.2,1.3,0
		c-0.8,0-1.2-1.2-0.7-1.7c0.3,1,1.3,0.8,1.2-0.3C76.9,16.1,75.4,13.4,76.2,11.7"/>
	<path class="st4" d="M76.2,11.7c-0.4,2.7,0.8,3.5,1.3,4.8c0.4,1.3,0.1,2.1-0.4,2.3c0.4,1.2-0.6,2.6-1.6,2c0,0.8-0.3,1.3-0.4,1.7
		c-0.1,0.3,0.2,1,0.7,0.3c0.5,0.7-0.3,2.6-1.2,1.1c0.1,1.5-1,1.9-1.6,2.2c0.3-0.6,0.2-1.1,0.2-1.6c-0.5,0.5-1.9,0.4-3.1,2
		c-0.5-0.8,0.4-1.9,0.9-2.1l-0.5-0.3l1.2-0.6l-0.4-0.3c0.4-0.6,1.5-0.4,2.3-1.1c0.8-0.7,0.3-1.8,1.6-3c0.2,0.7,1.2,1.2,1.3,0
		c-0.8,0-1.2-1.2-0.7-1.7c0.3,1,1.3,0.8,1.2-0.3C76.9,16.1,75.4,13.4,76.2,11.7z"/>
	<path class="st5" d="M76.4,6.2C77.8,8,78.5,7.5,79,7.8c0.9,0.5,0.4,1.9-0.7,1.6c-0.1,0.9,0.5,0.9,0.8,1c-0.2,0.7,0.4,1.6,1.1,1.4
		c-0.5,0.7-1,1.2-1.5-0.4c-0.4,0.8-0.2,2,0.8,2.2c-0.2,0.6-0.3,0.9-0.6,1l-1-2.1c-0.4,0.3-0.2,1.2-0.1,1.4c-0.3,0.2-0.9,0-1-0.8
		c-0.1-0.9,0.9-1-0.6-3.3C76.3,9.9,76.5,8.3,76.4,6.2"/>
	<path class="st4" d="M76.4,6.2C77.8,8,78.5,7.5,79,7.8c0.9,0.5,0.4,1.9-0.7,1.6c-0.1,0.9,0.5,0.9,0.8,1c-0.2,0.7,0.4,1.6,1.1,1.4
		c-0.5,0.7-1,1.2-1.5-0.4c-0.4,0.8-0.2,2,0.8,2.2c-0.2,0.6-0.3,0.9-0.6,1l-1-2.1c-0.4,0.3-0.2,1.2-0.1,1.4c-0.3,0.2-0.9,0-1-0.8
		c-0.1-0.9,0.9-1-0.6-3.3C76.3,9.9,76.5,8.3,76.4,6.2z"/>
	<path class="st5" d="M78.2,5.5c1.1-0.6,0.9-3.1-0.6-1.9c-0.3-0.5,0.1-0.9,0.1-0.9c-0.7,0.1-1.1,0.7-1.8,0.8c-0.7,0.1-1-0.2-1.1-0.6
		c0.5,0.1,0.7-0.1,1-0.2C75.2,3.2,74.7,3,74,2.6c0,0,1.2-0.3,1.6-0.6c-0.4-0.2-0.5-0.3-0.8-0.3c0.6-0.4,1.4-0.9,2-0.5
		c-0.3-0.4-0.3-0.7-0.3-0.7c0.6,0.4,1.3,0,2,1.1c0,0-0.9-0.8-0.6-1.5c0.5,0.6,1.3,0.5,1.7,0.8c0.4,0.4,0.6,1.2,0.2,1.7
		C80.2,3.2,80.7,5.7,78.2,5.5"/>
	<path class="st4" d="M78.2,5.5c1.1-0.6,0.9-3.1-0.6-1.9c-0.3-0.5,0.1-0.9,0.1-0.9c-0.7,0.1-1.1,0.7-1.8,0.8c-0.7,0.1-1-0.2-1.1-0.6
		c0.5,0.1,0.7-0.1,1-0.2C75.2,3.2,74.7,3,74,2.6c0,0,1.2-0.3,1.6-0.6c-0.4-0.2-0.5-0.3-0.8-0.3c0.6-0.4,1.4-0.9,2-0.5
		c-0.3-0.4-0.3-0.7-0.3-0.7c0.6,0.4,1.3,0,2,1.1c0,0-0.9-0.8-0.6-1.5c0.5,0.6,1.3,0.5,1.7,0.8c0.4,0.4,0.6,1.2,0.2,1.7
		C80.2,3.2,80.7,5.7,78.2,5.5z"/>
	<path class="st5" d="M72.6,4.2c0.5-0.8,1.9-1.2,3-0.6C75,3.7,74.4,4.6,72.6,4.2"/>
	<path class="st4" d="M72.6,4.2c0.5-0.8,1.9-1.2,3-0.6C75,3.7,74.4,4.6,72.6,4.2z"/>
	<path class="st5" d="M66,5.4c0.3,0.4,0.6,0.8,1.2,0.5c-0.1,0.3-0.8,1.6-2-0.1"/>
	<path class="st4" d="M66,5.4c0.3,0.4,0.6,0.8,1.2,0.5c-0.1,0.3-0.8,1.6-2-0.1"/>
	<path class="st5" d="M59,4.3c-0.9-0.3-1.9,0.4-1.4,1.7c0.1-0.3,0.5-0.7,0.7-0.6c0.2,0.1,0.7,0.9,1.8,0.5"/>
	<path class="st4" d="M59,4.3c-0.9-0.3-1.9,0.4-1.4,1.7c0.1-0.3,0.5-0.7,0.7-0.6c0.2,0.1,0.7,0.9,1.8,0.5"/>
	<path class="st5" d="M59,3.1c-0.6-0.4-0.5-1.2,0-1.6c0.5-0.4,1-0.8,1-0.8C60,1.8,59,2.7,59,3.1"/>
	<path class="st4" d="M59,3.1c-0.6-0.4-0.5-1.2,0-1.6c0.5-0.4,1-0.8,1-0.8C60,1.8,59,2.7,59,3.1z"/>
	<path class="st5" d="M61.7,1.8c0.6-0.9,2.5-1.3,3.3,0.8c-1-0.5-1.4-0.3-1.7-0.3C62.9,2.1,62,1.7,61.7,1.8"/>
	<path class="st4" d="M61.7,1.8c0.6-0.9,2.5-1.3,3.3,0.8c-1-0.5-1.4-0.3-1.7-0.3C62.9,2.1,62,1.7,61.7,1.8z"/>
	<path class="st5" d="M70.2,6.6c-0.4-0.9-1-1.6-2.9-0.8c-0.3,0.1-0.2-0.6-0.2-0.8c-0.3,0.1-1,0.5-1.5,0.4c-0.3,0.2-1,0.6-1.6,1
		c-0.6,0.4-1.2,0.2-0.7-0.4c0.6-0.6,0.8-0.5,0.8-0.5s-0.8,1.1-1.8,0.9c0,0-0.2-0.5,0.8-0.9c-1.2,0.5-0.8,1.5-2,1.9
		c0,0-0.8,0.4-1.2,0.2c0.2-0.5,0.7-1.1,0.9-1.4c-0.7-0.2-1.2-0.7-1.2-1.5c0-0.7,0.7-1,1.1-0.7c-0.4,0.5-0.1,1.3,0.4,1.4
		c0.6,0.1,1.1-0.3,1.5-0.4C61.9,5,61.5,5,61.1,4.7c0-0.2,0.8-1,1.8-0.4c1,0.6,1.3,0.3,1.3,0.3c-0.4-0.2-0.6-0.6-0.6-0.8
		c0-0.2,0.8-0.1,1.2,0.2c0.4,0.3,0.5,0.7,1.9,0.3c0.3-0.1,1,0.2,1,0.2c0.2-0.2,0.6-0.7,1.5-0.3L69,4.7c0,0,1.1,0.4,1.4,0.7
		C70.4,5.4,70.1,6.2,70.2,6.6"/>
	<path class="st4" d="M70.2,6.6c-0.4-0.9-1-1.6-2.9-0.8c-0.3,0.1-0.2-0.6-0.2-0.8c-0.3,0.1-1,0.5-1.5,0.4c-0.3,0.2-1,0.6-1.6,1
		c-0.6,0.4-1.2,0.2-0.7-0.4c0.6-0.6,0.8-0.5,0.8-0.5s-0.8,1.1-1.8,0.9c0,0-0.2-0.5,0.8-0.9c-1.2,0.5-0.8,1.5-2,1.9
		c0,0-0.8,0.4-1.2,0.2c0.2-0.5,0.7-1.1,0.9-1.4c-0.7-0.2-1.2-0.7-1.2-1.5c0-0.7,0.7-1,1.1-0.7c-0.4,0.5-0.1,1.3,0.4,1.4
		c0.6,0.1,1.1-0.3,1.5-0.4C61.9,5,61.5,5,61.1,4.7c0-0.2,0.8-1,1.8-0.4c1,0.6,1.3,0.3,1.3,0.3c-0.4-0.2-0.6-0.6-0.6-0.8
		c0-0.2,0.8-0.1,1.2,0.2c0.4,0.3,0.5,0.7,1.9,0.3c0.3-0.1,1,0.2,1,0.2c0.2-0.2,0.6-0.7,1.5-0.3L69,4.7c0,0,1.1,0.4,1.4,0.7
		C70.4,5.4,70.1,6.2,70.2,6.6z"/>
	<path class="st5" d="M62.5,10l1.4,3.6l1.3-3.5l1.4,3.5l1.4-3.5l1.4,3.5l0,0l1.4-3.5l1.4,3.5l1.4-3.5l1.3,3.5l1.3-3.5
		c0,0,0.2,7.7-6.9,14.2C69.5,24.4,63.4,19.4,62.5,10"/>
	<path class="st6" d="M62.5,10l1.4,3.6l1.3-3.5l1.4,3.5l1.4-3.5l1.4,3.5l0,0l1.4-3.5l1.4,3.5l1.4-3.5l1.3,3.5l1.3-3.5
		c0,0,0.2,7.7-6.9,14.2C69.5,24.4,63.4,19.4,62.5,10z"/>
</g>
</svg>
