<?xml version="1.0" encoding="utf-8"?>
<!-- Generator: Adobe Illustrator 25.3.1, SVG Export Plug-In . SVG Version: 6.00 Build 0)  -->
<svg version="1.1" id="logo" xmlns="http://www.w3.org/2000/svg" xmlns:xlink="http://www.w3.org/1999/xlink" x="0px" y="0px"
	 viewBox="0 0 564.35 170.45" style="enable-background:new 0 0 564.35 170.45;" xml:space="preserve">
<style type="text/css">
	.st0{fill:#644764;}
</style>
<g>
	<g>
		<path class="st0" d="M83.18,120.72l0.03-0.2c0.49-4.25,0.75-8.51,0.54-12.78c-0.12-2.48-0.33-5.01-0.91-7.43
			c-0.51-2.11-1.29-4.15-2.26-6.1c-1.45-2.92-3.29-5.63-5-8.39c-2.55-4.12-4.72-8.38-5.57-13.18c-0.83-4.67-0.57-9.54,0.99-14.04
			c1.26-3.64,3.28-7.03,5.72-10.01c1.67-2.06,3.58-3.97,5.71-5.55c1.54-1.12,3.33-2.28,5.25-2.56c-0.04-0.09-1.15,0.14-1.27,0.16
			c-0.5,0.11-1.01,0.25-1.51,0.41c-1.16,0.4-2.32,0.93-3.38,1.56c-2.94,1.69-5.43,4.02-7.57,6.6c-2.94,3.58-5.25,7.71-6.43,12.18
			c-1.26,4.64-1.21,9.66-0.14,14.33c1.52,6.69,5.47,12.46,8.74,18.41c2.24,4.1,4.09,8.36,5.09,12.93
			C82.17,111.54,82.74,116.13,83.18,120.72z"/>
		<path class="st0" d="M88.2,133.16c2.11-0.91,4.01-2.23,5.83-3.64c7.25-5.65,13.14-13.1,16.4-21.67
			c3.02-8.14,3.47-17.16,0.88-25.46c-1.13-3.47-2.77-6.72-4.72-9.79c-1.2-1.88-2.46-3.68-3.74-5.5c-2.02-2.89-4.08-5.76-5.92-8.73
			c-1.34-2.1-2.49-4.26-3.37-6.59c-0.83-2.15-1.52-4.36-2.11-6.59c0.14,3.5,0.57,6.98,1.45,10.38c0.61,2.35,1.67,4.53,2.89,6.63
			c1.27,2.21,2.63,4.32,4.11,6.4c1.49,2.11,3.05,4.19,4.42,6.38c1.94,3.2,3.57,6.63,4.58,10.26c1.19,4.4,1.54,9.05,1.07,13.56
			c-0.81,7.78-4.09,15.15-8.68,21.44c-2.01,2.72-4.23,5.25-6.69,7.6c-1.55,1.48-3.21,2.9-4.99,4.06c-1.38,0.87-3.01,1.74-4.69,1.74
			c-0.64,0-1.28-0.13-1.85-0.46C84.49,134.51,86.61,133.85,88.2,133.16z"/>
		<path class="st0" d="M87.21,113.42c1.18-4.45,1.82-9.04,1.8-13.64c-0.01-2.19-0.26-4.35-0.93-6.43c-0.57-1.76-1.42-3.43-2.38-4.99
			c-1.82-2.92-4.06-5.55-5.86-8.47c-2.07-3.34-3.44-7.03-3.83-10.94c-0.48-4.52,0.39-8.94,2.41-13.03c1.12-2.27,2.54-4.34,4.1-6.32
			c0.74-0.95,1.5-1.88,2.26-2.79c0.33-0.4,0.68-0.81,1.01-1.19c0.21-0.23,0.53-0.54,0.72-0.81c-4.46,2.39-7.89,6.24-10.33,10.61
			c-1.03,1.87-1.87,3.85-2.41,5.91c-0.63,2.3-0.83,4.66-0.75,7.03c0.07,2.42,0.5,4.85,1.24,7.17c0.75,2.32,1.87,4.5,3.11,6.61
			c1.64,2.8,3.49,5.5,5.1,8.34c2.18,3.84,3.77,7.94,4.31,12.33C87.2,106.33,87.35,109.89,87.21,113.42z"/>
		<path class="st0" d="M123.51,61.72c-2.95-4.8-6.42-9.15-9.1-12.42c-1.11-1.39-2.32-2.77-3.51-4.11c-1.42-1.58-2.88-3.21-4.23-4.88
			c-7.15-9.08-11.86-15.24-19.91-15.24c-11.46,0-23.2,5.63-32.23,15.14c-4.59,4.87-10.57,12.97-12.92,23.94
			c-0.81,3.79-1.23,7.58-1.23,11.35c0,1.81,0.1,3.62,0.29,5.4c0.45,4.31,1.53,8.8,3.31,13.72c2.83,7.94,7.31,15.38,11.64,22.58
			l2.64,4.44c8.81,14.89,16,23.65,26.78,23.65c7.01,0,15.12-3.39,23.4-9.52c14.81-10.93,23.65-27.86,23.59-45.29
			C131.99,80.33,129.22,70.9,123.51,61.72z M107.38,134.95c-5.66,4.51-14.13,9.71-22.37,9.71c-11.31,0-16.95-11.07-24.11-25.3
			c-1.58-3.13-3.33-6.25-5-9.26c-2.94-5.22-5.96-10.62-8.18-16.3c-1.92-4.93-3.1-9.17-3.68-13.32c-0.3-2.27-0.46-4.54-0.46-6.83
			c0-3.19,0.31-6.4,0.91-9.7c1.6-8.5,6.03-17,12.48-23.93c8.42-9.05,19.68-14.31,30.1-14.31c7.35,0,10.93,5.49,15.96,13.31
			l2.27,3.58c1.24,1.92,2.71,3.69,4.24,5.58l2.39,2.98c2.87,3.79,5.89,7.7,8.6,11.91c5.81,9.26,8.58,18.28,8.66,28.43
			C129.23,107.83,121.12,124.07,107.38,134.95z"/>
		<path class="st0" d="M104.27,57.58c-1.69-2.32-3.48-4.61-5.01-7.06c-2.45-4.05-4.13-8.54-6.3-12.77c0.65,1.89,1.08,3.84,1.6,5.76
			c0.52,1.94,1.08,3.85,1.76,5.72c0.73,2.11,1.54,4.12,2.7,6.05c0.85,1.41,1.76,2.78,2.66,4.16c3.21,4.79,6.82,9.28,9.63,14.3
			c3.99,7.32,5.78,15.68,4.98,24c-0.84,8.65-4.36,16.94-9.68,23.88c-2.67,3.58-5.87,6.8-9.37,9.67c-1.67,1.42-3.5,2.74-5.45,3.84
			c-1.67,0.98-3.55,1.81-5.51,2.12c-1.42,0.21-2.89,0.12-4.18-0.55c-1.2-0.61-2.1-1.64-2.82-2.75c-0.89-1.42-1.51-3-2.05-4.58
			c-0.69-1.97-1.21-3.98-1.76-5.99c-1.25-4.7-2.37-9.48-4.06-14.06c-1.69-4.57-4.09-8.86-6.45-13.14
			c-2.34-4.25-4.61-8.59-6.17-13.19c-1.61-4.75-2.32-9.77-2.06-14.78c0.23-4.62,1.27-9.09,3.18-13.3c1.94-4.29,4.63-8.25,7.89-11.68
			c3.03-3.2,6.59-5.99,10.6-7.91c1.75-0.84,3.59-1.52,5.49-1.93c1.75-0.38,3.91-0.76,5.63-0.1c-1.13-0.62-2.43-0.59-3.67-0.49
			c-1.12,0.09-2.25,0.29-3.35,0.53c-8.62,1.94-16.05,7.9-21.14,14.88c-2.72,3.73-4.87,7.88-6.19,12.29
			c-1.39,4.68-1.83,9.69-1.45,14.54c0.74,9.9,5.47,18.7,10.16,27.28c2.14,3.91,4.23,7.85,5.9,11.99c0.79,1.96,1.58,3.93,2.37,5.9
			c1.57,3.89,3.08,7.85,5.15,11.5c1.21,2.16,2.79,4.67,5.18,5.66c2.61,1.07,5.68,0.19,8.12-0.84c4.22-1.76,7.94-4.72,11.38-7.69
			c1.06-0.93,2.11-1.89,3.1-2.9c6.1-6.18,10.67-13.83,12.86-22.22c2.2-8.36,1.88-17.35-1.13-25.5
			C114.01,70.58,108.98,64.13,104.27,57.58z"/>
		<path class="st0" d="M89.56,63.4c1.09,3.5,3.1,6.61,5.24,9.57c1.74,2.41,3.51,4.8,4.98,7.41c1.9,3.39,3.2,7.06,3.72,10.92
			c1.21,8.67-1.18,17.26-5.61,24.77c-1.56,2.79-3.5,5.41-5.56,7.91c-1.19,1.48-2.45,2.91-3.9,4.18c-0.94,0.86-2.22,1.85-3.57,1.99
			l-0.2,0c0.79,0.24,1.91-0.24,2.48-0.58c1.4-0.85,2.7-2.03,3.9-3.13c2.71-2.44,5.23-5.17,7.34-8.09
			c4.75-6.38,7.93-13.99,8.27-21.95c0.19-4.33-0.42-8.73-1.89-12.82c-1.23-3.35-3.09-6.49-5.15-9.42c-2.05-2.87-4.12-5.7-5.94-8.72
			c-1.21-2.03-2.39-4.1-3.23-6.3c-0.89-2.29-1.41-4.74-1.8-7.17C88.29,55.74,88.4,59.77,89.56,63.4z"/>
		<polygon class="st0" points="86.11,125.53 86.09,125.53 86.09,125.54 		"/>
		<path class="st0" d="M85.71,36.69c-0.9,0.12-1.53,0.29-2.63,0.63c-1.89,0.61-3.72,1.42-5.44,2.42c-3.92,2.3-7.31,5.43-10.03,9.02
			c-2.8,3.64-4.99,7.77-6.25,12.18c-1.31,4.62-1.52,9.59-0.88,14.33c1.39,9.81,7.19,18.02,11.5,26.72c1.07,2.2,2.07,4.43,2.88,6.73
			c0.86,2.39,1.55,4.85,2.23,7.3c1.19,4.27,2.13,8.65,3.61,12.85c-0.41-1.93-0.56-3.9-0.75-5.85c-0.43-4.54-0.89-9.07-1.77-13.55
			c-0.47-2.45-1.08-4.85-1.99-7.17c-0.81-2.16-1.84-4.24-2.94-6.26c-3.2-5.9-7.06-11.56-8.86-18.08c-1.29-4.68-1.6-9.7-0.83-14.49
			c0.7-4.44,2.48-8.7,4.89-12.5c2.5-3.93,5.7-7.51,9.5-10.24c2.87-2.08,6.4-4.01,10.07-4.01l0.24,0.02
			C87.54,36.41,86.45,36.58,85.71,36.69z"/>
		<path class="st0" d="M91.65,109.18c1.73-4.55,2.68-9.36,2.31-14.25c-0.29-3.79-1.47-7.36-3.49-10.6c-1.74-2.79-3.94-5.26-5.7-8.02
			c-2.22-3.48-3.45-7.32-3.53-11.45c-0.03-2.88,0.25-5.77,0.91-8.6c-1.19,2.12-2.09,4.38-2.55,6.75c-0.81,4.27-0.02,8.85,1.87,12.74
			c1.5,3.13,3.73,5.83,5.72,8.67c2.21,3.15,4.01,6.51,4.78,10.31c0.48,2.36,0.52,4.76,0.44,7.16
			C92.31,104.33,92.05,106.76,91.65,109.18z"/>
		<path class="st0" d="M94.16,115.68c2.11-3.33,3.74-6.89,4.86-10.64c1.27-4.26,1.68-8.72,1.07-13.15
			c-0.53-3.84-1.88-7.48-3.85-10.81c-1.68-2.77-3.74-5.29-5.55-7.97c-2.51-3.71-4.61-7.83-5.24-12.31c-0.11-0.75-0.19-1.5-0.25-2.25
			c-0.13,0.73-0.24,1.46-0.32,2.19c-0.26,2.36-0.33,4.8,0.1,7.15c0.35,1.9,1.05,3.72,1.98,5.4c1.53,2.72,3.59,5.09,5.37,7.61
			c1.95,2.78,3.48,5.8,4.32,9.08c1.1,4.55,1.06,9.34,0.17,13.92c-0.88,4.26-2.49,8.34-4.52,12.21c-1.65,3.19-3.59,6.29-5.86,9.11
			c0.31-0.3,0.64-0.56,0.94-0.86C89.96,121.77,92.2,118.77,94.16,115.68z"/>
		<path class="st0" d="M117.59,64.88c-2.61-4.07-5.53-7.94-8.41-11.65l-2.34-2.92c-1.52-1.86-3.06-3.79-4.41-5.86l-2.34-3.6
			c-5.1-8.04-7.82-12.07-13.02-12.07c-9.46,0-19.77,5.17-27.56,13.54c-6.02,6.46-10.14,14.37-11.61,22.25
			c-1.01,5.29-1.15,10.35-0.44,15.45c0.53,3.89,1.64,7.88,3.46,12.56c2.14,5.46,4.98,10.51,7.99,15.86c1.71,3.05,3.46,6.2,5.09,9.4
			c7.34,14.62,12.28,23.73,21.02,23.73c5.73,0,12.7-3.31,20.23-9.27c12.88-10.23,20.54-25.48,20.48-40.77
			C125.65,82.04,123.04,73.58,117.59,64.88z M108.26,127.54c-3.01,3.2-6.4,6.08-10.1,8.53c-3.53,2.39-7.64,4.41-11.99,4.8
			c-3.04,0.27-5.86-0.63-8.08-2.68c-2.5-2.3-4.14-5.25-5.56-8.26c-2.58-5.51-4.49-11.32-7.02-16.86c-2.1-4.66-4.66-9.06-7.06-13.57
			c-2.23-4.14-4.26-8.4-5.78-12.85c-3.16-9.27-3.46-19.6-0.21-28.89c3.06-8.71,9.01-16.56,16.57-21.95
			c3.43-2.47,7.27-4.28,11.37-5.41c1.88-0.51,3.8-0.85,5.76-0.95c1.66-0.09,3.31,0,4.79,0.78c3.08,1.61,4.68,5.01,6.09,7.96
			c1.98,4.34,3.83,8.77,6.62,12.72c3.55,5.12,7.51,10.04,10.86,15.3c2.77,4.21,5.05,8.74,6.48,13.56
			c2.42,8.28,2.37,17.23,0.12,25.53C118.8,113.63,114.23,121.27,108.26,127.54z"/>
		<path class="st0" d="M135.41,55.38c-2.84-4.66-6.31-9.35-10.46-13.91c-2.58-2.85-5.4-5.51-8.2-8.08l-1.54-1.41
			c-10.72-10.06-19.17-14.33-29.06-14.33c-15.16,0-30.3,6.8-41.55,18.36c-7.59,7.81-12.96,17.24-15.57,27.31
			c-1.63,6.37-2.29,12.88-1.93,19.32c0.28,5.28,1.25,10.53,2.95,16.07c3.01,9.72,8.34,19.45,16.79,30.56
			c12.1,15.9,24.26,23.49,38.27,23.49c9.7,0,20.01-3.58,29.78-10.02c18.71-12.29,29.89-32.61,29.85-54.35
			C144.72,76.77,141.55,65.67,135.41,55.38z M113.64,142.03c-9.6,6.7-19.51,10.08-28.56,10.08c-16.31,0-27.03-12.44-35.38-24.77
			c-6.1-9-12.34-18.7-15.95-29.61c-1.83-5.49-2.91-10.64-3.3-15.69c-0.49-6.33,0.02-12.74,1.52-19.07
			C34.33,53,39.56,43.6,47.08,35.78C57.86,24.55,72.2,18.29,86.46,18.29c11.48,0,19.03,6.96,27.02,15.56l3.39,3.51
			c1.84,1.86,3.73,3.79,5.44,5.83c4.13,4.77,7.38,9.21,10.09,13.62c6.27,10.35,9.39,21.02,9.44,32.61
			C141.87,110.11,131.33,129.79,113.64,142.03z"/>
		<path class="st0" d="M140.71,29.68C125.89,14.85,106.15,6.52,85.22,6.52c-20.97,0-40.69,8.33-55.5,23.16
			C14.88,44.53,6.71,64.26,6.71,85.24c0,20.98,8.17,40.71,23.01,55.55c14.81,14.81,34.53,23.13,55.5,23.13
			c43.3,0,78.47-35.37,78.47-78.68C163.69,64.26,155.54,44.53,140.71,29.68z M123.09,152.64c-11.72,7.07-24.87,10.64-37.91,10.64
			c-19.6,0-37.7-8.21-52.31-24.04c-9.66-10.49-16.61-22.79-20.07-35.57c-1.7-6.28-2.63-12.76-2.75-19.24
			c-0.11-7.77,0.94-15.48,3.11-22.9c3.51-11.98,10.11-23.08,19.06-32.12C46.57,14.96,65.51,7.16,85.53,7.16
			c14.07,0,27.67,4.48,40.26,13.69c4.66,3.39,8.66,6.8,12.14,10.4c4.84,4.96,8.93,10.39,12.32,16.12c7,11.99,10.59,25.08,10.6,38.92
			c0.02,13.59-3.64,26.97-10.46,38.7C143.82,136.31,134.38,145.86,123.09,152.64z"/>
		<path class="st0" d="M147.24,49.08c-3.19-5.5-7.17-10.7-11.75-15.47c-3.4-3.47-7.21-6.75-11.76-10.03
			c-11.98-8.76-24.89-13.36-38.2-13.36c-19.08,0-37.14,7.77-50.85,21.56c-8.56,8.63-14.83,19.24-18.21,30.69
			c-1.97,6.75-2.97,13.75-2.97,20.81c0,0.36,0,0.72,0.01,1.1c0.11,6.18,0.99,12.37,2.62,18.41c3.33,12.25,9.98,24.06,19.29,34.15
			c13.94,15.13,31.14,23.27,49.76,23.27c12.39,0,24.93-3.75,36.13-10.48c10.76-6.46,19.78-15.62,26.07-26.43
			c6.52-11.22,10.01-24.01,9.99-37.01C157.37,73.07,153.94,60.55,147.24,49.08z M119.97,149.1c-11.08,6.94-23.1,10.46-34.82,10.46
			c-17.29,0-33.01-8.06-46.67-24.29c-9.11-10.82-15.4-22.13-18.7-33.58c-1.74-6.01-2.71-12.08-2.92-18.06
			c-0.25-7.24,0.62-14.52,2.57-21.62c3.12-11.29,9.26-21.83,17.73-30.48h0.01c13.05-13.24,30.8-20.66,48.67-20.66
			c12.38,0,23.8,4.43,35.82,14.29c3.48,2.83,7.51,6.23,11.07,10.07c4.54,4.81,8.41,9.96,11.6,15.29
			c6.73,11.41,10.11,23.79,10.14,36.82C154.49,112.44,141.61,135.53,119.97,149.1z"/>
		<path class="st0" d="M129.43,58.56c-2.57-4.23-5.77-8.54-9.71-13.17c-1.71-1.95-3.57-3.84-5.36-5.67l-3.38-3.57
			c-8.8-9.48-15.31-14.78-24.52-14.78c-13.32,0-26.75,6.2-36.88,16.75c-7.1,7.38-12.01,16.25-14.25,25.63
			c-1.42,5.99-1.89,12.05-1.44,18.04c0.37,4.78,1.4,9.65,3.13,14.89c3.49,10.51,9.58,19.97,15.55,28.78
			c11.11,16.41,20.84,23.58,32.52,23.58c8.33,0,17.56-3.5,26.62-9.78c16.76-11.63,26.7-30.25,26.66-49.83
			C138.32,78.47,135.43,68.37,129.43,58.56z M110.54,138.5c-8.92,6.55-17.72,9.88-25.5,9.88c-13.71,0-22.22-12.28-29.74-25.02
			l-2.65-4.42c-4.41-7.34-8.97-14.94-11.93-23.17c-1.84-5.19-2.98-9.92-3.47-14.51c-0.62-5.87-0.28-11.85,0.99-17.81
			c1.98-9.28,6.76-18.13,13.8-25.55C61.7,27.69,74.35,22,86.77,22c9.74,0,15.16,6.72,22.64,16.22c1.28,1.6,2.64,3.12,4.03,4.73
			c1.23,1.36,2.5,2.77,3.68,4.22c2.75,3.35,6.23,7.81,9.36,12.78c6,9.73,8.96,19.71,9.04,30.53
			C135.57,108.96,126.23,126.92,110.54,138.5z"/>
		<path class="st0" d="M141.31,52.24c-3.05-5.12-6.75-10.06-11.11-14.69c-3.44-3.71-7.36-7.02-10.68-9.77
			c-11.42-9.33-22.13-13.85-33.67-13.85c-16.95,0-33.79,7.38-46.2,19.96c-8.06,8.24-13.9,18.26-16.89,28.99
			c-1.66,6.03-2.5,12.2-2.5,18.34c0,0.77,0.01,1.52,0.04,2.29c0.2,5.7,1.13,11.49,2.8,17.23c3.15,11.02,9.22,21.9,18.04,32.35
			c12.97,15.41,27.78,23.37,44.01,23.37c11.07,0,22.43-3.65,32.97-10.24c20.61-12.93,32.97-34.95,32.95-58.89
			C151.04,74.92,147.74,63.11,141.31,52.24z M116.81,145.57c-10.38,6.83-21.33,10.25-31.7,10.25c-14.97,0-28.38-7.91-41.02-24.5
			c-8.7-11.44-14.21-21.49-17.33-31.62c-1.78-5.8-2.8-11.32-3.1-16.86c-0.37-6.79,0.31-13.66,2.06-20.36
			c2.71-10.62,8.39-20.6,16.39-28.83c11.9-12.22,27.95-19.07,44.04-19.07c13.41,0,23.04,7.09,31.44,14.92l1.53,1.41
			c2.79,2.62,5.73,5.34,8.44,8.3c4.22,4.73,7.88,9.59,10.77,14.45c6.52,10.81,9.78,22.49,9.83,34.72
			C148.18,111.27,136.49,132.66,116.81,145.57z"/>
		<path class="st0" d="M85.22,0C38.16,0,0,38.16,0,85.23c0,47.06,38.16,85.22,85.22,85.22c47.07,0,85.23-38.16,85.23-85.22
			C170.45,38.16,132.29,0,85.22,0z M85.22,167.18c-21.9,0-42.48-8.53-57.96-24C11.79,127.7,3.28,107.13,3.28,85.24
			c0-21.89,8.51-42.47,23.98-57.96c15.48-15.48,36.06-24,57.96-24c21.86,0,42.49,8.52,57.96,24c15.47,15.49,23.99,36.07,23.99,57.96
			C167.17,130.42,130.37,167.18,85.22,167.18z"/>
	</g>
	<g>
		<g>
			<path class="st0" d="M224.56,125.95l-4.27-3.58c-1.84,1.14-4.08,1.75-6.7,1.75c-8.9,0-13.41-7.33-13.41-15.22
				c0-7.89,4.51-15.22,13.41-15.22s13.41,7.33,13.41,15.22c0,4.44-1.41,8.71-4.23,11.56l3.68,3.05L224.56,125.95z M216.32,115.12
				l3.72,3.09c2.2-2.24,3.21-5.82,3.21-9.32c0-5.86-2.86-11.96-9.68-11.96c-6.82,0-9.68,6.1-9.68,11.96
				c0,5.86,2.86,11.96,9.68,11.96c1.45,0,2.7-0.28,3.88-0.81l-3.1-2.56L216.32,115.12z"/>
			<path class="st0" d="M247.76,123.34c-0.59,0.37-1.33,0.57-2.39,0.57c-1.73,0-2.82-0.98-2.82-3.26c-1.84,2.24-4.31,3.26-7.13,3.26
				c-3.68,0-6.7-1.71-6.7-5.9c0-4.76,3.41-5.78,6.86-6.47c3.69-0.73,6.82-0.49,6.82-3.09c0-3.01-2.39-3.5-4.51-3.5
				c-2.82,0-4.9,0.9-5.06,3.99h-3.33c0.2-5.21,4.08-7.04,8.58-7.04c3.65,0,7.61,0.85,7.61,5.78v10.82c0,1.63,0,2.36,1.06,2.36
				c0.27,0,0.59-0.04,1.02-0.2V123.34z M242.35,112.56c-1.29,0.98-3.8,1.02-6.04,1.42c-2.2,0.41-4.08,1.22-4.08,3.78
				c0,2.28,1.88,3.09,3.92,3.09c4.39,0,6.19-2.85,6.19-4.76V112.56z"/>
			<path class="st0" d="M254.3,102.38h4.04v3.05h-4.04v13.06c0,1.59,0.43,1.87,2.51,1.87h1.53v3.05h-2.55
				c-3.45,0-4.82-0.73-4.82-4.6v-13.39h-3.45v-3.05h3.45v-6.31h3.33V102.38z"/>
			<path class="st0" d="M278.8,123.34c-0.59,0.37-1.33,0.57-2.39,0.57c-1.72,0-2.82-0.98-2.82-3.26c-1.84,2.24-4.31,3.26-7.13,3.26
				c-3.68,0-6.7-1.71-6.7-5.9c0-4.76,3.41-5.78,6.86-6.47c3.68-0.73,6.82-0.49,6.82-3.09c0-3.01-2.39-3.5-4.51-3.5
				c-2.82,0-4.9,0.9-5.06,3.99h-3.33c0.2-5.21,4.08-7.04,8.58-7.04c3.65,0,7.6,0.85,7.6,5.78v10.82c0,1.63,0,2.36,1.06,2.36
				c0.27,0,0.59-0.04,1.02-0.2V123.34z M273.39,112.56c-1.29,0.98-3.8,1.02-6.04,1.42c-2.2,0.41-4.08,1.22-4.08,3.78
				c0,2.28,1.88,3.09,3.92,3.09c4.39,0,6.19-2.85,6.19-4.76V112.56z"/>
			<path class="st0" d="M280.6,102.38h3.14v4.44h0.08c1.61-3.38,3.84-5.05,7.45-4.92v3.66c-5.37,0-7.33,3.17-7.33,8.51v9.36h-3.33
				V102.38z"/>
			<path class="st0" d="M302.87,94.37h18.38v3.26h-14.66v9.24h12.86v3.26h-12.86v13.31h-3.72V94.37z"/>
			<path class="st0" d="M327.17,98.6h-3.33v-4.23h3.33V98.6z M323.84,102.38h3.33v21.04h-3.33V102.38z"/>
			<path class="st0" d="M331.16,102.38h3.14v3.34h0.08c1.41-2.6,3.69-3.83,6.59-3.83c5.33,0,6.98,3.17,6.98,7.69v13.84h-3.33v-14.24
				c0-2.56-1.57-4.23-4.12-4.23c-4.04,0-6,2.81-6,6.59v11.88h-3.33V102.38z"/>
			<path class="st0" d="M369.73,123.34c-0.59,0.37-1.33,0.57-2.39,0.57c-1.73,0-2.82-0.98-2.82-3.26c-1.84,2.24-4.31,3.26-7.13,3.26
				c-3.68,0-6.7-1.71-6.7-5.9c0-4.76,3.41-5.78,6.86-6.47c3.69-0.73,6.82-0.49,6.82-3.09c0-3.01-2.39-3.5-4.51-3.5
				c-2.82,0-4.9,0.9-5.06,3.99h-3.33c0.2-5.21,4.08-7.04,8.58-7.04c3.65,0,7.61,0.85,7.61,5.78v10.82c0,1.63,0,2.36,1.06,2.36
				c0.27,0,0.59-0.04,1.02-0.2V123.34z M364.33,112.56c-1.29,0.98-3.8,1.02-6.04,1.42c-2.2,0.41-4.08,1.22-4.08,3.78
				c0,2.28,1.88,3.09,3.92,3.09c4.39,0,6.19-2.85,6.19-4.76V112.56z"/>
			<path class="st0" d="M371.65,102.38h3.14v3.34h0.08c1.41-2.6,3.68-3.83,6.58-3.83c5.33,0,6.98,3.17,6.98,7.69v13.84h-3.33v-14.24
				c0-2.56-1.57-4.23-4.12-4.23c-4.04,0-6,2.81-6,6.59v11.88h-3.33V102.38z"/>
			<path class="st0" d="M406.03,109.14c-0.51-2.65-2.27-4.19-5.02-4.19c-4.82,0-6.31,3.95-6.31,8.22c0,3.87,1.69,7.69,5.92,7.69
				c3.21,0,5.14-1.95,5.57-5.13h3.41c-0.74,5.13-3.84,8.18-8.94,8.18c-6.19,0-9.49-4.48-9.49-10.74c0-6.31,3.14-11.27,9.57-11.27
				c4.59,0,8.27,2.24,8.74,7.24H406.03z"/>
			<path class="st0" d="M415.67,98.6h-3.33v-4.23h3.33V98.6z M412.34,102.38h3.33v21.04h-3.33V102.38z"/>
			<path class="st0" d="M437.62,123.34c-0.59,0.37-1.33,0.57-2.39,0.57c-1.73,0-2.82-0.98-2.82-3.26c-1.84,2.24-4.31,3.26-7.13,3.26
				c-3.68,0-6.7-1.71-6.7-5.9c0-4.76,3.41-5.78,6.86-6.47c3.69-0.73,6.82-0.49,6.82-3.09c0-3.01-2.39-3.5-4.51-3.5
				c-2.82,0-4.9,0.9-5.06,3.99h-3.33c0.2-5.21,4.08-7.04,8.58-7.04c3.65,0,7.61,0.85,7.61,5.78v10.82c0,1.63,0,2.36,1.06,2.36
				c0.27,0,0.59-0.04,1.02-0.2V123.34z M432.21,112.56c-1.29,0.98-3.8,1.02-6.04,1.42c-2.2,0.41-4.08,1.22-4.08,3.78
				c0,2.28,1.88,3.09,3.92,3.09c4.39,0,6.19-2.85,6.19-4.76V112.56z"/>
			<path class="st0" d="M439.73,94.37h3.33v29.06h-3.33V94.37z"/>
			<path class="st0" d="M477.01,103.12c-0.78-4.11-3.96-6.19-7.84-6.19c-6.66,0-9.49,5.7-9.49,11.76c0,6.63,2.82,12.17,9.53,12.17
				c4.9,0,7.72-3.58,8.08-8.38h3.72c-0.71,7.24-5.06,11.64-12.11,11.64c-8.7,0-12.94-6.67-12.94-15.14c0-8.42,4.63-15.3,13.25-15.3
				c5.84,0,10.66,3.26,11.52,9.44H477.01z"/>
			<path class="st0" d="M501.2,116.75c-0.9,4.64-4.12,7.16-8.66,7.16c-6.47,0-9.53-4.64-9.72-11.07c0-6.31,4-10.95,9.53-10.95
				c7.17,0,9.37,6.96,9.17,12.05h-15.17c-0.12,3.66,1.88,6.92,6.31,6.92c2.74,0,4.66-1.38,5.25-4.11H501.2z M497.98,110.89
				c-0.16-3.3-2.55-5.94-5.84-5.94c-3.49,0-5.57,2.73-5.8,5.94H497.98z"/>
			<path class="st0" d="M503.78,102.38h3.14v3.34h0.08c1.41-2.6,3.68-3.83,6.58-3.83c5.33,0,6.98,3.17,6.98,7.69v13.84h-3.33v-14.24
				c0-2.56-1.57-4.23-4.12-4.23c-4.04,0-6,2.81-6,6.59v11.88h-3.33V102.38z"/>
			<path class="st0" d="M529.02,102.38h4.04v3.05h-4.04v13.06c0,1.59,0.43,1.87,2.51,1.87h1.53v3.05h-2.55
				c-3.45,0-4.82-0.73-4.82-4.6v-13.39h-3.45v-3.05h3.45v-6.31h3.33V102.38z"/>
			<path class="st0" d="M535.45,102.38h3.14v4.44h0.08c1.61-3.38,3.84-5.05,7.45-4.92v3.66c-5.37,0-7.33,3.17-7.33,8.51v9.36h-3.33
				V102.38z"/>
			<path class="st0" d="M564.03,116.75c-0.9,4.64-4.12,7.16-8.66,7.16c-6.47,0-9.53-4.64-9.72-11.07c0-6.31,4-10.95,9.53-10.95
				c7.17,0,9.37,6.96,9.17,12.05h-15.17c-0.12,3.66,1.88,6.92,6.31,6.92c2.74,0,4.67-1.38,5.25-4.11H564.03z M560.81,110.89
				c-0.16-3.3-2.55-5.94-5.84-5.94c-3.49,0-5.57,2.73-5.8,5.94H560.81z"/>
		</g>
		<g>
			<path class="st0" d="M221.24,43.95v26.8c0,3.45-0.89,6.06-2.66,7.86c-1.77,1.79-4.48,2.69-8.12,2.69c-1.79,0-3.37-0.23-4.72-0.69
				c-1.35-0.46-2.48-1.13-3.38-2.01c-0.9-0.88-1.58-1.95-2.04-3.22s-0.68-2.7-0.68-4.3v-5.26h3.34v4.59c0,2.55,0.62,4.46,1.86,5.73
				c1.24,1.27,3.14,1.9,5.69,1.9c1.32,0,2.45-0.13,3.38-0.4s1.7-0.7,2.29-1.29c0.59-0.59,1.02-1.35,1.29-2.28s0.4-2.05,0.4-3.35
				V43.95H221.24z"/>
			<path class="st0" d="M234.4,70.35c0,0.65-0.12,1.1-0.37,1.34c-0.24,0.24-0.65,0.36-1.21,0.36h-0.58c-0.83,0-1.59-0.09-2.29-0.26
				s-1.28-0.47-1.78-0.89s-0.88-0.98-1.15-1.68s-0.41-1.57-0.41-2.6V43.95h3.34v21.79c0,0.55,0.04,1.02,0.11,1.4
				c0.07,0.38,0.21,0.7,0.41,0.94c0.2,0.24,0.49,0.42,0.85,0.53c0.36,0.11,0.84,0.16,1.43,0.16h0.08c0.54,0,0.93,0.12,1.18,0.38
				C234.28,69.4,234.4,69.8,234.4,70.35z"/>
			<path class="st0" d="M232.83,72.04c-0.54,0-0.94-0.12-1.19-0.37c-0.26-0.25-0.38-0.65-0.38-1.2c0-0.65,0.12-1.1,0.38-1.34
				c0.25-0.24,0.65-0.36,1.2-0.36h5.82c0.54,0,0.94,0.12,1.19,0.38c0.26,0.25,0.38,0.65,0.38,1.2c0,0.65-0.12,1.1-0.37,1.34
				c-0.25,0.24-0.65,0.36-1.2,0.36H232.83z"/>
			<path class="st0" d="M238.65,72.04c-0.54,0-0.94-0.12-1.19-0.37c-0.26-0.25-0.38-0.65-0.38-1.2c0-0.65,0.12-1.1,0.38-1.34
				c0.25-0.24,0.65-0.36,1.2-0.36h5.82c0.54,0,0.94,0.12,1.19,0.38c0.26,0.25,0.38,0.65,0.38,1.2c0,0.65-0.12,1.1-0.37,1.34
				c-0.25,0.24-0.65,0.36-1.2,0.36H238.65z"/>
			<path class="st0" d="M244.47,72.04c-0.54,0-0.94-0.12-1.19-0.37c-0.26-0.25-0.38-0.65-0.38-1.2c0-0.65,0.12-1.1,0.38-1.34
				c0.25-0.24,0.65-0.36,1.2-0.36h5.82c0.54,0,0.94,0.12,1.19,0.38c0.26,0.25,0.38,0.65,0.38,1.2c0,0.65-0.12,1.1-0.37,1.34
				c-0.25,0.24-0.65,0.36-1.2,0.36H244.47z"/>
			<path class="st0" d="M250.29,72.04c-0.54,0-0.94-0.12-1.19-0.37c-0.26-0.25-0.38-0.65-0.38-1.2c0-0.65,0.12-1.1,0.38-1.34
				c0.25-0.24,0.65-0.36,1.2-0.36h5.82c0.54,0,0.94,0.12,1.19,0.38c0.26,0.25,0.38,0.65,0.38,1.2c0,0.65-0.12,1.1-0.37,1.34
				c-0.25,0.24-0.65,0.36-1.2,0.36H250.29z"/>
			<path class="st0" d="M256.11,72.04c-0.54,0-0.94-0.12-1.19-0.37c-0.26-0.25-0.38-0.65-0.38-1.2c0-0.65,0.12-1.1,0.38-1.34
				c0.25-0.24,0.65-0.36,1.2-0.36h5.82c0.54,0,0.94,0.12,1.19,0.38c0.26,0.25,0.38,0.65,0.38,1.2c0,0.65-0.12,1.1-0.37,1.34
				c-0.25,0.24-0.65,0.36-1.2,0.36H256.11z"/>
			<path class="st0" d="M261.94,72.04c-0.54,0-0.94-0.12-1.19-0.37c-0.26-0.25-0.38-0.65-0.38-1.2c0-0.65,0.12-1.1,0.38-1.34
				c0.25-0.24,0.65-0.36,1.2-0.36h5.82c0.54,0,0.94,0.12,1.19,0.38c0.26,0.25,0.38,0.65,0.38,1.2c0,0.65-0.12,1.1-0.37,1.34
				c-0.25,0.24-0.65,0.36-1.2,0.36H261.94z"/>
			<path class="st0" d="M267.76,72.04c-0.54,0-0.94-0.12-1.19-0.37c-0.26-0.25-0.38-0.65-0.38-1.2c0-0.65,0.12-1.1,0.38-1.34
				c0.25-0.24,0.65-0.36,1.2-0.36h5.82c0.54,0,0.94,0.12,1.19,0.38c0.26,0.25,0.38,0.65,0.38,1.2c0,0.65-0.12,1.1-0.37,1.34
				c-0.25,0.24-0.65,0.36-1.2,0.36H267.76z"/>
			<path class="st0" d="M291.82,69.39c-0.55,1-1.33,1.78-2.33,2.33c-1,0.56-2.25,0.84-3.75,0.84c-0.53,0-1.06-0.04-1.61-0.12
				c-0.55-0.08-1.12-0.23-1.72-0.44c-0.6-0.21-1.22-0.5-1.87-0.85c-0.65-0.36-1.35-0.81-2.08-1.35c-0.35,0.53-0.69,0.94-1.02,1.24
				c-0.33,0.3-0.68,0.53-1.03,0.67c-0.35,0.15-0.72,0.24-1.11,0.28c-0.39,0.04-0.82,0.06-1.3,0.06h-0.42
				c-0.54,0-0.94-0.12-1.19-0.37c-0.26-0.25-0.38-0.65-0.38-1.2c0-0.65,0.12-1.1,0.38-1.34c0.25-0.24,0.65-0.36,1.2-0.36h0.35
				c0.31,0,0.62-0.04,0.93-0.12c0.31-0.08,0.62-0.24,0.93-0.49c0.31-0.25,0.6-0.61,0.88-1.08c0.28-0.47,0.54-1.1,0.77-1.89
				c0.46-1.6,1.02-2.91,1.68-3.93c0.66-1.02,1.37-1.82,2.12-2.41c0.76-0.59,1.53-0.99,2.32-1.21c0.79-0.22,1.54-0.33,2.26-0.33
				c1.02,0,1.97,0.18,2.82,0.53c0.86,0.35,1.6,0.85,2.22,1.51c0.62,0.65,1.1,1.43,1.45,2.34c0.35,0.91,0.52,1.92,0.52,3.04
				c0,0.26-0.01,0.51-0.02,0.75c-0.01,0.24-0.03,0.49-0.06,0.73c0.26,0.83,0.62,1.47,1.1,1.9c0.48,0.44,1.03,0.65,1.64,0.65
				c0.54,0,0.93,0.12,1.18,0.38c0.25,0.25,0.37,0.65,0.37,1.2c0,0.65-0.12,1.1-0.36,1.34c-0.24,0.24-0.64,0.36-1.19,0.36
				c-0.72,0-1.4-0.2-2.05-0.61C292.81,71.02,292.26,70.34,291.82,69.39z M289.47,65.09c0-0.68-0.08-1.3-0.25-1.85
				s-0.41-1.03-0.74-1.43c-0.33-0.4-0.73-0.7-1.21-0.92c-0.48-0.22-1.03-0.33-1.64-0.33s-1.2,0.12-1.76,0.38
				c-0.56,0.25-1.07,0.64-1.55,1.17c-0.47,0.53-0.9,1.21-1.29,2.03s-0.72,1.81-1,2.96c0.88,0.69,1.81,1.22,2.77,1.58
				c0.96,0.37,1.88,0.55,2.77,0.55c1.22,0,2.17-0.32,2.86-0.96S289.47,66.56,289.47,65.09z"/>
			<path class="st0" d="M295.5,72.04c-0.54,0-0.94-0.12-1.19-0.37c-0.26-0.25-0.38-0.65-0.38-1.2c0-0.65,0.12-1.1,0.38-1.34
				c0.25-0.24,0.65-0.36,1.2-0.36h1.92c0.47,0,0.91-0.03,1.31-0.08c0.4-0.05,0.73-0.17,1.01-0.37c0.28-0.19,0.49-0.48,0.64-0.86
				s0.23-0.9,0.23-1.56V43.95H304v20.5c0,0.65,0.05,1.25,0.16,1.79s0.3,0.99,0.57,1.36s0.63,0.66,1.09,0.86
				c0.45,0.21,1.03,0.31,1.72,0.31c0.54,0,0.93,0.12,1.19,0.38c0.26,0.25,0.38,0.65,0.38,1.2c0,0.65-0.12,1.1-0.37,1.34
				c-0.25,0.24-0.65,0.36-1.2,0.36c-0.42,0-0.85-0.05-1.27-0.16c-0.42-0.11-0.81-0.26-1.17-0.46c-0.36-0.2-0.68-0.43-0.95-0.7
				s-0.49-0.56-0.64-0.88c-0.26,0.47-0.59,0.85-0.99,1.14c-0.4,0.29-0.84,0.51-1.3,0.67c-0.46,0.16-0.94,0.27-1.43,0.32
				c-0.49,0.05-0.96,0.08-1.39,0.08H295.5z"/>
			<path class="st0" d="M307.53,72.04c-0.54,0-0.94-0.12-1.19-0.37c-0.26-0.25-0.38-0.65-0.38-1.2c0-0.65,0.12-1.1,0.38-1.34
				c0.25-0.24,0.65-0.36,1.2-0.36h4.82V43.95h3.34v28.09H307.53z"/>
			<path class="st0" d="M342.21,72.04c-0.38,0-0.76-0.04-1.12-0.13c-0.36-0.09-0.71-0.21-1.03-0.37c-0.32-0.15-0.61-0.33-0.85-0.54
				c-0.25-0.2-0.44-0.43-0.57-0.67c0,1.81-0.11,3.39-0.33,4.77c-0.22,1.37-0.6,2.52-1.15,3.44c-0.55,0.92-1.3,1.62-2.26,2.08
				c-0.95,0.47-2.17,0.7-3.64,0.7h-1.17v-3.27h1.31c0.97,0,1.73-0.15,2.27-0.44c0.54-0.29,0.93-0.75,1.17-1.36
				c0.24-0.61,0.39-1.4,0.43-2.35s0.07-2.1,0.07-3.43V56.9h3.34v7.55c0,0.65,0.06,1.25,0.19,1.79s0.33,0.99,0.61,1.36
				c0.28,0.37,0.64,0.66,1.09,0.86s1,0.31,1.65,0.31c0.54,0,0.94,0.12,1.19,0.38c0.26,0.25,0.38,0.65,0.38,1.2
				c0,0.65-0.12,1.1-0.37,1.34C343.16,71.92,342.76,72.04,342.21,72.04z"/>
			<path class="st0" d="M342.21,72.04c-0.54,0-0.94-0.12-1.19-0.37c-0.26-0.25-0.38-0.65-0.38-1.2c0-0.65,0.12-1.1,0.38-1.34
				c0.25-0.24,0.65-0.36,1.2-0.36h5.82c0.54,0,0.94,0.12,1.19,0.38c0.26,0.25,0.38,0.65,0.38,1.2c0,0.65-0.12,1.1-0.37,1.34
				c-0.25,0.24-0.65,0.36-1.2,0.36H342.21z"/>
			<path class="st0" d="M348.04,72.04c-0.54,0-0.94-0.12-1.19-0.37c-0.26-0.25-0.38-0.65-0.38-1.2c0-0.65,0.12-1.1,0.38-1.34
				c0.25-0.24,0.65-0.36,1.2-0.36h5.82c0.54,0,0.94,0.12,1.19,0.38c0.26,0.25,0.38,0.65,0.38,1.2c0,0.65-0.12,1.1-0.37,1.34
				c-0.25,0.24-0.65,0.36-1.2,0.36H348.04z"/>
			<path class="st0" d="M353.86,72.04c-0.54,0-0.94-0.12-1.19-0.37c-0.26-0.25-0.38-0.65-0.38-1.2c0-0.65,0.12-1.1,0.38-1.34
				c0.25-0.24,0.65-0.36,1.2-0.36h5.82c0.54,0,0.94,0.12,1.19,0.38c0.26,0.25,0.38,0.65,0.38,1.2c0,0.65-0.12,1.1-0.37,1.34
				c-0.25,0.24-0.65,0.36-1.2,0.36H353.86z"/>
			<path class="st0" d="M359.68,72.04c-0.54,0-0.94-0.12-1.19-0.37c-0.26-0.25-0.38-0.65-0.38-1.2c0-0.65,0.12-1.1,0.38-1.34
				c0.25-0.24,0.65-0.36,1.2-0.36h5.82c0.54,0,0.94,0.12,1.19,0.38c0.26,0.25,0.38,0.65,0.38,1.2c0,0.65-0.12,1.1-0.37,1.34
				c-0.25,0.24-0.65,0.36-1.2,0.36H359.68z"/>
			<path class="st0" d="M365.5,72.04c-0.54,0-0.94-0.12-1.19-0.37c-0.26-0.25-0.38-0.65-0.38-1.2c0-0.65,0.12-1.1,0.38-1.34
				c0.25-0.24,0.65-0.36,1.2-0.36h5.82c0.54,0,0.94,0.12,1.19,0.38c0.26,0.25,0.38,0.65,0.38,1.2c0,0.65-0.12,1.1-0.37,1.34
				c-0.25,0.24-0.65,0.36-1.2,0.36H365.5z"/>
			<path class="st0" d="M371.32,72.04c-0.54,0-0.94-0.12-1.19-0.37c-0.26-0.25-0.38-0.65-0.38-1.2c0-0.65,0.12-1.1,0.38-1.34
				c0.25-0.24,0.65-0.36,1.2-0.36h5.82c0.54,0,0.94,0.12,1.19,0.38c0.26,0.25,0.38,0.65,0.38,1.2c0,0.65-0.12,1.1-0.37,1.34
				c-0.25,0.24-0.65,0.36-1.2,0.36H371.32z"/>
			<path class="st0" d="M377.15,72.04c-0.54,0-0.94-0.12-1.19-0.37c-0.26-0.25-0.38-0.65-0.38-1.2c0-0.65,0.12-1.1,0.38-1.34
				c0.25-0.24,0.65-0.36,1.2-0.36h5.82c0.54,0,0.94,0.12,1.19,0.38c0.26,0.25,0.38,0.65,0.38,1.2c0,0.65-0.12,1.1-0.37,1.34
				c-0.25,0.24-0.65,0.36-1.2,0.36H377.15z"/>
			<path class="st0" d="M382.97,72.04c-0.54,0-0.94-0.12-1.19-0.37c-0.26-0.25-0.38-0.65-0.38-1.2c0-0.65,0.12-1.1,0.38-1.34
				c0.25-0.24,0.65-0.36,1.2-0.36h5.82c0.54,0,0.94,0.12,1.19,0.38c0.26,0.25,0.38,0.65,0.38,1.2c0,0.65-0.12,1.1-0.37,1.34
				c-0.25,0.24-0.65,0.36-1.2,0.36H382.97z"/>
			<path class="st0" d="M388.79,72.04c-0.54,0-0.94-0.12-1.19-0.37c-0.26-0.25-0.38-0.65-0.38-1.2c0-0.65,0.12-1.1,0.38-1.34
				c0.25-0.24,0.65-0.36,1.2-0.36h5.82c0.54,0,0.94,0.12,1.19,0.38c0.26,0.25,0.38,0.65,0.38,1.2c0,0.65-0.12,1.1-0.37,1.34
				c-0.25,0.24-0.65,0.36-1.2,0.36H388.79z"/>
			<path class="st0" d="M424.76,68.77c0.54,0,0.94,0.12,1.19,0.38c0.26,0.25,0.38,0.65,0.38,1.2c0,0.65-0.12,1.1-0.37,1.34
				c-0.24,0.24-0.65,0.36-1.21,0.36h-30.15c-0.54,0-0.94-0.12-1.19-0.37c-0.26-0.25-0.38-0.65-0.38-1.2c0-0.65,0.12-1.1,0.38-1.34
				c0.25-0.24,0.65-0.36,1.2-0.36h4.94V43.95h3.34v18.95c1.43-2.24,3.05-3.89,4.83-4.96c1.79-1.06,3.76-1.59,5.91-1.59
				c1.32,0,2.49,0.21,3.53,0.62c1.03,0.42,1.9,1.01,2.61,1.79c0.71,0.78,1.25,1.72,1.63,2.84c0.38,1.12,0.57,2.39,0.57,3.79v3.38
				H424.76z M418.63,68.77v-3.27c0-0.74-0.08-1.47-0.23-2.19s-0.44-1.35-0.85-1.9c-0.42-0.55-0.98-1-1.69-1.34
				c-0.71-0.34-1.62-0.51-2.74-0.51c-0.83,0-1.63,0.12-2.39,0.38c-0.76,0.25-1.48,0.6-2.16,1.04c-0.68,0.44-1.31,0.96-1.9,1.55
				c-0.59,0.59-1.12,1.23-1.6,1.91c-0.48,0.69-0.9,1.4-1.27,2.13c-0.37,0.74-0.66,1.47-0.89,2.2H418.63z"/>
			<path class="st0" d="M429.54,68.77c-0.29-0.55-0.55-1.17-0.78-1.85c-0.22-0.69-0.34-1.51-0.34-2.47c0-1.15,0.18-2.22,0.55-3.21
				c0.37-0.99,0.89-1.84,1.57-2.57c0.68-0.73,1.5-1.3,2.47-1.71s2.05-0.61,3.26-0.61c1.49,0,2.71,0.26,3.66,0.79
				c0.95,0.53,1.7,1.19,2.25,2.01s0.92,1.71,1.13,2.7s0.32,1.95,0.32,2.88v7.32h-18.87c-0.54,0-0.94-0.12-1.19-0.37
				c-0.26-0.25-0.38-0.65-0.38-1.2c0-0.65,0.12-1.1,0.38-1.34c0.25-0.24,0.65-0.36,1.2-0.36H429.54z M431.39,50.27
				c0-0.28,0.05-0.55,0.16-0.8c0.11-0.25,0.26-0.47,0.45-0.66c0.19-0.19,0.41-0.34,0.66-0.45c0.25-0.11,0.52-0.16,0.82-0.16
				c0.28,0,0.55,0.05,0.8,0.16c0.25,0.11,0.47,0.26,0.66,0.45c0.19,0.19,0.34,0.41,0.45,0.66c0.11,0.25,0.16,0.52,0.16,0.8
				c0,0.29-0.05,0.57-0.16,0.82c-0.11,0.25-0.26,0.47-0.45,0.66c-0.19,0.19-0.41,0.34-0.66,0.45c-0.25,0.11-0.52,0.16-0.8,0.16
				c-0.29,0-0.57-0.05-0.82-0.16c-0.25-0.11-0.47-0.26-0.66-0.45c-0.19-0.19-0.34-0.41-0.45-0.66
				C431.44,50.84,431.39,50.57,431.39,50.27z M431.79,64.12c0,0.79,0.12,1.48,0.37,2.07c0.24,0.58,0.58,1.07,1.02,1.45
				c0.44,0.38,0.95,0.67,1.55,0.85s1.25,0.28,1.95,0.28h3.61v-3.94c0-0.64-0.05-1.28-0.16-1.92c-0.11-0.64-0.32-1.22-0.63-1.73
				s-0.75-0.93-1.32-1.25c-0.56-0.32-1.31-0.48-2.23-0.48c-0.61,0-1.18,0.12-1.69,0.38c-0.51,0.25-0.95,0.59-1.32,1.01
				c-0.37,0.42-0.65,0.92-0.85,1.48C431.89,62.88,431.79,63.48,431.79,64.12z M436.5,50.27c0-0.28,0.05-0.55,0.16-0.8
				c0.11-0.25,0.26-0.47,0.45-0.66c0.19-0.19,0.41-0.34,0.66-0.45c0.25-0.11,0.52-0.16,0.82-0.16c0.28,0,0.55,0.05,0.8,0.16
				c0.25,0.11,0.47,0.26,0.66,0.45c0.19,0.19,0.34,0.41,0.45,0.66c0.11,0.25,0.16,0.52,0.16,0.8c0,0.29-0.05,0.57-0.16,0.82
				c-0.11,0.25-0.26,0.47-0.45,0.66c-0.19,0.19-0.41,0.34-0.66,0.45c-0.25,0.11-0.52,0.16-0.8,0.16c-0.29,0-0.57-0.05-0.82-0.16
				c-0.25-0.11-0.47-0.26-0.66-0.45c-0.19-0.19-0.34-0.41-0.45-0.66C436.55,50.84,436.5,50.57,436.5,50.27z"/>
			<path class="st0" d="M469.8,72.04c-0.38,0-0.76-0.04-1.12-0.13c-0.36-0.09-0.71-0.21-1.03-0.37c-0.32-0.15-0.61-0.33-0.85-0.54
				c-0.25-0.2-0.44-0.43-0.57-0.67c0,1.81-0.11,3.39-0.33,4.77c-0.22,1.37-0.6,2.52-1.15,3.44c-0.55,0.92-1.3,1.62-2.26,2.08
				c-0.95,0.47-2.17,0.7-3.64,0.7h-1.17v-3.27h1.31c0.97,0,1.73-0.15,2.27-0.44c0.54-0.29,0.93-0.75,1.17-1.36
				c0.24-0.61,0.39-1.4,0.43-2.35s0.07-2.1,0.07-3.43V56.9h3.34v7.55c0,0.65,0.06,1.25,0.19,1.79s0.33,0.99,0.61,1.36
				c0.28,0.37,0.64,0.66,1.09,0.86s1,0.31,1.65,0.31c0.54,0,0.94,0.12,1.19,0.38c0.26,0.25,0.38,0.65,0.38,1.2
				c0,0.65-0.12,1.1-0.37,1.34C470.75,71.92,470.35,72.04,469.8,72.04z M462.51,50.27c0-0.28,0.05-0.55,0.16-0.8
				c0.11-0.25,0.26-0.47,0.45-0.66c0.19-0.19,0.41-0.34,0.66-0.45c0.25-0.11,0.52-0.16,0.82-0.16c0.28,0,0.55,0.05,0.8,0.16
				c0.25,0.11,0.47,0.26,0.66,0.45c0.19,0.19,0.34,0.41,0.45,0.66c0.11,0.25,0.16,0.52,0.16,0.8c0,0.29-0.05,0.57-0.16,0.82
				c-0.11,0.25-0.26,0.47-0.45,0.66c-0.19,0.19-0.41,0.34-0.66,0.45c-0.25,0.11-0.52,0.16-0.8,0.16c-0.29,0-0.57-0.05-0.82-0.16
				c-0.25-0.11-0.47-0.26-0.66-0.45c-0.19-0.19-0.34-0.41-0.45-0.66C462.57,50.84,462.51,50.57,462.51,50.27z"/>
			<path class="st0" d="M469.8,72.04c-0.54,0-0.94-0.12-1.19-0.37c-0.26-0.25-0.38-0.65-0.38-1.2c0-0.65,0.12-1.1,0.38-1.34
				c0.25-0.24,0.65-0.36,1.2-0.36h5.82c0.54,0,0.94,0.12,1.19,0.38c0.26,0.25,0.38,0.65,0.38,1.2c0,0.65-0.12,1.1-0.37,1.34
				c-0.25,0.24-0.65,0.36-1.2,0.36H469.8z"/>
			<path class="st0" d="M475.62,72.04c-0.54,0-0.94-0.12-1.19-0.37c-0.26-0.25-0.38-0.65-0.38-1.2c0-0.65,0.12-1.1,0.38-1.34
				c0.25-0.24,0.65-0.36,1.2-0.36h5.82c0.54,0,0.94,0.12,1.19,0.38c0.26,0.25,0.38,0.65,0.38,1.2c0,0.65-0.12,1.1-0.37,1.34
				c-0.25,0.24-0.65,0.36-1.2,0.36H475.62z"/>
			<path class="st0" d="M481.44,72.04c-0.54,0-0.94-0.12-1.19-0.37c-0.26-0.25-0.38-0.65-0.38-1.2c0-0.65,0.12-1.1,0.38-1.34
				c0.25-0.24,0.65-0.36,1.2-0.36h5.82c0.54,0,0.94,0.12,1.19,0.38c0.26,0.25,0.38,0.65,0.38,1.2c0,0.65-0.12,1.1-0.37,1.34
				c-0.25,0.24-0.65,0.36-1.2,0.36H481.44z"/>
			<path class="st0" d="M487.26,72.04c-0.54,0-0.94-0.12-1.19-0.37c-0.26-0.25-0.38-0.65-0.38-1.2c0-0.65,0.12-1.1,0.38-1.34
				c0.25-0.24,0.65-0.36,1.2-0.36h5.82c0.54,0,0.94,0.12,1.19,0.38c0.26,0.25,0.38,0.65,0.38,1.2c0,0.65-0.12,1.1-0.37,1.34
				c-0.25,0.24-0.65,0.36-1.2,0.36H487.26z"/>
			<path class="st0" d="M493.08,72.04c-0.54,0-0.94-0.12-1.19-0.37c-0.26-0.25-0.38-0.65-0.38-1.2c0-0.65,0.12-1.1,0.38-1.34
				c0.25-0.24,0.65-0.36,1.2-0.36h5.82c0.54,0,0.94,0.12,1.19,0.38c0.26,0.25,0.38,0.65,0.38,1.2c0,0.65-0.12,1.1-0.37,1.34
				c-0.25,0.24-0.65,0.36-1.2,0.36H493.08z"/>
			<path class="st0" d="M498.91,72.04c-0.54,0-0.94-0.12-1.19-0.37c-0.26-0.25-0.38-0.65-0.38-1.2c0-0.65,0.12-1.1,0.38-1.34
				c0.25-0.24,0.65-0.36,1.2-0.36h5.82c0.54,0,0.94,0.12,1.19,0.38c0.26,0.25,0.38,0.65,0.38,1.2c0,0.65-0.12,1.1-0.37,1.34
				c-0.25,0.24-0.65,0.36-1.2,0.36H498.91z"/>
			<path class="st0" d="M504.73,72.04c-0.54,0-0.94-0.12-1.19-0.37c-0.26-0.25-0.38-0.65-0.38-1.2c0-0.65,0.12-1.1,0.38-1.34
				c0.25-0.24,0.65-0.36,1.2-0.36h5.82c0.54,0,0.94,0.12,1.19,0.38c0.26,0.25,0.38,0.65,0.38,1.2c0,0.65-0.12,1.1-0.37,1.34
				c-0.25,0.24-0.65,0.36-1.2,0.36H504.73z"/>
			<path class="st0" d="M510.55,72.04c-0.54,0-0.94-0.12-1.19-0.37c-0.26-0.25-0.38-0.65-0.38-1.2c0-0.65,0.12-1.1,0.38-1.34
				c0.25-0.24,0.65-0.36,1.2-0.36h9.4c0.49,0,0.94-0.04,1.35-0.12c0.42-0.08,0.77-0.21,1.08-0.4c0.3-0.19,0.54-0.44,0.71-0.76
				s0.26-0.71,0.26-1.2c0-0.77-0.28-1.58-0.83-2.44c-0.55-0.86-1.29-1.7-2.22-2.52s-2-1.6-3.21-2.33c-1.21-0.74-2.48-1.37-3.79-1.89
				v-3.46l12.78-8.3v3.84l-9.32,5.73c1.81,0.85,3.33,1.75,4.56,2.72c1.24,0.97,2.23,1.95,2.99,2.95s1.3,2,1.63,3.01
				c0.33,1.01,0.5,1.97,0.5,2.89c0,0.56-0.08,1.17-0.24,1.82c-0.16,0.65-0.46,1.25-0.91,1.81c-0.45,0.56-1.07,1.02-1.86,1.38
				c-0.79,0.36-1.82,0.55-3.07,0.55H510.55z"/>
			<path class="st0" d="M541.45,72.04c-0.38,0-0.76-0.04-1.12-0.13c-0.36-0.09-0.71-0.21-1.03-0.37c-0.32-0.15-0.61-0.33-0.85-0.54
				c-0.25-0.2-0.44-0.43-0.57-0.67c0,1.81-0.11,3.39-0.33,4.77c-0.22,1.37-0.6,2.52-1.15,3.44c-0.55,0.92-1.3,1.62-2.26,2.08
				c-0.95,0.47-2.17,0.7-3.64,0.7h-1.17v-3.27h1.31c0.97,0,1.73-0.15,2.27-0.44c0.54-0.29,0.93-0.75,1.17-1.36
				c0.24-0.61,0.39-1.4,0.43-2.35s0.07-2.1,0.07-3.43V56.9h3.34v7.55c0,0.65,0.06,1.25,0.19,1.79s0.33,0.99,0.61,1.36
				c0.28,0.37,0.64,0.66,1.09,0.86s1,0.31,1.65,0.31c0.54,0,0.94,0.12,1.19,0.38c0.26,0.25,0.38,0.65,0.38,1.2
				c0,0.65-0.12,1.1-0.37,1.34C542.4,71.92,542,72.04,541.45,72.04z"/>
			<path class="st0" d="M547.86,69.79c-0.35,0.53-0.7,0.94-1.06,1.24c-0.36,0.3-0.73,0.53-1.11,0.67c-0.38,0.15-0.79,0.24-1.21,0.28
				c-0.42,0.04-0.87,0.06-1.34,0.06h-1.69c-0.54,0-0.94-0.12-1.19-0.37c-0.26-0.25-0.38-0.65-0.38-1.2c0-0.65,0.12-1.1,0.38-1.34
				c0.25-0.24,0.65-0.36,1.2-0.36h1.61c0.31,0,0.63-0.04,0.98-0.12c0.35-0.08,0.69-0.24,1.03-0.49c0.34-0.25,0.66-0.61,0.97-1.08
				c0.31-0.47,0.58-1.1,0.81-1.89c0.46-1.6,1.02-2.91,1.68-3.93c0.66-1.02,1.37-1.82,2.12-2.41c0.76-0.59,1.53-0.99,2.32-1.21
				c0.79-0.22,1.54-0.33,2.26-0.33c1.02,0,1.97,0.18,2.82,0.53c0.86,0.35,1.6,0.85,2.22,1.51c0.62,0.65,1.1,1.43,1.45,2.34
				c0.35,0.91,0.52,1.92,0.52,3.04c0,1.18-0.14,2.25-0.42,3.22c-0.28,0.97-0.72,1.79-1.31,2.47c-0.59,0.68-1.33,1.2-2.22,1.58
				c-0.89,0.37-1.94,0.56-3.14,0.56c-0.53,0-1.06-0.04-1.61-0.12c-0.55-0.08-1.12-0.23-1.72-0.44c-0.6-0.21-1.22-0.5-1.87-0.85
				C549.28,70.78,548.59,70.33,547.86,69.79z M558.87,65.09c0-0.68-0.08-1.3-0.25-1.85s-0.41-1.03-0.74-1.43
				c-0.33-0.4-0.73-0.7-1.21-0.92c-0.48-0.22-1.03-0.33-1.64-0.33s-1.2,0.12-1.76,0.38c-0.56,0.25-1.07,0.64-1.55,1.17
				c-0.47,0.53-0.9,1.21-1.29,2.03s-0.72,1.81-1,2.96c0.88,0.69,1.81,1.22,2.77,1.58c0.96,0.37,1.88,0.55,2.77,0.55
				c1.22,0,2.17-0.32,2.86-0.96S558.87,66.56,558.87,65.09z"/>
		</g>
	</g>
</g>
</svg>
