<svg width="105" height="56" viewBox="0 0 105 56" fill="none" xmlns="http://www.w3.org/2000/svg">
<g id="Frame 375">
<path id="Vector" d="M14.3182 28.4944L12.426 30.3971L10.5 28.4944L12.426 26.5577L14.3182 28.4944ZM18.9473 23.8395L22.2249 27.1353L24.1508 25.1986L18.9473 20L13.7776 25.1986L15.7035 27.1353L18.9473 23.8395ZM25.4686 26.5577L23.5764 28.4944L25.5024 30.4311L27.3946 28.4944L25.4686 26.5577ZM18.9473 33.1493L15.6698 29.8535L13.7438 31.7902L18.9473 36.9888L24.1171 31.7902L22.2249 29.8535L18.9473 33.1493ZM18.9473 30.3971L20.8733 28.4604L18.9473 26.5577L17.0213 28.4944L18.9473 30.3971ZM39.0857 30.601C39.0857 29.3098 38.4099 28.6982 37.3624 28.2905C38.0382 27.9168 38.5788 27.3391 38.5788 26.2858V26.2519C38.5788 24.7908 37.3962 23.8395 35.5378 23.8395H31.2128V33.1493H35.6054C37.7003 33.1493 39.0857 32.2999 39.0857 30.601ZM36.5177 26.6256C36.5177 27.3391 35.9433 27.611 35.0648 27.611H33.1726V25.6403H35.1999C36.0446 25.6403 36.5177 25.98 36.5177 26.6256ZM37.0583 30.3292C37.0583 31.0087 36.5177 31.3485 35.6392 31.3485H33.2064V29.3098H35.5716C36.5853 29.3098 37.0583 29.6836 37.0583 30.3292ZM43.3431 33.1493V23.8395H41.282V33.1493H43.3431ZM54.2908 33.1493V23.8395H52.2635V29.5817L47.9385 23.8395H46.0463V33.1493H48.0736V27.2372L52.5676 33.1493H54.2908ZM65.5764 33.1493L61.5893 23.7715H59.6971L55.71 33.1493H57.8049L58.6496 31.0427H62.5692L63.4139 33.1493H65.5764ZM61.8596 29.2419H59.393L60.6432 26.2179L61.8596 29.2419ZM75.3077 33.1493V23.8395H73.2804V29.5817L68.9553 23.8395H67.0631V33.1493H69.0905V27.2372L73.5845 33.1493H75.3077ZM85.8162 31.6543L84.4984 30.3292C83.755 31.0087 83.113 31.4164 82.0656 31.4164C80.4775 31.4164 79.3624 30.0913 79.3624 28.4944V28.4604C79.3624 26.8635 80.4775 25.5723 82.0656 25.5723C82.9779 25.5723 83.7212 25.98 84.4308 26.6256L85.7486 25.1306C84.9039 24.2812 83.8564 23.7035 82.0993 23.7035C79.2611 23.7035 77.2675 25.8781 77.2675 28.5284V28.4944C77.2675 31.1786 79.2948 33.2852 82.0318 33.2852C83.7888 33.3192 84.8701 32.6736 85.8162 31.6543ZM94.5 33.1493V31.3145H89.4654V29.3438H93.8242V27.509H89.4654V25.6063H94.4324V23.7715H87.438V33.0813L94.5 33.1493Z" fill="#F0B90B"/>
<rect x="1" y="0.5" width="103" height="55" rx="7.5" stroke="black" stroke-opacity="0.22"/>
</g>
</svg>
