<svg width="100" height="26" viewBox="0 0 100 26" fill="none" xmlns="http://www.w3.org/2000/svg">
<path d="M60.9209 7.112C59.4714 7.08845 58.042 7.45218 56.7801 8.16563C56.7801 4.48846 56.7801 1.14846 56.896 0L49.194 1.38032V2.07588L50.0053 2.18083C51.0589 2.41263 51.375 2.9922 51.6068 4.37246C51.8386 7.12243 51.7227 21.8418 51.6068 24.2546C53.7179 24.7509 55.8761 25.0191 58.0445 25.0551C64.1344 25.0551 67.8116 21.262 67.8116 15.2879C67.8116 10.5782 64.8298 7.12229 60.9209 7.12229V7.112ZM58.2762 23.7802C57.813 23.8044 57.3487 23.7656 56.896 23.6645C56.7801 22.063 56.6642 15.2356 56.7801 9.30363C57.3312 9.08706 57.9161 8.96927 58.5081 8.95585C61.0368 8.95585 62.417 11.9482 62.417 15.6254C62.417 20.2192 60.6891 23.7802 58.2762 23.7802V23.7802ZM20.2297 0.453246H0V1.50688L1.15903 1.62263C2.64465 1.85443 3.26628 2.77125 3.45594 4.95226C3.73537 10.0058 3.73537 15.0709 3.45594 20.1244C3.22414 22.3054 2.64465 23.285 1.15903 23.4535L0 23.6856V24.6023H12.9913V23.6856L11.611 23.4535C10.1149 23.3376 9.50377 22.3054 9.31411 20.1244C9.19821 18.6283 9.08228 16.2152 9.08228 13.2228L11.8428 13.3391C13.5707 13.3391 14.3715 14.7193 14.7192 16.679H15.7729V8.51341H14.7192C14.3715 10.4732 13.5707 11.8533 11.8428 11.8533L9.08228 11.9691C9.08228 8.06012 9.19821 4.38318 9.31411 2.19163H13.339C16.4367 2.19163 18.0487 4.15126 19.1972 7.59663L20.3456 7.24885L20.2297 0.474339V0.453246Z" fill="#2E2E2E"/>
<path d="M26.7833 6.91221C32.5256 6.91221 35.402 10.821 35.402 15.9838C35.402 20.9253 32.1884 25.0662 26.4356 25.0662C20.6828 25.0662 17.8169 21.1571 17.8169 15.9838C17.8169 11.0423 21.041 6.91221 26.7833 6.91221ZM26.4356 8.06051C23.9069 8.06051 23.222 11.5059 23.222 15.9838C23.222 20.4617 24.3704 23.9179 26.6674 23.9179C29.312 23.9179 29.9969 20.4723 29.9969 15.9838C29.9969 11.4954 28.8484 8.06051 26.4883 8.06051H26.4356ZM69.3078 16.0996C69.3078 11.3899 72.2895 6.91221 78.1582 6.91221C82.9838 6.91221 85.2808 10.4736 85.2808 15.1833H74.5969C74.481 19.3978 76.5462 22.5587 80.687 22.5587C82.0996 22.621 83.4874 22.172 84.5959 21.2942L85.049 21.8734C84.2119 22.8945 83.1514 23.7097 81.9493 24.2559C80.7473 24.8022 79.4358 25.0651 78.1161 25.024C76.9317 25.0695 75.7509 24.868 74.6488 24.4319C73.5467 23.9958 72.5475 23.3348 71.7149 22.4913C70.8823 21.6478 70.2345 20.6403 69.8128 19.5326C69.3911 18.4249 69.2047 17.2416 69.2656 16.0579L69.3078 16.0996ZM74.5759 13.9187L79.9705 13.803C79.9705 11.5061 79.6333 8.06051 77.6736 8.06051C75.7138 8.06051 74.7023 11.3268 74.5969 13.9187H74.5759ZM98.9358 7.82899C97.2553 7.18659 95.4664 6.8752 93.6677 6.91221C89.4532 6.91221 86.7664 9.4409 86.7664 12.4227C86.7664 15.4044 88.7156 16.6374 91.4761 17.5962C94.2366 18.555 95.1533 19.4398 95.1533 20.8095C95.153 21.1758 95.0769 21.538 94.9299 21.8734C94.7828 22.2089 94.568 22.5105 94.2988 22.7588C94.0296 23.0072 93.712 23.1968 93.3658 23.3165C93.0197 23.4362 92.6525 23.483 92.2874 23.4539C90.0959 23.4539 88.4944 22.1898 87.23 18.7445L86.4187 18.976L86.5346 24.0337C88.4902 24.7276 90.5496 25.0839 92.6246 25.0873C97.1131 25.0873 100 22.7903 100 19.2291C100 16.8163 98.7356 15.4361 95.7855 14.2876C92.5614 13.0233 91.4129 12.1805 91.4129 10.7265C91.394 10.3984 91.443 10.0697 91.5568 9.76133C91.6705 9.453 91.8465 9.17134 92.0739 8.93407C92.3013 8.6968 92.5751 8.5093 92.8784 8.38256C93.1816 8.25582 93.5076 8.19247 93.8362 8.19735C95.9435 8.19735 97.2816 9.46185 98.3142 12.5595L99.1149 12.328L98.999 7.85009L98.9358 7.82899ZM50.3214 7.36546C48.3721 6.217 44.9162 6.79638 43.0829 10.9266L43.1988 6.91221L35.4968 8.398V9.09304L36.2975 9.20931C37.3512 9.32521 37.7937 9.89399 37.9096 11.3901C38.0835 14.7209 38.0835 18.0581 37.9096 21.3888C37.7937 22.7691 37.3406 23.4964 36.2975 23.5702L35.4968 23.6859V24.613H46.1806V23.6859L44.8109 23.5702C43.6624 23.4543 43.3147 22.7691 43.1988 21.3888C42.9825 18.2924 42.9438 15.1865 43.0829 12.0857C43.6519 11.2744 46.1806 10.5895 48.488 12.0857L50.3214 7.36546V7.36546Z" fill="#2E2E2E"/>
</svg>
