<svg width="100" height="29" viewBox="0 0 100 29" fill="none" xmlns="http://www.w3.org/2000/svg">
<path d="M54.204 18.4011C54.204 21.5024 50.3446 21.3187 50.3446 21.3187H46.4967V15.7017H50.3446C54.3189 15.7017 54.204 18.3781 54.204 18.3781V18.4011ZM46.4967 7.15596H49.4257C52.481 7.31677 52.3662 9.5912 52.3662 9.5912C52.3662 12.4168 48.9892 12.4628 48.9892 12.4628H46.4967V7.15596ZM53.4919 13.5654C54.2702 13.1947 54.9286 12.6123 55.3917 11.8851C55.8548 11.1579 56.104 10.3153 56.1107 9.45323C56.1107 9.45323 56.5127 4.55974 50.0345 3.96245H42.844V24.4657H51.0797C51.0797 24.4657 57.9715 24.4657 57.9715 18.7225C57.9715 18.7225 58.1323 14.7715 53.4919 13.6114V13.5654ZM34.884 0H65.1505V28.5089H34.884V0ZM19.3085 18.3781C19.3085 21.4794 15.4491 21.2957 15.4491 21.2957H11.5897V15.7017H15.4491C19.4234 15.7017 19.3085 18.3781 19.3085 18.3781ZM11.5897 7.15596H14.5302C17.5856 7.31677 17.4707 9.5912 17.4707 9.5912C17.4707 12.4168 14.0938 12.4628 14.0938 12.4628H11.5897V7.15596ZM18.5964 13.5654C19.3747 13.1947 20.0331 12.6123 20.4962 11.8851C20.9593 11.1579 21.2085 10.3153 21.2153 9.45323C21.2153 9.45323 21.6058 4.55974 15.1275 3.96245H7.94856V24.4657H16.1842C16.1842 24.4657 23.076 24.4657 23.076 18.7225C23.076 18.7225 23.2369 14.7715 18.6079 13.6114L18.5964 13.5654ZM0 0H30.2665V28.5089H0V0ZM93.8893 5.479V9.26927C91.5135 7.89404 88.8434 7.10642 86.1016 6.972C86.1016 6.972 78.4861 6.82252 78.1415 14.2772C78.1415 14.2772 77.8658 21.169 86.0097 21.5251C86.0097 21.5251 89.4556 21.9389 94.0501 18.9754V22.9037C92.0007 23.9908 89.7432 24.6287 87.4279 24.7753C85.1126 24.9218 82.7927 24.5734 80.6226 23.7534C78.7616 22.9625 77.1734 21.6435 76.0546 19.9592C74.9358 18.2749 74.3355 16.2992 74.3281 14.2772C74.3639 11.9899 75.1498 9.77809 76.5651 7.98098C77.9804 6.18387 79.9466 4.90133 82.1617 4.33037C84.1171 3.7546 86.172 3.59814 88.192 3.87103C90.1483 4.1567 92.057 4.70526 93.8663 5.502L93.8893 5.479ZM69.745 28.5319H100V0.0229951H69.745V28.5319Z" fill="#2E2E2E"/>
</svg>
