<svg width="160" height="23" viewBox="0 0 160 23" fill="none" xmlns="http://www.w3.org/2000/svg">
<path d="M144.182 13.7508C144.234 13.7642 144.288 13.7731 144.341 13.7773C144.421 13.7773 144.421 13.8303 144.421 13.8303L144.448 13.9366C144.448 13.9366 144.554 13.9631 144.58 14.0162C144.607 14.0693 144.554 14.0694 144.527 14.0694C144.501 14.0694 144.421 14.0694 144.421 14.0694L144.474 14.1755L144.368 14.2286L144.209 14.1755L144.262 14.2551L144.209 14.3083C144.209 14.3083 143.97 14.2287 143.97 14.2021C143.97 14.1756 143.917 14.149 143.917 14.149L143.731 14.1755L143.757 14.0958L143.943 14.0428C143.995 14.0211 144.048 14.0033 144.103 13.9897C144.129 13.9897 143.97 13.9366 143.97 13.9101C143.97 13.8835 143.917 13.8569 143.917 13.8569H143.864L143.704 13.9366L143.757 13.9631L143.651 14.0694C143.627 14.0909 143.601 14.1087 143.572 14.1224C143.492 14.1489 143.439 14.1224 143.386 14.149H143.359C143.333 14.1755 143.306 14.1756 143.253 14.2021L143.306 14.1755H143.386L143.439 14.2286L143.492 14.2551C143.47 14.2735 143.441 14.283 143.412 14.2817H143.28L143.173 14.3083L143.2 14.2551H143.147C142.934 14.3879 142.722 14.5472 142.51 14.7065V14.7595H142.616L142.775 14.8127L142.828 14.8392H142.961L142.934 14.8922L142.908 14.972V15.0516L142.961 15.0781L143.067 14.9985V14.8922C143.122 14.8789 143.175 14.8612 143.226 14.8392C143.275 14.8091 143.319 14.7735 143.359 14.7331C143.355 14.7053 143.346 14.6783 143.333 14.6533C143.37 14.629 143.405 14.6025 143.439 14.5738C143.465 14.5472 143.465 14.4676 143.465 14.4676C143.465 14.4676 143.439 14.4144 143.518 14.3879H143.704C143.731 14.3879 143.757 14.3613 143.81 14.3879C143.824 14.3891 143.837 14.395 143.847 14.4047C143.856 14.4144 143.862 14.4273 143.864 14.441H143.943L143.89 14.5206L143.81 14.5738L143.89 14.6003L143.943 14.6268L144.076 14.5472L144.129 14.494V14.5206C144.418 14.1961 144.749 13.9107 145.111 13.6712L145.032 13.5384H144.766C144.567 13.5948 144.371 13.6657 144.182 13.7508V13.7508ZM142.483 15.6357L142.536 15.6622L142.722 15.6357L142.881 15.5825L142.934 15.5029L142.802 15.5295L142.749 15.5825H142.722L142.536 15.6091L142.483 15.6357ZM142.536 15.2374L142.457 15.2109C142.457 15.2109 142.377 15.2109 142.377 15.2374C142.377 15.264 142.324 15.2639 142.297 15.2905C142.251 15.3035 142.207 15.3213 142.165 15.3436L142.191 15.3702L142.297 15.3436L142.43 15.317L142.483 15.3702L142.589 15.3436L142.669 15.317L142.642 15.264L142.536 15.2374V15.2374ZM142.536 15.3968H142.457L142.324 15.4763L142.244 15.6357H142.324L142.377 15.5295L142.483 15.4232H142.563L142.457 15.5029H142.536L142.589 15.4763V15.5295L142.669 15.5029L142.722 15.3968L142.669 15.3702L142.536 15.3968ZM143.837 15.0516C143.784 15.0516 143.784 15.0516 143.757 15.0781L143.704 15.1313L143.625 15.1843H143.651L143.81 15.1577C143.807 15.1203 143.816 15.0827 143.837 15.0516V15.0516ZM143.28 21.2106C143.278 21.1534 143.26 21.0979 143.226 21.0513C143.2 21.0248 143.2 20.9983 143.173 20.9717L143.147 20.9186C143.147 20.9186 143.147 20.9451 143.12 20.9186L143.041 20.839V20.7858L143.014 20.6531V20.3876L142.934 20.2283V20.069L142.988 19.9628L142.961 19.9363V19.7239C142.483 19.6709 142.005 19.6177 141.501 19.5381C141.973 20.2113 142.579 20.7806 143.28 21.2106V21.2106ZM141.023 17.7063C141.028 18.2729 141.174 18.8294 141.448 19.3257C141.926 19.4054 142.43 19.4584 142.961 19.5381V19.4319L142.908 19.3789L142.881 19.3523C142.84 19.3218 142.795 19.2951 142.749 19.2726C142.702 19.2501 142.658 19.2235 142.616 19.193C142.589 19.1664 142.536 19.1664 142.51 19.1398C142.495 19.1261 142.485 19.1072 142.483 19.0868C142.483 19.0868 142.35 18.8745 142.324 18.8479C142.297 18.8214 142.271 18.7948 142.271 18.7682C142.271 18.7417 142.191 18.6886 142.191 18.662L142.111 18.6089C142.098 18.5839 142.089 18.5571 142.085 18.5293C142.085 18.5028 142.111 18.4763 142.138 18.4497V18.2904C142.138 18.2639 142.271 18.1577 142.271 18.1577C142.271 18.1577 142.324 18.1045 142.35 18.0779C142.371 18.0537 142.389 18.027 142.403 17.9984C142.403 17.9718 142.43 17.8922 142.403 17.8656C142.373 17.8239 142.346 17.7795 142.324 17.7329L142.271 17.6797H142.218L142.191 17.7063V17.7329L142.165 17.7595H142.111L142.058 17.7329L142.005 17.7063L141.952 17.6533L141.819 17.6267L141.793 17.547L141.713 17.4674L141.687 17.4408H141.581L141.501 17.4143H141.448L141.395 17.3612L141.288 17.2815H141.209C141.184 17.2945 141.157 17.3035 141.129 17.3081H141.076C141.029 17.4352 141.011 17.5713 141.023 17.7063V17.7063ZM143.28 15.6357H143.545C143.572 15.556 143.625 15.4764 143.651 15.3968L143.386 15.5295C143.386 15.5136 143.285 15.6463 143.285 15.6463L143.28 15.6357ZM148.456 14.1755H148.509V14.1224H148.589V14.0958L148.669 14.0694C148.642 14.0428 148.642 14.0162 148.616 13.9897L148.536 14.0428C148.492 14.0314 148.448 14.0225 148.403 14.0162L148.324 14.0428L148.35 14.0958C148.377 14.1224 148.43 14.1755 148.456 14.1755V14.1755ZM149.067 15.6357C148.989 15.6138 148.909 15.6048 148.828 15.6091L148.934 15.6357H149.067ZM148.456 15.6091H148.35V15.6357H148.456V15.6091ZM148.855 16.4587C148.801 16.4321 148.801 16.4851 148.801 16.4851L148.934 16.6976L148.961 16.7771L149.04 16.8833C149.053 16.9083 149.062 16.9352 149.067 16.963C149.079 17.0009 149.097 17.0367 149.12 17.0692C149.12 17.0979 149.129 17.1259 149.147 17.1488C149.173 17.1753 149.279 17.3347 149.306 17.3612C149.332 17.3878 149.359 17.3877 149.439 17.4143C149.518 17.4408 149.518 17.494 149.518 17.494V17.5206L149.598 17.5736V17.4408H149.571C149.518 17.4408 149.518 17.4144 149.518 17.3878C149.518 17.3613 149.465 17.3082 149.465 17.2551C149.457 17.2075 149.439 17.1621 149.412 17.1223C149.397 17.1147 149.384 17.1034 149.375 17.0894C149.366 17.0755 149.36 17.0593 149.359 17.0426C149.359 17.0161 149.306 16.9896 149.279 16.963C149.253 16.9365 149.226 16.9364 149.226 16.8833C149.226 16.8302 149.2 16.8037 149.173 16.7506C149.166 16.7355 149.154 16.7227 149.14 16.7134C149.126 16.704 149.11 16.6986 149.093 16.6976C149.092 16.6772 149.082 16.6582 149.067 16.6444C149.014 16.5648 148.987 16.5117 148.934 16.4321C148.91 16.4463 148.883 16.4554 148.855 16.4587V16.4587ZM149.784 15.7152L149.81 15.6887L149.784 15.6622C149.686 15.6666 149.587 15.6576 149.492 15.6357L149.518 15.6887L149.571 15.7152L149.518 15.7418V15.848L149.545 15.9277H149.598L149.624 15.9541C149.649 15.9672 149.676 15.9762 149.704 15.9807H149.731C149.767 15.9751 149.802 15.9662 149.837 15.9541L149.81 15.9011V15.8214L149.784 15.795V15.7418H149.757V15.6887C149.704 15.6993 149.784 15.7259 149.784 15.7259V15.7152ZM153.553 16.1932C153.574 16.196 153.592 16.2052 153.607 16.2196C153.607 16.2196 153.633 16.2728 153.66 16.2728C153.686 16.2728 153.713 16.3259 153.713 16.3259L153.739 16.3524H153.686L153.713 16.4055V16.4321H153.739C153.736 16.4602 153.727 16.4872 153.713 16.5117C153.686 16.5648 153.713 16.6445 153.66 16.7241C153.745 17.0176 153.789 17.3212 153.792 17.6267L153.819 17.6001V17.5736L153.845 17.547V17.6001L153.819 17.6533L153.766 17.6797V17.8922H153.792L153.845 17.9188H153.792V17.9452H153.766V18.0515L153.819 18.0779V18.1045H153.766L153.739 18.1577V18.2107L153.713 18.2373C153.686 18.37 153.66 18.5027 153.633 18.6089H153.952C153.959 18.6089 153.965 18.6117 153.97 18.6167C153.975 18.6217 153.978 18.6284 153.978 18.6355L153.872 18.662L153.633 18.6886H153.607C153.55 18.9005 153.47 19.1052 153.368 19.2992C153.58 19.2726 153.766 19.2195 153.952 19.193L154.005 19.1664C154.023 19.1328 154.051 19.1052 154.084 19.0868C154.124 19.067 154.16 19.0399 154.191 19.0071C154.222 18.986 154.259 18.9767 154.297 18.9807C154.323 18.9807 154.323 19.0337 154.323 19.0337L154.403 19.0071C154.403 19.0071 154.376 19.0072 154.403 18.9807C154.432 18.947 154.458 18.9114 154.483 18.8744H154.589V18.8214L154.828 18.8744L154.775 18.9541L154.722 19.0071L154.775 19.0603L155.067 18.9807V18.9009L155.146 18.7682L155.173 18.7948L155.226 18.9275C155.347 18.8834 155.471 18.8479 155.598 18.8214C155.752 18.4885 155.834 18.1264 155.837 17.7595C155.843 17.3629 155.752 16.9707 155.571 16.6178C155.18 16.487 154.781 16.3806 154.376 16.2993V16.3259H154.35L154.323 16.2728H154.217L154.164 16.2993L154.111 16.2728L154.137 16.2462C154.084 16.2462 154.031 16.2196 153.952 16.2196C153.952 16.2231 153.951 16.2266 153.95 16.2299C153.948 16.2331 153.946 16.236 153.944 16.2384C153.941 16.2409 153.938 16.2429 153.935 16.2443C153.932 16.2456 153.929 16.2462 153.925 16.2462C153.925 16.2727 153.819 16.2728 153.819 16.2728L153.792 16.2462V16.1932C153.686 16.1666 153.58 16.1666 153.5 16.14L153.447 16.1932C153.5 16.1666 153.527 16.1666 153.553 16.1932V16.1932ZM154.005 18.7948L153.952 18.7682L154.005 18.7416L154.058 18.7948H154.005ZM155.651 18.4497H155.757L155.863 18.3966L155.837 18.4497L155.783 18.4762L155.651 18.4497V18.4497ZM154.695 18.1842L154.828 18.2373V18.2638L154.881 18.317L154.907 18.3434L154.987 18.2904L155.067 18.2373L155.093 18.2638L155.252 18.2904L155.438 18.37L155.518 18.4231V18.4497L155.651 18.4762V18.5293L155.598 18.5559H155.624L155.677 18.6355L155.73 18.662L155.757 18.7152L155.704 18.6886L155.598 18.662L155.544 18.5559L155.465 18.5293L155.385 18.5825L155.412 18.6089L155.359 18.6355L155.252 18.6089H155.173L155.093 18.5825L155.173 18.5559L155.146 18.5027L155.093 18.4231L155.014 18.3966L154.881 18.3434L154.828 18.37V18.317L154.881 18.2638H154.828L154.775 18.2107H154.722V18.1577L154.695 18.1842V18.1842ZM154.058 18.2638L154.111 18.2107H154.137L154.084 18.2904L154.111 18.37L154.164 18.3966V18.4497L154.084 18.3966L154.058 18.317L154.005 18.3434V18.5027H153.952V18.4231L153.899 18.3434L153.925 18.2373L153.978 18.1311L154.084 18.1045L154.164 18.0779H154.191L154.111 18.1311H154.005L153.978 18.2107L154.058 18.2638V18.2638ZM153.952 17.4143H154.005V17.4408L153.978 17.4674L153.952 17.4408V17.4143ZM154.111 17.5736L154.058 17.6001V17.494L154.137 17.5206L154.111 17.5736ZM154.137 17.5736V17.6533H154.111V17.6001L154.137 17.5736ZM154.217 18.7682L154.191 18.7416L154.323 18.662L154.35 18.6886L154.217 18.7682ZM154.323 17.6797L154.35 17.7063V17.7595L154.323 17.786L154.297 17.7595L154.27 17.786L154.297 17.8125L154.27 17.839H154.244L154.191 17.786V17.7329H154.111L154.084 17.786H154.058L154.084 17.7329H154.111V17.7063H154.164V17.7329L154.217 17.7063V17.6797L154.244 17.6533L154.217 17.6267L154.27 17.6533L154.323 17.6797ZM154.244 17.5736L154.191 17.547L154.217 17.5206L154.191 17.494L154.217 17.4674L154.244 17.494V17.5206L154.217 17.547C154.222 17.5466 154.226 17.5475 154.231 17.5495C154.235 17.5514 154.238 17.5543 154.241 17.558C154.244 17.5618 154.245 17.5663 154.246 17.5708C154.246 17.5754 154.246 17.58 154.244 17.5842V17.5736ZM154.191 16.2728L154.244 16.2993L154.27 16.3524V16.4321H154.217V16.3524L154.164 16.3259L154.137 16.2993L154.191 16.2728ZM154.058 17.3612L154.111 17.3878L154.164 17.4408L154.137 17.4674H154.111L154.084 17.4143H154.031L154.058 17.3612V17.3612ZM153.952 17.0958L154.005 17.1488L154.031 17.2019L154.005 17.2551L153.978 17.2815V17.3347L154.005 17.3612V17.4143L153.978 17.4408L153.952 17.3878H153.899L153.872 17.3081H153.899V17.1754L153.952 17.0958ZM153.845 16.7506H153.899V16.7771L153.872 16.8833L153.845 16.9099L153.792 16.8569V16.8037L153.845 16.7506V16.7506ZM148.881 15.4232L148.801 15.3702C148.801 15.3702 148.908 15.264 148.881 15.264C148.855 15.264 148.642 15.2905 148.642 15.2905L148.669 15.3702L148.589 15.3968L148.563 15.3702V15.3436H148.43L148.403 15.3968L148.324 15.4763V15.5295C148.545 15.5251 148.767 15.5338 148.987 15.5559C148.964 15.5063 148.927 15.464 148.881 15.4338V15.4232ZM155.067 19.1134H155.014C155.017 19.1169 155.021 19.1197 155.026 19.1216C155.03 19.1235 155.035 19.1246 155.04 19.1246C155.045 19.1246 155.05 19.1235 155.054 19.1216C155.059 19.1197 155.063 19.1169 155.067 19.1134ZM143.731 13.5384H143.784C143.791 13.5384 143.798 13.5356 143.803 13.5307C143.808 13.5257 143.81 13.5189 143.81 13.5119C143.81 13.5384 143.757 13.5384 143.731 13.5384V13.5384ZM143.97 13.5384L144.262 13.5119V13.5649C144.443 13.491 144.63 13.429 144.819 13.3791V13.3791L144.979 13.326L144.501 13.4057L144.368 13.5119L144.262 13.4587C144.209 13.4587 144.129 13.4853 144.076 13.4853L143.97 13.5384ZM140.2 15.025C140.2 14.9984 140.173 14.8658 140.173 14.8658L140.094 14.8127L139.988 14.7595H139.828C138.634 15.4232 137.811 16.2728 137.598 17.2019C138.002 16.8667 138.473 16.6222 138.979 16.4851C139.27 15.9123 139.688 15.413 140.2 15.025V15.025ZM138.952 18.9009C138.454 18.7647 137.991 18.52 137.598 18.1842C137.997 20.016 140.678 21.5557 144.288 22.1132C141.66 21.5823 139.643 20.3611 138.952 18.9009ZM140.147 15.2374L140.2 15.264C140.2 15.264 140.253 15.264 140.253 15.2374C140.233 15.2346 140.214 15.2253 140.2 15.2109L140.227 15.1843C140.2 15.1843 140.173 15.2109 140.147 15.2374V15.2374ZM143.784 21.6619C143.784 21.6619 143.864 21.715 143.864 21.7416C143.864 21.7681 143.97 21.8212 143.97 21.8212C143.916 21.8216 143.862 21.8126 143.81 21.7946C143.757 21.7681 143.545 21.6354 143.518 21.6354L143.306 21.423C143.28 21.3964 143.28 21.3965 143.28 21.3699C142.48 20.9104 141.812 20.2519 141.342 19.4585C140.578 19.3444 139.824 19.1759 139.085 18.9541C139.908 20.5204 142.218 21.7416 145.164 22.1664C144.696 22.0218 144.235 21.8533 143.784 21.6619V21.6619ZM155.412 19.1664C155.413 19.1801 155.419 19.193 155.429 19.2027C155.438 19.2124 155.451 19.2184 155.465 19.2196C155.523 19.1254 155.577 19.0278 155.624 18.9275L155.385 19.0071V19.0337C155.412 19.0868 155.385 19.1133 155.412 19.1664V19.1664ZM140.173 15.317L140.12 15.264C139.723 15.5781 139.389 15.9656 139.138 16.4055C139.377 16.3259 139.616 16.2728 139.881 16.1932C139.874 16.1932 139.868 16.1904 139.863 16.1854C139.858 16.1804 139.855 16.1736 139.855 16.1666L139.828 16.0073V15.9277C139.84 15.8474 139.877 15.7729 139.935 15.7152L140.173 15.4763C140.204 15.4488 140.223 15.4109 140.227 15.3702H140.253L140.173 15.317V15.317ZM140.227 16.3789C140.213 16.3638 140.194 16.3543 140.173 16.3524L140.12 16.4055C140.133 16.4434 140.15 16.4792 140.173 16.5117V16.5648L140.227 16.671V16.7506L140.253 16.7771C140.253 16.8037 140.28 16.8037 140.28 16.8303L140.306 16.8569H140.253L140.173 16.7771L140.147 16.7506L140.173 16.6976C140.159 16.6832 140.15 16.6645 140.147 16.6444L140.094 16.5914C140.071 16.574 140.043 16.5646 140.014 16.5648L140.067 16.5382V16.5117L140.041 16.4851V16.4321L139.988 16.3259V16.2993C139.664 16.3685 139.345 16.4572 139.032 16.5648C138.854 16.9187 138.763 17.3101 138.766 17.7063C138.766 18.0821 138.848 18.4535 139.005 18.7948C139.744 19.0266 140.498 19.2041 141.262 19.3257C141.012 18.8311 140.876 18.2869 140.864 17.7329C140.86 17.5643 140.869 17.3957 140.89 17.2285C140.837 17.202 140.837 17.2019 140.811 17.2019C140.783 17.1974 140.756 17.1884 140.731 17.1754L140.704 17.1488C140.69 17.1505 140.675 17.1491 140.662 17.1445C140.648 17.1399 140.635 17.1324 140.625 17.1223L140.545 17.0958L140.492 17.0426V17.016L140.545 16.963L140.519 16.8833C140.519 16.8833 140.412 16.8037 140.412 16.7771L140.359 16.7241C140.359 16.7241 140.306 16.6975 140.306 16.671V16.6444C140.306 16.6179 140.253 16.5648 140.253 16.5648C140.229 16.5278 140.202 16.4924 140.173 16.4587C140.227 16.4321 140.253 16.4055 140.227 16.3789V16.3789ZM141.076 14.2021L141.288 14.149C141.288 14.149 141.527 14.0958 141.554 14.0958L141.581 14.1224L141.713 14.0958L141.766 14.0694H141.846C141.93 14.0227 142.019 13.9869 142.111 13.9631C142.085 13.9631 142.058 13.9897 142.005 14.0162C141.899 14.0428 142.032 13.9631 141.899 13.9631C141.873 13.9631 141.952 13.91 142.032 13.8835C142.1 13.8558 142.171 13.8379 142.244 13.8303C142.403 13.8038 142.403 13.8569 142.403 13.8569H142.43C142.973 13.6452 143.533 13.4766 144.103 13.3525H144.129C144.149 13.3506 144.168 13.3411 144.182 13.326C143.109 13.4878 142.058 13.7729 141.05 14.1755H141.076C141.023 14.2021 141.076 14.2021 141.076 14.2021V14.2021ZM147.076 13.2198C147.009 13.27 146.938 13.3144 146.863 13.3525C146.834 13.4104 146.816 13.4736 146.81 13.5384C146.805 13.5746 146.796 13.6101 146.784 13.6446C146.784 13.6446 146.598 13.7242 146.518 13.7508C146.439 13.7773 146.359 13.857 146.253 13.9101C146.226 13.9366 146.2 13.9366 146.147 13.9366C145.838 14.4174 145.614 14.947 145.483 15.5029C145.775 15.5029 146.067 15.4763 146.333 15.4763L146.306 15.3968H146.359L146.386 15.3436H146.678C146.731 15.3436 146.731 15.317 146.731 15.317V15.2109L146.704 15.1313L146.651 15.0781L146.545 15.025V14.9985H146.598L146.625 15.025L146.704 14.9985L146.678 14.9454H146.757L146.81 14.9188L146.89 14.8658C146.924 14.8475 146.951 14.8197 146.97 14.7861C146.996 14.733 147.102 14.7331 147.102 14.7331L147.182 14.7065L147.155 14.6533L147.129 14.6003L147.102 14.5738L147.209 14.5206L147.235 14.6003L147.209 14.6799H147.262V14.4144L147.155 14.441H147.049C147.023 14.441 146.996 14.3879 146.996 14.3879V14.2817C146.97 14.2286 147.023 14.2287 147.049 14.2021L147.155 14.149C147.209 14.1224 147.262 14.0694 147.262 14.0428L147.288 14.0162V13.1136C147.242 13.1095 147.196 13.1188 147.155 13.1402L147.076 13.2198V13.2198ZM146.492 14.6799L146.465 14.7065L146.492 14.7861V14.8127H146.439L146.386 14.8392H146.333L146.279 14.8127V14.7861L146.333 14.7595V14.7331H146.306L146.333 14.6799H146.386V14.6268L146.439 14.6003L146.492 14.6268H146.518V14.6533C146.492 14.6268 146.492 14.6534 146.492 14.6799V14.6799ZM146.863 14.8392L146.81 14.8658L146.863 14.8922V14.9188L146.731 14.9454H146.518L146.545 14.9188L146.571 14.8922L146.598 14.8658H146.651L146.678 14.8392H146.571V14.8127L146.625 14.7861V14.7595L146.598 14.7331L146.625 14.7065L146.678 14.7331L146.704 14.6799L146.678 14.6533V14.6268C146.674 14.6303 146.67 14.6332 146.665 14.6351C146.661 14.637 146.656 14.6379 146.651 14.6379C146.646 14.6379 146.641 14.637 146.637 14.6351C146.632 14.6332 146.628 14.6303 146.625 14.6268C146.617 14.6268 146.611 14.624 146.606 14.619C146.601 14.614 146.598 14.6074 146.598 14.6003L146.625 14.5738C146.625 14.5703 146.624 14.5667 146.623 14.5635C146.621 14.5603 146.619 14.5574 146.617 14.555C146.614 14.5525 146.611 14.5506 146.608 14.5493C146.605 14.5479 146.601 14.5472 146.598 14.5472H146.545L146.571 14.494L146.545 14.4676V14.4144L146.571 14.3879L146.598 14.4144L146.625 14.3613H146.704V14.3879L146.598 14.441H146.678L146.731 14.4676L146.704 14.5206L146.651 14.5472V14.5738H146.704C146.708 14.5738 146.711 14.5744 146.714 14.5757C146.718 14.577 146.72 14.5791 146.723 14.5815C146.725 14.584 146.727 14.5869 146.729 14.5901C146.73 14.5933 146.731 14.5968 146.731 14.6003C146.731 14.6269 146.731 14.6268 146.757 14.6533C146.784 14.6799 146.784 14.6799 146.784 14.7065L146.81 14.7331L146.837 14.7595V14.8127L146.863 14.8392L146.89 14.8127L146.917 14.8392H146.863ZM154.748 14.9454H154.801L154.854 14.972L154.907 14.9985V15.0516L154.96 15.0781V15.1047L154.934 15.1313L154.96 15.1577L154.934 15.1843L154.987 15.2374L154.96 15.264C155.32 15.577 155.618 15.9553 155.837 16.3789C156.343 16.5161 156.814 16.7606 157.217 17.0958C157.005 16.1932 156.235 15.3968 155.093 14.7331L155.04 14.7861V14.8127L154.987 14.7861C154.96 14.7595 154.881 14.7861 154.881 14.7861V14.8127L154.828 14.7861L154.801 14.8127H154.748L154.775 14.8658C154.722 14.9189 154.748 14.9454 154.748 14.9454V14.9454ZM147.182 15.4498L147.076 15.4232L146.97 15.4498V15.4763H147.315V15.3968L147.262 15.3702L147.182 15.4498ZM144.74 19.8301C144.712 19.8347 144.685 19.8437 144.66 19.8567C144.633 19.8832 144.501 19.9363 144.501 19.9628C144.501 19.9894 144.527 20.069 144.501 20.0956C144.474 20.1221 144.474 20.1488 144.448 20.1753L144.395 20.2017C144.395 20.2017 144.421 20.2018 144.368 20.2283C144.315 20.2549 144.315 20.2549 144.315 20.2815C144.303 20.3194 144.285 20.3552 144.262 20.3876C144.26 20.408 144.25 20.427 144.235 20.4408C144.209 20.4673 144.209 20.4938 144.182 20.5204C144.156 20.5469 144.129 20.5469 144.103 20.5204H144.076C144.513 21.1503 145.108 21.654 145.802 21.9805C145.902 21.9372 146.011 21.919 146.12 21.9273C146.173 21.9273 146.226 21.9009 146.279 21.9009C145.786 21.3123 145.449 20.6094 145.297 19.8567C145.112 19.834 144.926 19.8251 144.74 19.8301V19.8301ZM146.81 15.6357L146.837 15.7152L146.81 15.7418L146.757 15.795L146.704 15.848H146.598L146.545 15.9011L146.492 15.848L146.439 15.795H146.386L146.333 15.7684V15.7152L146.306 15.6622L146.333 15.5559C146.04 15.5559 145.748 15.5825 145.456 15.5825C145.298 16.2614 145.218 16.9562 145.218 17.6533C145.218 17.9984 145.244 18.3169 145.271 18.6355C145.299 18.6647 145.317 18.7017 145.324 18.7416C145.328 18.7791 145.318 18.8168 145.297 18.8479C145.322 19.127 145.375 19.4026 145.456 19.6708C146.067 19.6973 146.704 19.7239 147.341 19.7239V17.9984C147.315 17.9984 147.288 17.8922 147.235 17.8656C147.182 17.8391 147.023 17.9452 147.023 17.9452C146.975 17.9761 146.92 17.9944 146.863 17.9984H146.651C146.619 18.0214 146.583 18.0393 146.545 18.0515C146.522 18.0478 146.501 18.0385 146.482 18.0247C146.464 18.0108 146.449 17.9926 146.439 17.9718C146.439 17.9452 146.279 17.839 146.279 17.839C146.279 17.839 146.2 17.7594 146.2 17.7329C146.2 17.7063 146.12 17.6267 146.094 17.6001C146.067 17.5736 146.014 17.5471 145.987 17.5206C145.966 17.4894 145.957 17.4517 145.961 17.4143C145.955 17.374 145.937 17.3367 145.908 17.3081L145.961 17.2285C145.975 17.1673 145.975 17.1038 145.961 17.0426C145.961 16.9895 145.934 16.9896 145.934 16.963C145.934 16.9365 145.881 16.9099 145.881 16.8037C145.882 16.7545 145.901 16.7074 145.934 16.671C145.957 16.6244 145.983 16.58 146.014 16.5382C146.04 16.5117 146.094 16.3789 146.12 16.3789C146.157 16.3755 146.192 16.361 146.22 16.3373C146.249 16.3136 146.269 16.2818 146.279 16.2462C146.279 16.2196 146.279 16.1932 146.306 16.1932V16.0869C146.333 16.0603 146.306 16.0604 146.333 16.0339C146.359 16.0073 146.386 15.9807 146.412 15.9807C146.439 15.9807 146.492 15.9011 146.492 15.9011V15.848H146.545L146.598 15.8746H146.704L146.784 15.848L146.837 15.8214C146.866 15.8071 146.892 15.7894 146.917 15.7684C146.95 15.783 146.986 15.7906 147.023 15.7906C147.059 15.7906 147.095 15.783 147.129 15.7684C147.235 15.7418 147.209 15.7684 147.209 15.7684L147.288 15.795V15.5295H146.837L146.81 15.6357ZM144.049 20.7063C144.049 20.7328 144.023 20.7593 143.996 20.7858C143.952 20.7921 143.907 20.801 143.864 20.8124H143.784V20.892C143.784 20.9186 143.81 20.9186 143.81 20.9452C143.797 20.9603 143.778 20.9698 143.757 20.9717L143.678 20.9452C143.674 20.9452 143.671 20.9458 143.668 20.9471C143.664 20.9484 143.661 20.9505 143.659 20.9529C143.657 20.9554 143.655 20.9583 143.653 20.9615C143.652 20.9647 143.651 20.9682 143.651 20.9717C143.654 20.9919 143.663 21.0104 143.678 21.0247L143.731 21.0513L143.704 21.0779L143.678 21.1045L143.704 21.1575V21.2106L143.651 21.2372C143.651 21.2638 143.651 21.3168 143.678 21.3168C143.706 21.3214 143.732 21.3304 143.757 21.3434L143.784 21.3964V21.4495C143.77 21.4639 143.76 21.4826 143.757 21.5027V21.5557C144.347 21.8466 144.972 22.0607 145.616 22.1928C145.642 22.1663 145.695 22.1663 145.722 22.1398C145.079 21.7724 144.511 21.2859 144.049 20.7063V20.7063ZM146.465 21.8743H146.81L147.076 22.0071L147.315 22.0336V19.8833C146.678 19.8833 146.067 19.8567 145.456 19.8301C145.604 20.5893 145.953 21.2951 146.465 21.8743V21.8743ZM138.873 18.7152C138.737 18.396 138.664 18.0532 138.66 17.7063C138.66 17.3305 138.742 16.9591 138.899 16.6178C138.209 16.8568 137.731 17.1222 137.545 17.4143C137.545 17.5205 137.519 17.6001 137.519 17.7063V17.9188C137.731 18.2108 138.182 18.4763 138.873 18.7152ZM147.793 19.6178C147.766 19.5912 147.793 19.5382 147.793 19.5116V19.3257C147.793 19.2726 147.846 19.2195 147.846 19.1664C147.85 19.1205 147.841 19.0744 147.819 19.0337C147.793 18.9806 147.819 18.9806 147.793 18.9009C147.766 18.8213 147.527 18.4762 147.527 18.4762L147.474 18.4231C147.474 18.4231 147.527 18.37 147.527 18.3434C147.527 18.3169 147.501 18.2904 147.501 18.2638C147.501 18.2373 147.527 18.2108 147.527 18.1842C147.527 18.1577 147.501 18.1045 147.448 18.0779H147.394V19.8035H147.846C147.872 19.6973 147.819 19.6178 147.793 19.6178ZM147.607 16.14L147.686 16.1666L147.713 16.2462L147.793 16.2728L147.899 16.3259L147.952 16.2728V16.2196L147.978 16.1932L148.085 16.1666L148.191 16.2196L148.27 16.2462H148.35C148.386 16.2518 148.422 16.2607 148.456 16.2728H148.509L148.563 16.2462L148.642 16.2728H148.722L148.775 16.2462L148.801 16.1932L148.828 16.1135L148.855 16.0604V16.0073L148.828 15.9807V15.9011L148.801 15.9277L148.748 15.9011L148.695 15.9541H148.616C148.589 15.9541 148.589 15.9277 148.589 15.9011C148.589 15.8746 148.509 15.8746 148.509 15.8746L148.483 15.9011H148.43L148.403 15.8746H148.324L148.217 15.795V15.7152C148.203 15.7009 148.194 15.6824 148.191 15.6622C148.188 15.6421 148.179 15.6234 148.164 15.6091H148.111L148.085 15.6357H147.978V15.6887L148.058 15.7684L148.029 15.8214V15.9011H148.002L147.949 15.8746L147.896 15.8214V15.795L147.843 15.7418L147.79 15.6357V15.6091H147.657C147.684 15.6091 147.737 15.6622 147.737 15.6622V15.6887L147.71 15.6622L147.684 15.6357C147.68 15.6357 147.677 15.6363 147.674 15.6376C147.67 15.6389 147.667 15.641 147.665 15.6434C147.663 15.6459 147.661 15.6488 147.659 15.652C147.658 15.6552 147.657 15.6587 147.657 15.6622V15.6887C147.664 15.6887 147.671 15.6915 147.676 15.6965C147.681 15.7014 147.684 15.7082 147.684 15.7152V15.7418H147.657V15.7684L147.631 15.795H147.604V15.7684L147.631 15.7418L147.604 15.6622L147.498 15.5825H147.365V15.9807V16.0604C147.392 16.087 147.445 16.14 147.471 16.14H147.607V16.14ZM148.722 15.9807V16.0073L148.695 16.0339H148.669L148.642 16.0073L148.722 15.9807V15.9807ZM148.138 15.9541L148.244 15.9807L148.27 16.0073H148.297V16.0339H148.217L148.138 15.9541V15.9541ZM147.686 22.0336C147.833 21.9629 147.984 21.9008 148.138 21.8477C148.183 21.8501 148.228 21.859 148.27 21.8743C148.783 21.2951 149.131 20.5893 149.279 19.8301H149.12V19.8833C149.11 19.8933 149.097 19.9008 149.083 19.9054C149.069 19.91 149.055 19.9116 149.04 19.9098C149.014 19.9098 148.987 19.9894 148.987 19.9894C148.987 19.9894 149.014 20.069 148.987 20.0956C148.961 20.1221 148.961 20.1487 148.934 20.2017C148.851 20.269 148.779 20.3499 148.722 20.4408C148.691 20.4735 148.654 20.4997 148.613 20.5179C148.572 20.5361 148.528 20.546 148.483 20.5469C148.406 20.5535 148.333 20.581 148.27 20.6265L148.191 20.4938V20.3876C148.16 20.3233 148.124 20.2611 148.085 20.2017C148.045 20.1424 148.009 20.0804 147.978 20.016C147.957 19.9658 147.948 19.9111 147.952 19.8567C147.95 19.8363 147.941 19.8173 147.925 19.8035H147.421V21.9805C147.435 22.0017 147.452 22.0199 147.473 22.0341C147.494 22.0484 147.518 22.0582 147.542 22.0632C147.567 22.0681 147.593 22.0682 147.617 22.0631C147.642 22.058 147.666 22.048 147.686 22.0336V22.0336ZM147.899 21.6884L147.952 21.7682L147.766 21.8477L147.713 21.715C147.713 21.7522 147.899 21.6991 147.899 21.6991V21.6884ZM147.607 15.3702C147.607 15.3702 147.527 15.2906 147.527 15.264C147.527 15.2375 147.474 15.2639 147.474 15.2905V15.3436C147.474 15.3702 147.527 15.3968 147.554 15.3968L147.58 15.4232L147.607 15.4498H147.766L147.607 15.3702V15.3702ZM145.058 19.1664L145.032 19.2196V19.3789C145.015 19.4872 144.988 19.5937 144.952 19.6974C145.068 19.693 145.184 19.7019 145.297 19.7239C145.24 19.5055 145.196 19.2839 145.164 19.0603L145.111 19.1134C145.111 19.1134 145.085 19.1664 145.058 19.1664V19.1664ZM149.465 13.5649L149.518 13.5914H149.492C149.677 13.7242 149.863 13.8569 150.049 14.0162V13.9897C150.063 13.9195 150.063 13.8475 150.049 13.7773C150.049 13.7242 150.129 13.7507 150.208 13.7242C150.296 13.7013 150.384 13.6836 150.474 13.6712C149.883 13.4384 149.269 13.2692 148.642 13.1667C148.917 13.2685 149.184 13.3929 149.439 13.5384L149.465 13.5649V13.5649ZM147.793 13.7773H148.138C148.138 13.7773 148.164 13.8303 148.191 13.8303C148.326 13.8665 148.459 13.9108 148.589 13.9631L148.642 13.9897C148.297 13.4587 147.899 13.1402 147.448 13.1136V13.8569C147.474 13.8304 147.474 13.8303 147.527 13.8303C147.617 13.8207 147.706 13.803 147.793 13.7773V13.7773ZM147.607 14.7065H147.713L147.793 14.6799V14.5738L147.846 14.5206H147.872V14.441H148.111C148.169 14.4254 148.223 14.3982 148.27 14.3613C148.324 14.3613 148.244 14.2817 148.244 14.2817L148.111 14.3349L147.872 14.3879L147.766 14.3349V14.2817C147.766 14.2817 147.713 14.2021 147.766 14.2021C147.808 14.1743 147.844 14.1381 147.872 14.0958L147.766 14.0428L147.686 14.0694L147.713 14.1224L147.66 14.1755L147.554 14.2551V14.3613L147.66 14.441L147.58 14.5472L147.474 14.6533H147.394V14.7595L147.448 14.7861L147.607 14.7065V14.7065ZM148.801 14.0428L148.934 14.0162C149.059 14.0165 149.183 14.0076 149.306 13.9897C149.439 13.9631 149.385 13.9101 149.385 13.9101L149.651 13.9366V13.8835C149.551 13.8036 149.445 13.7326 149.332 13.6712V13.6712L149.2 13.8039L149.253 13.8835L149.173 13.9101L149.014 13.7773L149.173 13.618H149.226C148.845 13.41 148.433 13.2664 148.005 13.1932C148.34 13.4019 148.615 13.6948 148.801 14.0428V14.0428ZM145.138 14.1755V14.0162C145.15 13.9783 145.168 13.9425 145.191 13.9101C145.191 13.9101 145.218 13.8303 145.244 13.8303C145.271 13.8303 145.244 13.8039 145.218 13.7773C144.895 14.0068 144.601 14.2742 144.341 14.5738C144.343 14.5882 144.342 14.6028 144.337 14.6165C144.333 14.6303 144.325 14.6429 144.315 14.6533C144.288 14.6799 144.395 14.7065 144.395 14.7065C144.395 14.7065 144.421 14.733 144.448 14.7595L144.341 14.7861H144.448L144.501 14.8127L144.527 14.8392L144.501 14.8922L144.474 14.9188L144.341 14.972C144.299 14.9943 144.255 15.012 144.209 15.025C144.182 15.025 144.156 15.0516 144.129 15.0516H143.943C143.89 15.1312 143.837 15.2374 143.784 15.317H143.917L144.023 15.264L144.049 15.2905L143.943 15.3702L143.81 15.3968L143.731 15.4498C143.706 15.517 143.67 15.5798 143.625 15.6357C144.182 15.5826 144.74 15.556 145.297 15.5295C145.425 14.9852 145.64 14.4651 145.934 13.9897H145.828L145.536 14.149L145.377 14.3349L145.297 14.3083L145.164 14.2817L145.138 14.1755V14.1755ZM144.527 15.1577C144.527 15.1577 144.527 15.2109 144.501 15.2109H144.368L144.341 15.1843H144.209V15.1313L144.315 15.0516L144.395 14.9454L144.474 14.8922L144.501 14.972L144.448 14.9985H144.527C144.527 14.9985 144.58 14.9984 144.58 15.025C144.547 15.0615 144.529 15.1086 144.527 15.1577V15.1577ZM155.571 19.3257C155.598 19.3788 155.651 19.4585 155.677 19.5116C155.704 19.5647 155.73 19.5116 155.704 19.5912C155.677 19.6709 155.704 19.6974 155.624 19.7505C155.51 19.8677 155.404 19.9918 155.306 20.1222C155.252 20.2018 155.226 20.2283 155.199 20.2283C155.135 20.2335 155.071 20.2516 155.014 20.2815C154.968 20.2773 154.922 20.2866 154.881 20.308C154.854 20.308 154.828 20.3346 154.775 20.308C154.722 20.2815 154.722 20.2815 154.695 20.2815C153.713 21.1044 152.226 21.7681 150.5 22.1398C151.839 21.9389 153.143 21.5547 154.376 20.9982C155.969 20.2283 156.952 19.246 157.164 18.2107C156.771 18.5465 156.309 18.7913 155.81 18.9275C155.757 19.0337 155.651 19.193 155.571 19.3257V19.3257ZM155.014 20.4938C154.964 20.5225 154.92 20.5582 154.881 20.6L154.828 20.6265L154.881 20.4408H154.934L155.04 20.4142C155.03 20.4247 155.022 20.4372 155.018 20.451C155.013 20.4648 155.012 20.4794 155.014 20.4938ZM155.863 16.6178C156.021 16.9591 156.102 17.3305 156.102 17.7063C156.098 18.0532 156.026 18.396 155.89 18.7152C156.58 18.4763 157.031 18.2108 157.217 17.9188C157.217 17.8391 157.244 17.7594 157.244 17.7063C157.249 17.6082 157.24 17.5098 157.217 17.4143C157.031 17.1222 156.553 16.8568 155.863 16.6178ZM151.085 19.7505C150.554 19.8036 149.996 19.8301 149.439 19.8567C149.278 20.6196 148.932 21.3309 148.43 21.9273C148.573 21.9465 148.714 21.9732 148.855 22.0071C149.841 21.5425 150.632 20.7429 151.085 19.7505V19.7505ZM143.625 15.7418C143.361 16.3351 143.225 16.9774 143.226 17.6267H143.253C143.289 17.6211 143.325 17.6122 143.359 17.6001C143.382 17.6186 143.41 17.628 143.439 17.6267C143.465 17.6267 143.492 17.6533 143.518 17.6533V17.6797H143.572C143.572 17.6797 143.572 17.7063 143.625 17.7329C143.678 17.7594 143.704 17.786 143.704 17.786V17.8125C143.704 17.8125 143.704 17.786 143.757 17.839C143.81 17.8921 143.784 17.8922 143.837 17.8922C143.89 17.8922 143.917 17.8656 143.97 17.8922C144.023 17.9187 144.129 17.9452 144.129 17.9718C144.129 17.9983 144.182 18.025 144.182 18.0515C144.185 18.0716 144.194 18.0902 144.209 18.1045L144.262 18.1842V18.2373C144.265 18.2574 144.274 18.2761 144.288 18.2904C144.316 18.295 144.343 18.304 144.368 18.317L144.395 18.37H144.527C144.554 18.3965 144.66 18.4232 144.66 18.4497C144.674 18.4641 144.693 18.4734 144.713 18.4762C144.74 18.4762 144.819 18.5293 144.846 18.5293C144.872 18.5293 144.899 18.5028 144.925 18.5293C144.952 18.5559 144.979 18.5559 145.005 18.5825C145.035 18.6152 145.071 18.6422 145.111 18.662C145.085 18.37 145.058 18.0515 145.058 17.7595C145.051 17.062 145.132 16.3663 145.297 15.6887C144.739 15.6657 144.18 15.6835 143.625 15.7418V15.7418ZM153.235 19.485C152.571 19.5912 151.881 19.6709 151.217 19.7239C150.797 20.7244 150.035 21.543 149.067 22.0336C149.149 22.0386 149.23 22.0564 149.306 22.0866C151.085 21.6619 152.518 20.7062 153.235 19.485V19.485ZM154.695 20.069C154.67 20.082 154.643 20.091 154.615 20.0956C154.589 20.0956 154.536 20.1221 154.536 20.0956C154.536 20.069 154.536 20.016 154.483 19.9894C154.422 19.9708 154.36 19.9618 154.297 19.9628C154.235 19.9756 154.173 19.9845 154.111 19.9894C154.058 19.9894 154.058 19.9895 153.978 20.0426C153.899 20.0957 153.925 20.0956 153.872 20.1222C153.819 20.1487 153.792 20.0956 153.739 20.1222C153.686 20.1487 153.66 20.1488 153.607 20.1753C153.553 20.2019 153.474 20.2283 153.447 20.2017L153.394 20.1487C153.394 20.1487 153.527 20.0691 153.5 20.016V19.7505C153.5 19.6974 153.474 19.7239 153.5 19.6708C153.511 19.5949 153.538 19.5223 153.58 19.4585C153.607 19.4319 153.633 19.4319 153.66 19.4053C153.58 19.4319 153.5 19.4319 153.394 19.4585C152.704 20.7062 151.323 21.6885 149.598 22.1398C151.748 21.8212 153.553 21.1044 154.695 20.1222V20.069V20.069ZM151.669 17.8922L151.642 17.839C151.622 18.4379 151.506 19.0296 151.297 19.5912C151.987 19.5381 152.651 19.4319 153.341 19.3257C153.441 19.1182 153.529 18.9056 153.607 18.6886L153.5 18.662H153.341L153.235 18.6355V18.6089L153.182 18.5825V18.5559H153.261C153.282 18.5587 153.3 18.568 153.315 18.5825C153.339 18.5955 153.366 18.6043 153.394 18.6089H153.447L153.474 18.5825L153.58 18.6089L153.633 18.6355C153.663 18.5591 153.681 18.4785 153.686 18.3966H153.607L153.553 18.4231L153.527 18.3966H153.447L153.421 18.2904L153.368 18.2373V18.1577L153.394 18.1045L153.474 18.1311L153.527 18.0515L153.607 18.0249L153.66 17.9452L153.713 17.9188V17.7063C153.704 17.4117 153.668 17.1186 153.607 16.8303C153.577 16.8582 153.54 16.8767 153.5 16.8833C153.437 16.8936 153.374 16.9115 153.315 16.9365L153.261 16.963V17.016H153.235L153.208 16.9365C153.186 16.9291 153.162 16.9277 153.138 16.9323C153.115 16.937 153.094 16.9476 153.076 16.963C153.022 16.9896 152.996 17.0958 152.996 17.0958L153.049 17.1488L153.102 17.2019C153.136 17.2307 153.171 17.2572 153.208 17.2815C153.231 17.314 153.249 17.3499 153.261 17.3878V17.5206L153.182 17.5736L153.076 17.6797H153.049V17.6267L153.076 17.6001H152.996C152.996 17.6001 152.943 17.5735 152.943 17.547C152.943 17.5205 152.863 17.4674 152.863 17.4674H152.81V17.4143H152.757V17.494L152.73 17.6001V17.6533H152.757L152.784 17.6797L152.837 17.7595L152.863 17.786C152.884 17.788 152.903 17.7973 152.916 17.8125C152.943 17.839 152.969 17.8922 152.996 17.8922C153.022 17.8922 153.022 18.0249 153.022 18.0249L153.076 18.0779H153.049L152.89 17.9984C152.853 17.9411 152.827 17.8783 152.81 17.8125C152.81 17.7859 152.704 17.6798 152.677 17.6533C152.651 17.6267 152.677 17.5205 152.677 17.4674C152.677 17.4143 152.598 17.3081 152.598 17.2815C152.577 17.2339 152.55 17.1893 152.518 17.1488V17.2019C152.518 17.2285 152.465 17.2551 152.465 17.2551L152.412 17.2285V17.0958C152.385 17.0958 152.359 16.9896 152.306 16.9896C152.268 16.9639 152.24 16.9265 152.226 16.8833C152.226 16.8568 152.146 16.8303 152.146 16.8303L152.12 16.8569L152.04 16.8833H151.987L151.907 16.9099V16.963C151.907 16.9665 151.907 16.9699 151.905 16.9731C151.904 16.9764 151.902 16.9794 151.9 16.9818C151.897 16.9843 151.894 16.9862 151.891 16.9875C151.888 16.9889 151.884 16.9896 151.881 16.9896L151.775 17.0958C151.748 17.1223 151.695 17.1488 151.695 17.2019C151.695 17.255 151.615 17.2551 151.615 17.2551C151.615 17.3613 151.642 17.494 151.642 17.6267C151.642 17.6267 151.722 17.7329 151.748 17.7329V17.8125L151.669 17.8922V17.8922ZM153.288 17.1488L153.235 17.1223C153.208 17.1223 153.235 17.0692 153.235 17.0692L153.261 17.016H153.341L153.315 17.0958L153.288 17.1488V17.1488ZM152.545 17.8922L152.598 17.9188H152.677L152.704 17.9718L152.81 18.0249L152.89 18.0779L152.969 18.1311L153.022 18.1577L153.076 18.1842L153.049 18.2373H153.076L153.129 18.2904L153.208 18.317V18.5027H153.155C153.155 18.5027 153.049 18.3966 153.022 18.3966L152.943 18.317C152.943 18.2904 152.89 18.2638 152.89 18.2638L152.837 18.2107L152.81 18.1045L152.757 18.0515L152.704 17.9984C152.704 17.9984 152.598 17.8922 152.598 17.8656C152.518 17.8922 152.545 17.8922 152.545 17.8922V17.8922ZM154.668 16.0604L154.695 16.14C155.04 16.2197 155.332 16.2993 155.598 16.3789C155.217 15.7321 154.678 15.193 154.031 14.8127H153.899C153.845 14.8127 153.792 14.7861 153.713 14.7861H153.66L153.607 14.9454L153.553 15.025H153.58L153.66 15.0516L153.686 15.1047H153.739V15.0781C153.782 15.1004 153.826 15.1183 153.872 15.1313C153.9 15.1358 153.927 15.1447 153.952 15.1577C153.966 15.172 153.975 15.1907 153.978 15.2109L154.031 15.2905C154.062 15.3322 154.088 15.3766 154.111 15.4232V15.4498C154.111 15.4498 154.111 15.5029 154.137 15.5029C154.124 15.5279 154.115 15.5547 154.111 15.5825C154.106 15.6103 154.097 15.6373 154.084 15.6622L154.031 15.7152H153.978L153.952 15.6887L153.925 15.7152C153.925 15.7418 153.869 15.7684 153.869 15.7684L153.925 15.8214L153.869 15.8746H153.843L153.869 15.9277C153.907 15.9397 153.943 15.9575 153.976 15.9807C154.147 16.0004 154.315 16.0359 154.48 16.0869L154.533 16.0604L154.562 15.9541L154.506 15.9011V15.848H154.562L154.589 15.8746L154.666 15.9277L154.639 16.0073L154.668 16.0604V16.0604ZM154.35 15.5029L154.297 15.4232L154.244 15.3702L154.164 15.2905L154.058 15.1843L154.031 15.1313L154.191 15.2374L154.323 15.3436V15.4232L154.403 15.5295L154.376 15.5559L154.35 15.5029ZM154.642 15.7418L154.615 15.8214L154.536 15.795H154.509V15.8214H154.483L154.403 15.7684C154.403 15.7684 154.403 15.7152 154.429 15.7152C154.456 15.7152 154.429 15.6887 154.429 15.6887L154.376 15.6091V15.5825L154.509 15.6622L154.642 15.6887L154.668 15.7418H154.642ZM149.624 15.2905L149.598 15.264H149.465L149.412 15.2905L149.359 15.3436C149.359 15.3967 149.385 15.4232 149.385 15.4763H149.545L149.492 15.4232V15.3968L149.518 15.4232L149.545 15.3968L149.518 15.3702L149.545 15.3436H149.651V15.317L149.598 15.2905C149.624 15.3807 149.624 15.3011 149.624 15.3011V15.2905ZM153.739 15.9541C153.736 15.934 153.727 15.9154 153.713 15.9011H153.607C153.586 15.9039 153.568 15.9133 153.553 15.9277C153.617 15.9214 153.68 15.9304 153.739 15.9541V15.9541ZM141.979 14.1755H142.138L142.244 14.149H142.297L142.271 14.1755C142.271 14.1826 142.274 14.1894 142.279 14.1943C142.283 14.1993 142.29 14.2021 142.297 14.2021C142.324 14.2021 142.35 14.149 142.35 14.149V14.1224L142.51 14.0958H142.669V14.0694C142.669 14.0428 142.563 14.0694 142.563 14.0694C142.458 14.0925 142.351 14.1013 142.244 14.0958C142.231 14.0946 142.218 14.0887 142.208 14.079C142.198 14.0693 142.192 14.0565 142.191 14.0428C142.218 14.0163 142.297 14.0162 142.297 13.9897H142.271C142.187 14.0138 142.106 14.0495 142.032 14.0958H142.085V14.1224L141.979 14.1755V14.1755ZM151.111 13.7242C151.217 13.7507 151.35 13.7774 151.244 13.8039C151.138 13.8305 151.35 13.8835 151.35 13.8835L151.642 13.9366C151.642 13.9366 151.881 13.9101 151.961 13.9101C152.054 13.931 152.144 13.9668 152.226 14.0162L152.518 14.0694H152.677V14.0428C151.673 13.6281 150.621 13.3425 149.545 13.1932C149.98 13.3115 150.406 13.4624 150.819 13.6446C150.904 13.7044 151.007 13.7325 151.111 13.7242V13.7242ZM141.634 16.4321H141.527C141.475 16.4455 141.422 16.4544 141.368 16.4587C141.315 16.4587 141.288 16.4851 141.235 16.5382C141.182 16.671 141.156 16.8037 141.103 16.963C141.116 17.0088 141.144 17.0491 141.183 17.0778C141.221 17.1064 141.267 17.1221 141.315 17.1223C141.448 17.0958 141.527 17.0692 141.527 17.0426C141.527 17.0161 141.607 16.963 141.607 16.963L141.74 16.9365H141.793C141.796 16.9399 141.799 16.9441 141.801 16.9486C141.803 16.9532 141.804 16.9581 141.804 16.963C141.804 16.968 141.803 16.9729 141.801 16.9774C141.799 16.982 141.796 16.9861 141.793 16.9896C141.765 17.0319 141.729 17.068 141.687 17.0958C141.687 17.0958 141.634 17.1488 141.634 17.1754C141.634 17.2019 141.581 17.2285 141.554 17.2551C141.527 17.2816 141.66 17.2815 141.66 17.2815L141.846 17.2551L141.952 17.2815C141.952 17.3081 141.899 17.4675 141.899 17.5206C141.899 17.5736 141.979 17.6267 142.032 17.6533C142.032 17.6533 142.058 17.6798 142.111 17.6533C142.154 17.636 142.199 17.627 142.244 17.6267L142.324 17.6533L142.377 17.7329L142.403 17.6797L142.457 17.6533L142.483 17.6267C142.483 17.6267 142.457 17.6001 142.51 17.5736C142.563 17.547 142.51 17.547 142.563 17.547C142.6 17.551 142.638 17.5417 142.669 17.5206C142.693 17.5063 142.72 17.4972 142.749 17.494L142.775 17.5206L142.749 17.5736V17.6001C142.749 17.6267 142.722 17.6533 142.749 17.6533H142.802L142.775 17.6001V17.5736L142.908 17.5206L142.988 17.547V17.5736H143.067C143.063 17.4138 143.072 17.254 143.094 17.0958V17.0958V17.0692C143.136 16.611 143.253 16.1627 143.439 15.7418C143.253 15.7684 143.067 15.7684 142.908 15.795C142.908 15.802 142.905 15.8087 142.9 15.8136C142.895 15.8186 142.888 15.8214 142.881 15.8214C142.851 15.8542 142.815 15.8813 142.775 15.9011V15.9541L142.589 16.0869C142.536 16.1134 142.483 16.1135 142.457 16.14C142.409 16.1609 142.371 16.1988 142.35 16.2462C142.324 16.2727 142.324 16.4055 142.324 16.4055C142.324 16.4055 142.35 16.4851 142.35 16.5117C142.35 16.5382 142.377 16.5383 142.35 16.5648C142.324 16.5914 142.297 16.6178 142.271 16.6178H142.244C142.232 16.5833 142.223 16.5478 142.218 16.5117C142.215 16.4915 142.206 16.473 142.191 16.4587V16.4055L142.165 16.3789C142.14 16.3659 142.113 16.3569 142.085 16.3524C142.071 16.3675 142.052 16.377 142.032 16.3789C142.003 16.3501 141.966 16.3315 141.926 16.3259C141.873 16.3259 141.74 16.2728 141.74 16.3259C141.74 16.379 141.819 16.3789 141.74 16.3789C141.66 16.432 141.66 16.4321 141.634 16.4321V16.4321ZM142.51 17.1488H142.43L142.403 17.1223V17.0958L142.51 17.1488V17.1488ZM142.749 17.0426V17.016L142.828 17.0426L142.908 17.016C142.908 17.016 142.961 17.0426 142.961 17.0692L143.041 17.0958V17.1223H142.961L142.908 17.1488H142.881L142.828 17.2019L142.802 17.1754H142.642V17.0958H142.722L142.749 17.0426V17.0426ZM142.138 16.8037H142.297L142.35 16.8303L142.43 16.8569L142.51 16.8833L142.563 16.9099L142.642 16.9365V16.963L142.616 16.9896H142.403L142.457 16.963H142.43L142.377 16.9365L142.35 16.8833H142.297L142.218 16.8569L142.165 16.8303L142.138 16.8037L142.085 16.8303L142.005 16.8569H141.979L142.138 16.8037V16.8037ZM154.244 14.7861C154.346 14.8505 154.443 14.9215 154.536 14.9985L154.509 14.972V14.9188C154.509 14.9188 154.562 14.9188 154.562 14.8922V14.7595L154.589 14.7331V14.7065L154.536 14.6799V14.6533H154.483L154.509 14.6799H154.483L154.456 14.7331L154.403 14.7065C154.403 14.6799 154.376 14.6799 154.297 14.6799C154.217 14.6799 154.244 14.7861 154.244 14.7861V14.7861ZM150.925 16.8303C150.925 16.8303 150.872 16.8568 150.872 16.8303C150.872 16.8037 150.792 16.7771 150.792 16.7771L150.713 16.671H150.66L150.474 16.6976C150.394 16.671 150.341 16.671 150.262 16.6444C150.182 16.6179 150.208 16.6179 150.182 16.5914C150.181 16.5777 150.175 16.5648 150.165 16.5551C150.155 16.5454 150.142 16.5394 150.129 16.5382C150.1 16.5369 150.072 16.5464 150.049 16.5648C150.023 16.5648 149.943 16.5117 149.916 16.5117C149.877 16.505 149.84 16.4866 149.81 16.4587C149.784 16.4321 149.731 16.3259 149.704 16.3259H149.598C149.571 16.3525 149.598 16.379 149.624 16.4055C149.651 16.4321 149.677 16.4851 149.704 16.5117C149.714 16.5222 149.722 16.5347 149.726 16.5485C149.731 16.5623 149.732 16.577 149.731 16.5914C149.733 16.6115 149.743 16.6301 149.757 16.6444H149.784V16.5914L149.81 16.5648L149.837 16.5914L149.863 16.671L149.89 16.6976H149.943C149.97 16.6976 149.996 16.6975 149.996 16.671L150.102 16.5648V16.6444C150.102 16.6975 150.182 16.7241 150.208 16.7241C150.235 16.7241 150.235 16.724 150.262 16.7506C150.288 16.7771 150.288 16.7772 150.315 16.8037C150.315 16.8108 150.317 16.8175 150.322 16.8225C150.327 16.8275 150.334 16.8303 150.341 16.8303C150.337 16.8711 150.318 16.9089 150.288 16.9365C150.273 16.9491 150.262 16.9661 150.258 16.9852C150.253 17.0043 150.254 17.0244 150.262 17.0426C150.241 17.0446 150.222 17.054 150.208 17.0692C150.208 17.0957 150.208 17.0958 150.182 17.0958C150.155 17.0958 150.129 17.1222 150.102 17.1488C150.076 17.1753 150.049 17.1754 149.996 17.1754C149.989 17.1787 149.983 17.1835 149.978 17.1894C149.972 17.1952 149.968 17.2021 149.966 17.2096C149.963 17.217 149.962 17.2248 149.963 17.2327C149.964 17.2405 149.966 17.2481 149.97 17.2551C149.89 17.2816 149.784 17.3347 149.677 17.3612V17.5206H149.837L149.916 17.4674H149.943C149.943 17.4674 149.97 17.5736 149.916 17.6267C149.899 17.7176 149.872 17.8065 149.837 17.8922C149.784 17.9474 149.739 18.0099 149.704 18.0779L149.677 18.1045C149.661 18.6325 149.59 19.1574 149.465 19.6708C150.023 19.6443 150.58 19.6177 151.138 19.5646C151.383 18.9758 151.509 18.3442 151.509 17.7063H151.483C151.452 17.6746 151.425 17.6389 151.403 17.6001C151.377 17.547 151.35 17.5205 151.297 17.4143C151.244 17.3081 151.191 17.255 151.191 17.2019L151.111 16.9896V16.9099L151.085 16.8833L151.058 16.9365C151.033 16.9495 151.006 16.9585 150.978 16.963C150.952 16.963 150.872 16.8569 150.872 16.8569C150.893 16.8549 150.911 16.8454 150.925 16.8303V16.8303V16.8303ZM153.447 15.8214L153.421 15.9011C153.435 15.8994 153.45 15.9008 153.463 15.9054C153.477 15.91 153.49 15.9177 153.5 15.9277V15.848L153.447 15.8214ZM153.341 14.149C153.452 14.1531 153.56 14.1802 153.66 14.2286C153.808 14.2644 153.959 14.2911 154.111 14.3083C152.955 13.821 151.742 13.482 150.5 13.2994C151.371 13.4733 152.217 13.7495 153.022 14.1224C153.102 14.1224 153.235 14.149 153.341 14.149V14.149ZM149.332 19.7239C149.448 19.2448 149.519 18.756 149.545 18.2638L149.465 18.3434C149.399 18.4518 149.345 18.5677 149.306 18.6886L149.359 18.7416C149.372 18.7666 149.381 18.7936 149.385 18.8214V18.9275C149.4 18.9352 149.413 18.9465 149.422 18.9604C149.432 18.9744 149.437 18.9904 149.439 19.0071V19.2726C149.439 19.3522 149.306 19.4319 149.253 19.4585C149.2 19.485 149.2 19.5115 149.173 19.5381C149.152 19.5623 149.134 19.5891 149.12 19.6178C149.142 19.6487 149.151 19.6865 149.147 19.7239H149.332V19.7239ZM143.651 13.618C143.704 13.5915 143.598 13.5914 143.598 13.5914L143.439 13.6446H143.412C143.133 13.7171 142.858 13.8057 142.589 13.9101H142.616L142.722 13.8569H142.828L142.749 13.9366L142.802 13.9631L142.749 14.1224H142.802C142.802 14.1224 142.908 14.0958 142.908 14.1224V14.0694L143.041 14.0428H143.094L143.173 13.9897L143.147 13.9631L143.094 13.9366L143.2 13.8835L143.28 13.8039L143.359 13.7242L143.465 13.6976V13.7242L143.333 13.8039L143.28 13.8569L143.253 13.8835L143.306 13.9366C143.32 13.9222 143.339 13.9129 143.359 13.9101H143.386L143.545 13.8303C143.386 13.8303 143.518 13.7773 143.518 13.7773L143.625 13.6976L143.757 13.618L143.97 13.5914L144.076 13.5384L143.704 13.5649C143.731 13.6711 143.625 13.6446 143.651 13.618V13.618ZM143.067 13.8835L142.988 13.8039L143.147 13.7508L143.2 13.7773L143.067 13.8835ZM142.483 9.84822C142.457 9.84822 142.457 9.87482 142.457 9.90137C142.457 9.92792 142.51 9.92794 142.536 9.92794L142.642 9.82178C142.616 9.82178 142.51 9.84822 142.483 9.84822" fill="#2E2E2E"/>
<path d="M159.235 0.939126C159.208 0.939126 159.181 0.912579 159.128 0.939126C159.022 0.992221 158.651 1.28414 158.518 1.36378C158.518 1.33724 158.518 1.33731 158.544 1.31077L158.571 1.25762C158.741 0.942943 158.858 0.602023 158.916 0.248865C158.922 0.185686 158.913 0.12187 158.889 0.0629807C158.889 0.048899 158.884 0.0353462 158.874 0.025389C158.864 0.0154317 158.85 0.00996342 158.836 0.00996342C158.783 -0.0165841 158.73 0.00991157 158.651 0.0895541C158.518 0.222292 157.668 1.01872 157.642 1.01872L157.615 1.04529V0.992143L157.668 0.806389C157.705 0.675899 157.732 0.542766 157.748 0.408176C157.755 0.362188 157.745 0.315226 157.721 0.275438C157.72 0.261759 157.714 0.248853 157.705 0.239143C157.695 0.229433 157.682 0.223488 157.668 0.222292C157.641 0.221791 157.614 0.22895 157.59 0.243032C157.567 0.257114 157.548 0.2775 157.536 0.301882C157.095 0.815004 156.625 1.3025 156.129 1.762L156.102 1.78857C156.128 1.69645 156.163 1.60742 156.208 1.52309C156.332 1.25204 156.421 0.966749 156.474 0.673651C156.475 0.659239 156.474 0.644516 156.469 0.630745C156.465 0.616974 156.457 0.604419 156.447 0.593931C156.447 0.567383 156.394 0.540914 156.367 0.540914C156.208 0.540914 155.89 0.885927 155.12 1.762C155.12 1.762 154.509 2.45228 154.483 2.47883V2.39924C154.486 2.21667 154.45 2.03555 154.376 1.86829C154.323 1.81519 154.297 1.78857 154.244 1.78857C154.191 1.78857 154.111 1.86824 154.005 2.08062C153.899 2.293 153.049 3.19561 152.093 3.93894L152.067 3.96552C151.191 4.65575 150.607 5.10708 149.943 6.11589C149.412 6.88577 148.509 7.28388 147.846 7.60245C147.66 7.68209 147.474 7.76184 147.315 7.84148C146.847 7.79438 146.377 7.77659 145.908 7.78833C145.845 7.43504 145.705 7.09982 145.499 6.80628C145.293 6.51274 145.024 6.26803 144.713 6.08932C143.547 5.37611 142.43 4.58684 141.368 3.72661C140.905 3.32171 140.486 2.86772 140.12 2.37267C139.961 2.18683 139.908 2.10719 139.881 2.10719C139.859 2.09729 139.835 2.09453 139.811 2.09928C139.787 2.10404 139.765 2.1161 139.749 2.13376C139.722 2.16031 139.722 2.18686 139.722 2.2665C139.734 2.41299 139.77 2.55643 139.828 2.69116V2.69116L139.775 2.66471C139.422 2.47574 139.121 2.2021 138.899 1.86829C138.619 1.44438 138.387 0.99017 138.209 0.51434C138.208 0.50066 138.202 0.487755 138.192 0.478045C138.182 0.468335 138.17 0.462389 138.156 0.461193C138.103 0.461193 138.076 0.514262 138.076 0.567357C138.039 0.714812 138.021 0.866603 138.023 1.01872C138.029 1.2873 138.065 1.5544 138.129 1.81514V1.81514C137.688 1.40552 137.312 0.931112 137.014 0.408176C136.988 0.381629 136.935 0.301908 136.855 0.328456C136.841 0.329652 136.829 0.335597 136.819 0.345307C136.809 0.355017 136.803 0.367923 136.802 0.381603C136.802 0.40815 136.775 0.434672 136.775 0.487767C136.849 0.907091 136.992 1.31101 137.2 1.6824C136.863 1.36289 136.552 1.01667 136.271 0.647078C136.244 0.62053 136.165 0.487767 136.085 0.487767C136.071 0.486032 136.056 0.487454 136.042 0.492044C136.029 0.496635 136.016 0.504305 136.006 0.51434C135.979 0.540888 135.979 0.567409 135.979 0.620504C136.028 0.992704 136.145 1.35271 136.324 1.6824C136.138 1.54967 135.979 1.41693 135.793 1.28419C135.793 1.28419 135.714 1.23107 135.66 1.25762C135.623 1.30191 135.604 1.35898 135.607 1.41693C135.637 1.61203 135.7 1.80063 135.793 1.97445C135.773 1.97165 135.754 1.9623 135.74 1.94788C135.674 1.91027 135.602 1.88344 135.528 1.86829C135.513 1.86655 135.499 1.86798 135.485 1.87257C135.471 1.87716 135.459 1.8847 135.448 1.89473V1.94788C135.468 2.07907 135.513 2.20518 135.581 2.31952C135.761 2.53609 135.956 2.74017 136.165 2.93019C136.032 2.87709 135.767 2.824 135.74 2.79745C135.714 2.7709 135.634 2.7708 135.581 2.8239C135.528 2.87699 135.554 2.85049 135.554 2.87704V2.93019C135.607 3.06293 136.059 3.40794 136.908 3.8858C136.749 3.85925 136.669 3.88582 136.643 3.91237L136.616 3.93894V3.96552C136.669 4.09825 137.174 4.36373 137.598 4.49647H137.545C137.439 4.49647 137.386 4.49649 137.359 4.52304V4.57606C137.386 4.6557 137.413 4.76192 138.368 5.13358C138.236 5.13358 138.156 5.13363 138.129 5.18673V5.23974C138.182 5.34593 138.634 5.63796 139.51 5.90343C139.43 5.92998 139.377 5.93003 139.351 5.95658V5.98315C139.404 6.16899 140.28 6.4875 141.076 6.72643C141.018 6.72298 140.961 6.74205 140.917 6.77958C140.89 6.77958 140.89 6.80605 140.89 6.83259C140.89 6.91224 141.127 7.17774 142.958 7.65559H142.985C142.958 7.68214 142.908 7.68209 142.908 7.73518C142.908 7.78828 142.961 7.84143 143.094 7.92107C143.368 8.06535 143.651 8.18954 143.943 8.29271C143.386 8.58473 142.828 8.90333 142.297 9.24844L142.271 9.27502V9.30159C142.268 9.37922 142.244 9.45453 142.202 9.51988C142.16 9.58524 142.101 9.63823 142.032 9.67323C141.939 9.7208 141.857 9.78821 141.793 9.87078C141.729 9.95335 141.683 10.049 141.66 10.151V10.2308C141.694 10.52 141.836 10.7856 142.058 10.974C142.111 11.0271 142.165 11.0272 142.165 11.0006C142.186 10.9695 142.195 10.9319 142.191 10.8944C142.176 10.8609 142.169 10.8247 142.169 10.7881C142.169 10.7516 142.176 10.7155 142.191 10.682C142.218 10.6289 142.244 10.6024 142.297 10.6024C142.429 10.568 142.569 10.5773 142.696 10.629L142.775 10.6554C142.938 10.691 143.108 10.6625 143.25 10.5758C143.511 10.5118 143.782 10.5028 144.047 10.5492H144.206C144.151 10.6257 144.089 10.6968 144.02 10.7617L143.887 10.8679C143.769 10.951 143.662 11.0492 143.569 11.1599C143.542 11.1599 142.826 11.2927 142.826 11.2927C142.819 11.2927 142.812 11.2955 142.807 11.3004C142.802 11.3054 142.799 11.3121 142.799 11.3191C142.678 11.5351 142.526 11.732 142.348 11.9032C142.183 12.0495 141.995 12.1662 141.79 12.2483V12.2483C141.707 12.4037 141.662 12.5766 141.657 12.7528V12.9385C141.685 12.9808 141.721 13.0169 141.764 13.0447C141.79 13.0447 141.87 13.1243 141.976 13.1774L142.135 13.2306H142.162C141.423 13.4315 140.703 13.698 140.012 14.027C137.967 15.0093 136.826 16.3367 136.826 17.7968C136.826 19.2569 137.941 20.5842 140.012 21.5665C141.95 22.4956 144.525 23 147.259 23C149.993 23 152.569 22.4956 154.506 21.5665C156.551 20.5842 157.692 19.2569 157.692 17.7968C157.692 16.3367 156.577 15.0093 154.506 14.027C153.154 13.4011 151.712 12.9891 150.232 12.8058H150.259C150.339 12.7792 150.365 12.7261 150.392 12.6465C150.567 12.7522 150.772 12.7987 150.976 12.7792C151.067 12.7597 151.151 12.7144 151.216 12.6484C151.282 12.5825 151.328 12.4988 151.347 12.4076C151.347 12.381 151.374 12.381 151.4 12.381L151.454 12.4076C151.58 12.4592 151.72 12.4686 151.852 12.4341C151.941 12.3853 152.015 12.3116 152.064 12.2218C152.091 12.1687 152.117 12.1421 152.144 12.1421C152.17 12.1155 152.197 12.1155 152.25 12.1155C152.303 12.1155 152.462 12.089 152.515 12.0094C152.544 11.9512 152.562 11.8883 152.569 11.8236C152.569 11.7971 152.569 11.7174 152.622 11.6909C152.622 11.6909 153.046 11.5315 153.126 11.2395C153.141 11.1875 153.141 11.1322 153.126 11.0802C153.099 11.0006 153.02 10.974 152.914 10.9475L149.595 10.0714C149.513 10.0241 149.441 9.96092 149.383 9.88556C150.079 9.90187 150.775 9.83057 151.454 9.67323C151.472 9.66753 151.489 9.65718 151.503 9.64329C151.517 9.62939 151.527 9.61231 151.533 9.59351C151.533 9.56696 151.507 9.54047 151.48 9.51392C151.454 9.48737 151.4 9.46077 151.374 9.46077H151.4C151.832 9.37296 152.258 9.25774 152.675 9.11571C152.781 9.06261 152.807 9.00952 152.807 8.98297C152.807 8.92987 152.728 8.90338 152.675 8.90338C152.62 8.90558 152.566 8.89651 152.515 8.8768C152.543 8.87224 152.57 8.86325 152.595 8.85023C153.075 8.75871 153.546 8.62547 154.002 8.45202C154.029 8.42547 154.108 8.39895 154.108 8.34585C154.108 8.31931 154.108 8.29268 154.055 8.26613C153.891 8.22361 153.721 8.2058 153.551 8.21312C153.558 8.21312 153.565 8.21032 153.57 8.20534C153.575 8.20036 153.577 8.19358 153.577 8.18654C153.604 8.18654 153.71 8.1335 153.816 8.10695C154.294 7.94767 155.17 7.65554 155.409 7.33697C155.419 7.32648 155.427 7.31393 155.431 7.30016C155.436 7.28639 155.437 7.27179 155.436 7.25738C155.436 7.23083 155.409 7.20434 155.356 7.17779H155.037L155.064 7.15122L155.144 7.12464C155.719 6.86076 156.263 6.5311 156.763 6.14233C156.805 6.09843 156.833 6.04303 156.843 5.98315L156.816 5.93001C156.763 5.88959 156.697 5.87058 156.63 5.87686H156.604C156.618 5.86244 156.637 5.85322 156.657 5.85041L156.71 5.82384C157.154 5.62263 157.558 5.34392 157.905 5.00084C157.918 4.97587 157.927 4.94904 157.931 4.92125V4.89468C157.931 4.86813 157.905 4.84153 157.851 4.84153C157.708 4.84281 157.566 4.86068 157.427 4.89468V4.89468C157.427 4.89468 157.427 4.86808 157.48 4.84153L157.559 4.78851C157.918 4.57319 158.225 4.28344 158.462 3.93894V3.93894C158.462 3.9124 158.462 3.83275 158.409 3.80621C158.356 3.77966 158.356 3.77966 158.329 3.80621L158.09 3.85935L158.117 3.83278C158.117 3.83278 158.887 3.0363 159.046 2.58499C159.087 2.50136 159.114 2.41171 159.126 2.31952C159.126 2.29297 159.126 2.2665 159.099 2.2665C159.073 2.2665 158.993 2.26642 158.94 2.31952L158.913 2.34609L158.382 2.66471L158.436 2.61157L158.542 2.47883C158.754 2.21335 159.179 1.73555 159.232 1.33734V1.31077C159.288 1.01874 159.288 0.965674 159.232 0.939126H159.235ZM155.091 2.79745C155.852 2.27097 156.562 1.67551 157.214 1.01872V1.01872C157.214 1.04526 157.214 1.07179 157.161 1.12488C156.538 1.81919 155.823 2.42646 155.037 2.93019C155.091 2.90364 155.091 2.85055 155.091 2.79745ZM158.117 0.96557H158.143L158.17 0.992143C158.146 1.10265 158.091 1.20399 158.011 1.28419C157.009 2.26594 155.885 3.11368 154.666 3.80621C154.737 3.70603 154.8 3.59932 154.852 3.48758C156.025 2.76267 157.119 1.91743 158.117 0.96557V0.96557ZM154.852 2.98321C154.852 3.00975 154.799 3.08942 154.586 3.27525C154.348 3.43243 154.099 3.57432 153.843 3.70004C153.869 3.64695 153.896 3.6204 153.922 3.5673C153.949 3.51421 154.321 3.32832 154.852 2.98321V2.98321ZM153.391 6.35479C152.921 6.52069 152.443 6.66249 151.958 6.77958H151.931V6.753L152.144 6.40781C152.144 6.40077 152.147 6.39412 152.152 6.38914C152.157 6.38416 152.163 6.38137 152.17 6.38137C152.691 6.25907 153.205 6.10836 153.71 5.93001V6.03617C153.632 6.16723 153.523 6.27678 153.391 6.35479V6.35479ZM153.391 6.72643C153.391 6.75298 153.365 6.75303 153.365 6.77958C153.245 6.9171 153.088 7.01814 152.914 7.0715C152.426 7.24102 151.93 7.38286 151.427 7.49628C151.4 7.49628 151.4 7.49626 151.4 7.46971V7.44327L151.613 7.17779H151.639C151.852 7.1247 152.489 6.99188 153.365 6.69986C153.391 6.67331 153.391 6.69988 153.391 6.72643V6.72643ZM153.63 5.58494C153.239 5.7292 152.84 5.85322 152.436 5.95658H152.409V5.93001L152.569 5.58494L152.595 5.55837C153.035 5.44759 153.469 5.31469 153.896 5.16015C153.899 5.16015 153.903 5.16076 153.906 5.1621C153.909 5.16343 153.912 5.16547 153.915 5.16793C153.917 5.1704 153.919 5.17327 153.92 5.17649C153.922 5.17971 153.922 5.18324 153.922 5.18673V5.26632C153.849 5.39221 153.749 5.5009 153.63 5.58494V5.58494ZM153.843 4.78851C153.498 4.92125 153.153 5.02739 152.807 5.13358H152.781V5.10701L152.887 4.86811C152.887 4.86106 152.89 4.85429 152.895 4.84931C152.9 4.84433 152.907 4.84153 152.914 4.84153C153.266 4.75053 153.612 4.63526 153.949 4.49647C153.952 4.49647 153.956 4.49708 153.959 4.49841C153.962 4.49974 153.965 4.50178 153.968 4.50424C153.97 4.50671 153.972 4.50958 153.974 4.5128C153.975 4.51602 153.976 4.51955 153.976 4.52304V4.57606C153.951 4.65756 153.905 4.73103 153.843 4.78851V4.78851ZM153.312 4.44332H153.259V4.3903L153.391 4.23099C153.767 4.08092 154.131 3.90346 154.48 3.70004C154.366 3.86692 154.222 4.01102 154.055 4.12483C153.816 4.23102 153.577 4.33713 153.312 4.44332ZM140.144 2.77088C140.183 2.82184 140.218 2.87506 140.25 2.93019C140.757 3.68784 141.417 4.33003 142.188 4.81496C143.224 5.47865 143.41 5.50522 144.445 6.30164C145.48 7.09807 145.401 7.60252 145.401 7.68217C145.401 7.69273 145.399 7.70319 145.395 7.71302C145.392 7.72285 145.386 7.73186 145.378 7.73933C145.371 7.7468 145.362 7.75257 145.352 7.75644C145.342 7.76031 145.332 7.76213 145.321 7.76176C145.058 7.82935 144.8 7.91814 144.551 8.02723C144.472 8.08033 144.498 7.97422 144.498 7.97422C144.582 7.84635 144.637 7.70116 144.657 7.54943C144.684 6.56717 143.065 6.0362 141.657 4.86811C140.25 3.70002 140.171 3.16904 140.118 2.98321C140.065 2.79737 140.118 2.74433 140.144 2.77088V2.77088ZM140.33 4.84153L141.339 5.00084H141.365L141.657 5.18673V5.21317C141.657 5.21317 141.657 5.23972 141.631 5.21317L141.472 5.18673L140.888 5.10701C140.677 5.07315 140.477 4.99144 140.304 4.86811C140.33 4.86811 140.33 4.86808 140.33 4.84153V4.84153ZM139.905 4.44332C139.89 4.42954 139.881 4.41069 139.879 4.3903L140.197 4.46989L140.781 4.57606L141.073 4.76194C141.073 4.76194 141.1 4.78851 141.073 4.78851L141.047 4.81496C140.876 4.79232 140.708 4.75685 140.542 4.70879C140.32 4.64646 140.106 4.55731 139.905 4.44332V4.44332ZM140.994 5.4522C141.239 5.50244 141.487 5.53788 141.737 5.55837L142.215 5.61138L142.507 5.77069C142.507 5.77069 142.534 5.79727 142.507 5.79727L142.48 5.82384L141.87 5.74412C141.762 5.73946 141.655 5.7217 141.551 5.6911C141.127 5.61146 140.994 5.47875 140.994 5.4522V5.4522ZM141.764 6.0096C141.851 6.03032 141.94 6.03927 142.029 6.03617L142.826 6.11589L142.932 6.19548C142.932 6.19548 142.958 6.22205 142.932 6.22205L142.905 6.24863H142.879C142.738 6.22481 142.596 6.21588 142.454 6.22205C142.208 6.21098 141.965 6.15705 141.737 6.06274C141.74 6.04262 141.749 6.02392 141.764 6.0096V6.0096ZM140.012 3.99209H140.038L140.091 4.01853L140.383 4.23099C140.383 4.23099 140.41 4.25756 140.383 4.25756L140.357 4.28401L140.091 4.20442C140.035 4.19892 139.98 4.18072 139.932 4.15127C139.613 4.04508 139.56 3.96546 139.534 3.91237C139.534 3.90888 139.533 3.90548 139.532 3.90226C139.53 3.89904 139.528 3.89604 139.526 3.89357C139.523 3.89111 139.521 3.8892 139.517 3.88787C139.514 3.88654 139.511 3.8858 139.507 3.8858V3.85935C139.673 3.91275 139.841 3.95706 140.012 3.99209V3.99209ZM139.773 3.64689C139.773 3.64689 139.746 3.67344 139.746 3.64689L139.189 3.48758C139.029 3.40591 138.877 3.30816 138.737 3.19566L138.711 3.16909C138.95 3.24873 139.242 3.35492 139.534 3.43457L139.773 3.59388V3.64689V3.64689ZM138.313 1.39036C138.843 2.37261 139.427 2.69118 139.481 2.71773C139.613 2.79737 139.693 3.03633 139.746 3.14252V3.16909C139.693 3.14254 138.817 2.61159 138.578 2.10719C138.435 1.89214 138.344 1.64667 138.313 1.39036V1.39036V1.39036ZM138.206 2.5054C138.446 2.64509 138.694 2.76921 138.95 2.87704L139.162 3.06293V3.08937C139.162 3.08937 139.135 3.11592 139.135 3.08937L138.923 3.00978C138.883 2.98217 138.838 2.96396 138.79 2.95663C138.698 2.90152 138.6 2.85699 138.498 2.8239C138.339 2.71771 138.259 2.66466 138.233 2.61157C138.206 2.55847 138.206 2.58497 138.206 2.55842V2.5054V2.5054ZM136.454 1.12488H136.481C136.643 1.34851 136.83 1.55339 137.038 1.73555L137.065 1.762C137.184 1.86572 137.308 1.96322 137.436 2.05404C137.581 2.16065 137.731 2.2582 137.888 2.34609C137.914 2.39919 137.914 2.45231 137.941 2.5054C137.727 2.37918 137.523 2.23718 137.33 2.08062C137.123 1.91773 136.928 1.7403 136.746 1.54967L136.56 1.36378L136.507 1.28419C136.466 1.25072 136.438 1.20371 136.428 1.15145V1.15145L136.454 1.12488V1.12488ZM136.295 1.92131V1.89473H136.321C136.348 1.92128 136.454 2.00103 136.587 2.13376C137.096 2.47868 137.639 2.77209 138.206 3.00978C138.261 3.08698 138.323 3.15812 138.392 3.22211C137.72 2.95155 137.087 2.59457 136.507 2.16021L136.375 2.05404C136.354 2.00645 136.327 1.9618 136.295 1.92131V1.92131ZM136.507 2.66471L136.428 2.61157V2.55842C136.428 2.55842 136.454 2.53187 136.454 2.55842C136.921 2.883 137.43 3.14215 137.967 3.3284C138.18 3.40804 138.419 3.51423 138.631 3.59388C138.803 3.64406 138.972 3.70607 139.135 3.77963C139.19 3.79952 139.237 3.83681 139.268 3.8858V3.99209C139.006 3.91964 138.749 3.83098 138.498 3.72661C137.829 3.49564 137.195 3.17406 136.613 2.77088C136.648 2.74433 136.51 2.66471 136.51 2.66471H136.507ZM136.879 3.38142C136.846 3.35841 136.811 3.34058 136.773 3.3284V3.3284V3.27525C136.773 3.27525 136.799 3.24871 136.799 3.27525L136.959 3.35485C137.235 3.49465 137.518 3.61884 137.808 3.72661C138.286 3.91245 138.843 4.09828 139.401 4.25756L139.507 4.28401C139.534 4.31056 139.613 4.36365 139.613 4.41675V4.44332C139.559 4.4421 139.506 4.43313 139.454 4.41675L139.162 4.33716L138.658 4.17784H138.631L138.445 4.12483L138.18 4.04511C137.728 3.86181 137.293 3.63975 136.879 3.38142V3.38142ZM137.914 4.31058L137.649 4.17784L137.569 4.15127V4.12483C137.569 4.11779 137.572 4.11101 137.577 4.10603C137.582 4.10105 137.589 4.09825 137.596 4.09825C137.888 4.20444 138.206 4.31056 138.525 4.41675C138.976 4.54948 139.428 4.65575 139.905 4.76194C139.973 4.8083 140.035 4.86172 140.091 4.92125C140.118 4.9478 140.091 4.94772 140.091 4.97427C139.826 4.92117 139.534 4.84158 139.268 4.76194C139.003 4.6823 138.737 4.60266 138.472 4.49647C138.278 4.46275 138.09 4.40005 137.914 4.31058V4.31058ZM138.711 4.92125C138.684 4.92125 138.684 4.8947 138.711 4.92125L138.684 4.89468C138.684 4.88764 138.687 4.88086 138.692 4.87588C138.697 4.8709 138.704 4.86811 138.711 4.86811C139.326 5.08313 139.956 5.25171 140.596 5.37248C140.68 5.42787 140.76 5.49007 140.835 5.55837C140.835 5.55837 140.861 5.58494 140.835 5.58494C140.808 5.58494 140.808 5.58491 140.781 5.55837C140.069 5.4253 139.375 5.21156 138.711 4.92125V4.92125ZM139.852 5.66453L139.826 5.63796L139.852 5.61138C140.33 5.74412 140.808 5.85039 141.286 5.95658C141.343 5.98568 141.396 6.02129 141.445 6.06274C141.472 6.06274 141.472 6.08934 141.472 6.11589C141.419 6.11589 141.392 6.08932 141.365 6.08932C140.861 5.95658 140.357 5.82382 139.852 5.66453V5.66453ZM140.888 6.30164C140.881 6.30164 140.874 6.29885 140.869 6.29387C140.864 6.28889 140.861 6.28211 140.861 6.27507L140.888 6.24863C141.18 6.32827 141.604 6.40789 142.109 6.48753C142.135 6.48753 142.162 6.5141 142.188 6.5141C142.215 6.5141 142.374 6.62029 142.374 6.64684C141.871 6.56682 141.374 6.45142 140.888 6.30164V6.30164ZM143.011 7.15122C142.852 7.12467 142.666 7.09804 142.427 7.0715C142.42 7.0715 142.414 7.0687 142.409 7.06372C142.404 7.05874 142.401 7.05209 142.401 7.04505C142.401 7.01851 142.401 7.01848 142.427 7.01848C142.613 7.04503 142.799 7.04495 142.985 7.0715C143.022 7.07287 143.058 7.08194 143.091 7.09807C143.144 7.12462 143.25 7.17769 143.25 7.20423C143.171 7.17769 143.091 7.17776 143.011 7.15122V7.15122ZM143.277 6.753C143.048 6.74134 142.823 6.68731 142.613 6.59369L142.587 6.56712C142.842 6.59802 143.099 6.61579 143.357 6.62027V6.62027C143.371 6.63468 143.389 6.64403 143.41 6.64684C143.489 6.67339 143.569 6.753 143.277 6.753V6.753ZM143.887 7.20423C143.806 7.1993 143.725 7.18146 143.649 7.15122L143.622 7.12464C143.569 7.0981 143.595 7.0715 143.595 7.0715H143.887C143.887 7.0715 143.941 7.12467 143.941 7.15122L143.887 7.20423ZM143.967 7.52286C143.914 7.49631 143.941 7.49628 143.941 7.49628H144.073C144.088 7.5106 144.097 7.5293 144.1 7.54943L144.073 7.576C144.1 7.54946 144.02 7.5494 143.967 7.52286ZM144.1 11.0536L144.737 10.5758C144.79 10.5227 144.817 10.5227 144.817 10.5227H145.215C145.215 10.5227 144.631 10.8678 144.445 10.9475C144.259 11.0271 144.126 11.0802 144.1 11.0536ZM147.232 10.2572C147.232 10.2041 147.126 10.0183 146.728 9.9387C146.728 9.9387 146.702 9.91213 146.755 9.91213C147.011 9.85319 147.279 9.87173 147.524 9.96528H147.551C147.529 9.90708 147.494 9.85494 147.447 9.81336C147.401 9.77177 147.346 9.74187 147.286 9.72625C147.286 9.72625 147.259 9.6998 147.286 9.6998C147.312 9.6998 148.029 9.59361 148.029 10.629C148.025 10.6325 148.021 10.6352 148.017 10.6371C148.012 10.639 148.007 10.6401 148.002 10.6401C147.997 10.6401 147.993 10.639 147.988 10.6371C147.983 10.6352 147.979 10.6325 147.976 10.629C147.949 10.6024 147.79 10.39 147.71 10.2838C147.631 10.1776 147.604 10.2838 147.604 10.4431C147.604 10.6024 147.524 11.1598 147.471 11.0802C147.418 11.0006 147.365 10.7617 147.286 10.8679C147.166 11.1012 146.982 11.2949 146.755 11.4254C146.755 11.4254 146.728 11.4519 146.728 11.3988C146.728 11.3457 146.781 11.0536 146.781 11.0536V11.0006C146.538 11.2023 146.271 11.3718 145.985 11.505C145.985 11.505 145.932 11.5315 145.932 11.4784C145.932 11.4253 146.091 11.0802 146.091 11.0802C145.787 11.2358 145.45 11.3176 145.109 11.3191C145.102 11.3191 145.095 11.3163 145.09 11.3113C145.085 11.3063 145.082 11.2997 145.082 11.2927C145.076 11.1742 145.03 11.0614 144.949 10.974C145.181 10.8808 145.404 10.7652 145.613 10.629C145.764 10.5358 145.906 10.4291 146.038 10.3103C146.418 10.2069 146.815 10.1799 147.206 10.2308C147.206 10.2838 147.259 10.3103 147.232 10.2572V10.2572ZM149.224 12.2483L149.197 12.3014C149.151 12.3011 149.106 12.2921 149.064 12.2748L148.454 11.3722V11.3457H148.48L149.224 12.2483ZM148.719 11.0272L150.126 12.2748V12.3014C150.125 12.3151 150.119 12.3279 150.109 12.3376C150.1 12.3473 150.087 12.3534 150.073 12.3546C150.053 12.3677 150.03 12.3746 150.007 12.3746C149.983 12.3746 149.96 12.3677 149.94 12.3546L149.887 12.328L149.277 11.6643L148.852 11.1864L148.719 11.0272V11.0272ZM148.507 11.9298H148.48L148.241 11.4518V11.4254H148.268L148.507 11.9032C148.533 11.9032 148.533 11.9298 148.507 11.9298ZM148.586 9.88556H148.56C148.437 9.74875 148.294 9.63231 148.135 9.54049L148.109 9.51392C148.109 9.51392 148.135 9.48737 148.135 9.51392C148.303 9.61431 148.456 9.73959 148.586 9.88556V9.88556V9.88556ZM148.347 10.1245C148.349 10.1389 148.348 10.1536 148.343 10.1674C148.339 10.1811 148.331 10.1937 148.321 10.2042C148.294 10.2042 148.268 10.2042 148.268 10.1776C148.19 9.95819 148.052 9.76502 147.87 9.62008C147.86 9.60959 147.852 9.59704 147.847 9.58327C147.843 9.5695 147.841 9.5549 147.843 9.54049C147.854 9.53046 147.866 9.52279 147.88 9.5182C147.894 9.51361 147.908 9.51218 147.923 9.51392V9.51392C148.091 9.6975 148.234 9.90282 148.347 10.1245ZM142.64 12.0094C142.746 11.8501 143.091 11.4784 143.091 11.4784C143.091 11.4784 143.569 11.4253 143.834 11.3722C144.1 11.3191 144.631 11.2395 144.631 11.2395V11.2927C144.631 11.3457 144.525 11.3457 144.525 11.3457C144.259 11.3722 144.18 11.505 144.153 11.6377C144.145 11.7393 144.118 11.8384 144.073 11.9298C144.069 11.8696 144.049 11.8115 144.017 11.7606C143.984 11.7097 143.94 11.6675 143.887 11.6377C143.77 11.6226 143.65 11.6364 143.539 11.678C143.428 11.7197 143.329 11.7879 143.25 11.8766C143.214 11.9558 143.195 12.0418 143.195 12.1289C143.195 12.2159 143.214 12.3019 143.25 12.381C142.985 12.2748 142.958 12.089 142.985 12.0359C143.003 11.9538 143.03 11.8737 143.065 11.797C143.065 11.79 143.062 11.7832 143.057 11.7782C143.052 11.7733 143.045 11.7705 143.038 11.7705C142.946 11.847 142.865 11.9364 142.799 12.0359C142.816 12.1443 142.843 12.251 142.879 12.3546C142.879 12.3546 142.666 12.1952 142.587 12.1155C142.56 12.0624 142.64 12.0094 142.64 12.0094ZM142.799 13.0182C142.772 12.9917 142.772 12.9651 142.746 12.9651L142.613 12.8058L142.587 12.7792V12.7262C142.607 12.6862 142.633 12.6503 142.666 12.62C142.837 12.7491 143.038 12.8315 143.25 12.8589H143.277V12.8324V12.7262C143.33 12.7262 143.463 12.7528 143.622 12.7528C143.642 12.7508 143.661 12.7413 143.675 12.7262V12.5935C143.577 12.5016 143.512 12.3804 143.489 12.2483C143.489 12.1686 143.569 12.089 143.702 12.0359C143.751 12.0265 143.803 12.0314 143.85 12.0502C143.897 12.069 143.938 12.1009 143.967 12.1421C144.126 12.4076 144.02 12.5137 144.02 12.5137V12.5669L144.047 12.5935C144.121 12.5705 144.187 12.5249 144.234 12.4631C144.282 12.4012 144.309 12.3262 144.312 12.2483V12.0891C144.305 12.0375 144.308 11.9849 144.322 11.9347C144.335 11.8845 144.359 11.8376 144.392 11.797C144.402 11.7897 144.414 11.7845 144.426 11.7819C144.439 11.7792 144.452 11.7791 144.464 11.7816C144.476 11.7841 144.488 11.789 144.499 11.7963C144.509 11.8035 144.518 11.8128 144.525 11.8236C144.551 11.8502 144.657 12.0094 145.188 11.9298C145.159 11.9868 145.124 12.0403 145.082 12.0891C145.068 12.1034 145.058 12.122 145.056 12.1421V12.1421C145.056 12.1686 145.082 12.1687 145.109 12.1952C145.509 12.2107 145.908 12.1381 146.277 11.9828C146.267 12.0383 146.249 12.092 146.224 12.1421C146.197 12.1686 146.197 12.1687 146.224 12.1952C146.25 12.2218 146.25 12.2218 146.277 12.2218C146.704 12.1002 147.078 11.8383 147.339 11.4784V11.4784C147.365 11.5452 147.4 11.6079 147.445 11.6643C147.471 11.6908 147.498 11.7174 147.524 11.6909C147.551 11.6643 147.551 11.6908 147.79 11.3722L147.817 11.3988C147.843 11.4254 148.082 11.9032 148.215 12.1952C148.215 12.1952 148.347 12.4076 148.507 12.4076H148.613C148.667 12.401 148.723 12.4102 148.772 12.4341L148.852 12.4873C148.91 12.5284 148.973 12.5639 149.038 12.5935C148.48 12.5404 147.923 12.5137 147.339 12.5137C145.811 12.502 144.287 12.6714 142.799 13.0182V13.0182ZM155.011 14.5048C155.117 14.5579 155.197 14.611 155.303 14.6641C156.736 15.5402 157.506 16.6021 157.506 17.7171C157.506 19.0444 156.444 20.2657 154.506 21.1948C152.569 22.124 150.073 22.6018 147.392 22.6018C144.71 22.6018 142.188 22.0974 140.277 21.1948C138.366 20.2922 137.277 19.0444 137.277 17.7171C137.277 16.7083 137.888 15.726 139.056 14.9296C139.444 14.667 139.852 14.4362 140.277 14.2393C140.318 14.2146 140.363 14.1968 140.41 14.1863C142.295 13.3102 144.764 12.8324 147.365 12.8324C150.047 12.8324 152.569 13.3367 154.48 14.2393C154.662 14.3171 154.839 14.4058 155.011 14.5048V14.5048ZM149.383 12.5935C149.452 12.5735 149.516 12.5371 149.569 12.4873H149.595L149.675 12.5403L149.808 12.62C149.665 12.6253 149.523 12.6164 149.383 12.5935V12.5935ZM151.108 12.3014C151.082 12.328 151.029 12.381 150.869 12.2748L148.905 10.8147L148.852 10.7617V10.7351H148.878L148.985 10.7881L151.002 12.0625C151.053 12.0995 151.098 12.1443 151.135 12.1952V12.1952V12.2218C151.135 12.2749 151.135 12.2749 151.108 12.3014ZM151.825 11.9032V11.9298C151.807 11.9551 151.783 11.9756 151.756 11.9895C151.728 12.0034 151.697 12.0102 151.666 12.0094H151.639L151.586 11.9828L151.533 11.9563L149.993 11.0802L149.091 10.5492L149.064 10.5227V10.4962H149.091L149.144 10.5227L151.799 11.8236V11.85L151.825 11.9032V11.9032ZM152.33 11.6111C152.303 11.6642 152.223 11.7174 152.17 11.6909H152.144L149.17 10.3103V10.2838L149.197 10.2572L151.746 11.2395L152.383 11.4784C152.356 11.5315 152.33 11.5581 152.33 11.6111V11.6111ZM152.542 11.1068C152.569 11.1068 152.595 11.1333 152.622 11.1864V11.2661C152.604 11.2815 152.582 11.292 152.559 11.2967C152.535 11.3013 152.511 11.3 152.489 11.2927L149.436 10.151L149.383 10.1245C149.383 10.121 149.383 10.1176 149.385 10.1143C149.386 10.1111 149.388 10.1083 149.391 10.1058C149.393 10.1033 149.396 10.1013 149.399 10.1C149.402 10.0986 149.406 10.098 149.409 10.098H149.462L152.542 11.1068ZM149.701 8.34585C148.878 8.9299 147.232 9.14228 146.887 9.14228C146.542 9.14228 146.277 9.56701 145.772 9.91213C145.475 10.1328 145.104 10.2282 144.737 10.1776C144.819 10.0421 144.856 9.88412 144.843 9.72625C144.703 9.96943 144.475 10.1499 144.206 10.2308C144.015 10.2786 143.818 10.2964 143.622 10.2838C143.413 10.3008 143.208 10.3454 143.011 10.4165C142.896 10.4276 142.779 10.4185 142.666 10.3899C142.763 10.331 142.872 10.2948 142.985 10.2838C143.102 10.2662 143.217 10.2397 143.33 10.2042C143.097 10.169 142.859 10.1964 142.64 10.2838C142.591 10.3096 142.536 10.323 142.48 10.323C142.425 10.323 142.37 10.3096 142.321 10.2838C142.245 10.2948 142.176 10.3335 142.127 10.3923C142.078 10.4511 142.053 10.5259 142.056 10.6024C141.982 10.4731 141.946 10.3262 141.95 10.1776C141.95 9.91213 142.56 9.62008 142.56 9.62008C142.643 9.60006 142.729 9.59921 142.811 9.61762C142.894 9.63603 142.972 9.67318 143.038 9.72625C143.118 9.88553 143.25 9.96517 143.357 9.85898C143.463 9.75279 143.489 9.64666 143.569 9.64666H143.728L143.834 9.56707C143.834 9.56002 143.832 9.55325 143.827 9.54827C143.822 9.54329 143.815 9.54049 143.808 9.54049C143.608 9.58601 143.402 9.6038 143.197 9.59351C143.081 9.61048 142.962 9.59465 142.854 9.54775C142.746 9.50085 142.654 9.42474 142.587 9.32803C143.41 9.06256 144.233 8.29279 145.109 8.10695C145.705 7.99849 146.315 7.9895 146.914 8.08038C146.783 8.2318 146.676 8.40176 146.595 8.58476C148.613 7.25738 149.861 6.85917 149.861 6.85917C150.443 5.74623 151.314 4.81073 152.383 4.15127C153.026 3.66602 153.59 3.08391 154.055 2.42568C154.135 2.2664 154.188 2.2665 154.188 2.2665C154.161 2.824 153.63 3.40804 153.179 3.85935C152.824 4.18004 152.452 4.48133 152.064 4.76194C152.011 4.81504 152.064 4.84153 152.064 4.84153C152.064 4.84153 152.197 4.86811 152.223 4.86811C152.25 4.86811 152.25 4.92125 152.25 4.92125C152.13 5.08335 151.987 5.22643 151.825 5.34591C151.799 5.399 151.825 5.39906 151.825 5.39906C151.862 5.40043 151.898 5.4095 151.931 5.42563C151.984 5.45218 151.931 5.50522 151.931 5.50522L151.507 5.90343C151.491 5.91721 151.482 5.93619 151.48 5.95658C151.48 5.95658 151.666 5.93001 151.692 5.93001C151.719 5.93001 151.719 5.98315 151.719 5.98315C151.626 6.16432 151.5 6.32636 151.347 6.46096L151.321 6.5141H151.533C151.56 6.5141 151.533 6.54055 151.533 6.54055C151.247 6.90313 150.896 7.20933 150.498 7.44327C150.498 7.44327 150.71 7.52288 150.71 7.54943C150.71 7.57598 150.71 7.576 150.71 7.576C150.344 7.80782 149.952 7.99488 149.542 8.1334C149.542 8.1334 149.701 8.21314 149.701 8.23969C149.709 8.25635 149.713 8.27438 149.713 8.29271C149.713 8.31103 149.709 8.3292 149.701 8.34585V8.34585ZM150.524 8.8768C150.295 8.89128 150.064 8.89128 149.834 8.8768C149.82 8.87561 149.808 8.86953 149.798 8.85982C149.788 8.85011 149.782 8.83734 149.781 8.82366C149.782 8.80998 149.788 8.7972 149.798 8.78749C149.808 8.77778 149.82 8.77184 149.834 8.77064H150.524C150.538 8.77184 150.551 8.77778 150.561 8.78749C150.57 8.7972 150.576 8.80998 150.577 8.82366V8.82366C150.576 8.83734 150.57 8.85011 150.561 8.85982C150.551 8.86953 150.538 8.87561 150.524 8.8768V8.8768ZM151.984 8.10695L151.931 8.1334C151.772 8.18649 151.639 8.23961 151.48 8.29271C151.321 8.3458 151.215 8.34588 151.108 8.37243C151.064 8.37866 151.019 8.38742 150.976 8.39887L150.392 8.47859C150.206 8.50514 150.365 8.39898 150.392 8.37243H150.418C150.604 8.34588 151.161 8.29279 152.011 8.10695C151.984 8.05386 152.011 8.08041 151.984 8.10695V8.10695ZM150.843 8.02723C150.816 8.02723 150.816 8.00069 150.843 8.02723L150.976 7.8945C151.003 7.8642 151.041 7.84535 151.082 7.84148C151.694 7.73605 152.297 7.58514 152.887 7.39012C152.887 7.39012 152.914 7.39014 152.887 7.41669L152.861 7.44327C152.678 7.54896 152.481 7.6293 152.276 7.68217C151.825 7.8149 151.347 7.92104 150.843 8.02723V8.02723ZM154.4 7.36355C154.393 7.36355 154.387 7.36634 154.382 7.37132C154.377 7.3763 154.374 7.38308 154.374 7.39012C153.747 7.67081 153.099 7.90163 152.436 8.08038C152.522 8.02688 152.602 7.96455 152.675 7.8945C153.153 7.76176 153.71 7.57593 154.347 7.36355C154.374 7.36355 154.4 7.36352 154.4 7.33697C154.4 7.31042 154.427 7.337 154.4 7.36355V7.36355ZM155.887 6.24863C155.777 6.31977 155.662 6.38184 155.542 6.43438C155.436 6.48748 155.303 6.54062 155.17 6.62027C155.11 6.65161 155.048 6.67819 154.984 6.69986C154.613 6.85914 154.161 7.04497 153.657 7.23081C153.493 7.28114 153.334 7.3433 153.179 7.41669C153.208 7.36746 153.244 7.32273 153.285 7.28395C153.445 7.23086 153.577 7.17774 153.737 7.12464C154.342 6.92754 154.936 6.69709 155.515 6.43438C155.624 6.34629 155.751 6.28297 155.887 6.24863C155.887 6.22208 155.94 6.16899 155.887 6.24863V6.24863ZM156.63 5.34591V5.39906C156.527 5.46663 156.421 5.52872 156.312 5.58494L155.781 5.87686L155.568 5.98315C155.223 6.16899 154.852 6.32824 154.48 6.48753C154.214 6.59372 153.922 6.7264 153.604 6.83259C153.657 6.75295 153.684 6.67334 153.737 6.59369C153.949 6.51405 154.135 6.46101 154.347 6.38137C154.905 6.16899 155.489 5.87688 156.232 5.50522C156.312 5.45212 156.577 5.34601 156.63 5.31946C156.604 5.29292 156.604 5.31936 156.63 5.34591ZM157.798 4.09825C157.798 4.20444 156.657 4.86808 155.648 5.37248L154.931 5.71768C154.56 5.87696 154.214 6.03617 153.869 6.16891C153.917 6.05792 153.952 5.94229 153.976 5.82384C155.281 5.36141 156.536 4.7653 157.719 4.04511C157.744 4.03209 157.771 4.0231 157.798 4.01853V4.09825V4.09825ZM158.303 2.93019C158.276 3.03638 156.206 4.52301 154.082 5.42563C154.108 5.29289 154.108 5.18662 154.135 5.08043C155.567 4.54645 156.916 3.81371 158.143 2.90362C158.223 2.85052 158.25 2.82392 158.303 2.85047C158.356 2.87702 158.303 2.90364 158.303 2.93019V2.93019ZM158.754 1.57624C157.378 2.82904 155.821 3.86724 154.135 4.65578V4.3903C155.792 3.66188 157.324 2.67634 158.674 1.47008V1.47008C158.728 1.44353 158.754 1.41696 158.781 1.4435C158.807 1.47005 158.807 1.52315 158.754 1.57624V1.57624ZM10.911 16.9206C10.911 15.5136 10.088 15.4871 9.47745 15.4871H8.76068V14.5845C9.90222 14.6376 11.0969 14.7173 12.4773 14.7173C13.8578 14.7173 15.079 14.6642 16.2736 14.5845V15.4871H15.9019C15.3179 15.4871 14.4684 15.5402 14.4684 16.9206V21.0621C13.3003 21.4072 10.5128 22.0178 8.33591 22.0178C3.55736 22.0178 0 19.1772 0 14.0004C0 9.99175 2.46891 5.98315 8.4421 5.98315C10.5128 5.98315 12.7162 6.48745 14.4949 7.0715L14.3622 11.4254H12.9366C12.91 8.90338 11.1845 7.39012 8.82173 7.39012C4.9458 7.39012 3.8308 10.3103 3.8308 14.0004C3.8308 17.5578 5.68912 20.717 9.11375 20.717C9.72231 20.7023 10.3275 20.6221 10.919 20.478V16.9206H10.911ZM17.9726 8.50517C17.9726 7.60255 17.8399 7.17776 16.3267 7.15122V6.24863C17.3886 6.30172 18.5833 6.38137 19.7779 6.38137C20.9725 6.38137 22.1672 6.32827 23.3618 6.24863V7.15122C21.7159 7.17776 21.5831 7.60255 21.5831 8.50517V16.7349C21.5831 19.1773 23.0698 20.0798 25.2201 20.0798C28.1138 20.0798 29.0695 18.5666 29.0695 15.5137V8.50517C29.0695 7.60255 28.9368 7.17776 27.2643 7.15122V6.24863C28.0076 6.30172 28.8306 6.38137 29.6801 6.38137C30.3812 6.37766 31.0814 6.33334 31.7774 6.24863V7.15122C30.5562 7.17776 30.4234 7.60255 30.4234 8.50517V15.673C30.4234 20.717 27.4236 22.0178 24.3706 22.0178C20.5743 22.0178 17.9726 20.9559 17.9726 16.4428V8.50517V8.50517ZM32.7596 20.8232C34.5383 20.7966 34.671 20.3718 34.671 19.4692V8.50517C34.671 7.60255 34.5383 7.17776 32.8658 7.15122V6.24863C34.0604 6.30172 35.2816 6.38137 36.4497 6.38137C37.6178 6.38137 38.839 6.32827 40.4053 6.24863V7.15122C38.3877 7.17776 38.2284 7.60255 38.2284 8.50517V19.6816C38.2284 20.3187 38.255 20.5577 39.4496 20.5577C41.9451 20.5577 44.122 20.0798 44.6795 17.1861H45.6883C45.3431 18.6728 45.0246 20.186 44.8122 21.6992C43.0866 21.6461 41.1486 21.5665 38.9717 21.5665C36.6621 21.5665 34.5649 21.6196 32.7331 21.6992V20.8232H32.7596ZM46.113 20.8232C47.8917 20.7966 48.0244 20.3718 48.0244 19.4692V8.50517C48.0244 7.60255 47.8917 7.17776 46.2457 7.15122V6.24863C48.1306 6.30172 50.042 6.38137 51.9535 6.38137C53.8649 6.38137 55.8029 6.32827 57.7408 6.24863C57.7408 7.52291 57.8205 9.16877 57.9001 10.151H56.8648C56.732 7.49628 55.2984 7.41669 53.1481 7.41669C52.2189 7.41669 51.6083 7.41669 51.6083 8.08038V13.496H53.387C55.033 13.496 55.617 13.2837 55.617 11.505H56.4931C56.4134 12.4076 56.3604 13.3103 56.3604 14.2129C56.3561 15.1261 56.4004 16.0388 56.4931 16.9472H55.617V16.3101C55.5905 14.7969 54.9268 14.5314 53.5463 14.5314H51.6083V19.4692C51.6083 20.3718 51.7411 20.7966 53.8649 20.8232V21.7258C52.511 21.6727 51.0508 21.593 49.8828 21.593C48.7147 21.593 47.4138 21.6461 46.113 21.7258V20.8232V20.8232ZM67.6696 7.8149C67.4846 7.59631 67.2521 7.42283 66.9898 7.30781C66.7276 7.19278 66.4425 7.13926 66.1564 7.15122H65.9175V6.24863C66.7935 6.30172 67.6961 6.38137 68.5457 6.38137C69.3952 6.38137 70.3243 6.32827 71.227 6.24863L78.8461 16.0712H78.8992V8.47859C78.8992 7.57598 78.7664 7.15119 76.9347 7.12464V6.22205C77.8904 6.27515 78.8461 6.35479 79.5894 6.35479C80.3348 6.35679 81.0795 6.31246 81.8194 6.22205V7.12464C80.4124 7.15119 80.2797 7.57598 80.2797 8.47859V21.6992H78.5806L69.0766 9.32803H69.0235V19.4692C69.0235 20.3718 69.1562 20.7966 71.0146 20.8232V21.7258C70.0589 21.6727 69.1032 21.593 68.3598 21.593C67.6165 21.593 66.6608 21.6461 65.7051 21.7258V20.8232C67.5368 20.7966 67.6961 20.3718 67.6961 19.4692L67.6696 7.8149ZM82.6955 20.8232C84.5273 20.7966 84.6865 20.3718 84.6865 19.4692V8.50517C84.6865 7.60255 84.5538 7.17776 82.8813 7.15122V6.24863C84.7662 6.30172 86.6776 6.38137 88.589 6.38137C90.5004 6.38137 92.4384 6.32827 94.3764 6.24863C94.3764 7.52291 94.456 9.16883 94.5357 10.2042H93.5003C93.3676 7.49633 91.934 7.41669 89.7837 7.41669H88.9341C88.4032 7.41669 88.2439 7.6025 88.2439 8.05381V13.2306H89.8899C91.5358 13.2306 92.1198 12.8059 92.1198 11.1599H92.9959C92.9163 12.0094 92.8632 12.8854 92.8632 13.7349C92.8581 14.6393 92.9024 15.5433 92.9959 16.4428H92.1198C92.1198 14.6642 91.5358 14.2393 89.8899 14.2393H88.2439V19.5754C88.2439 20.186 88.5359 20.3984 89.12 20.3984H90.0226C92.4119 20.3984 94.164 20.0533 94.6684 17.4516H95.6507C95.3085 18.8431 95.0426 20.2521 94.8542 21.6726C92.8632 21.6195 90.8721 21.5399 88.881 21.5399C86.8103 21.5399 84.7396 21.593 82.6689 21.6726L82.6955 20.8232V20.8232ZM95.279 6.24863C96.3409 6.30172 97.3763 6.38137 98.4382 6.38137C99.447 6.38137 100.429 6.32827 101.438 6.24863V7.15122H101.013C100.456 7.23086 100.429 7.49628 100.429 7.76176C100.469 8.17568 100.549 8.58474 100.668 8.98297L103.164 17.7702H103.217L105.473 10.4697L104.942 8.34585C104.677 7.28395 104.518 7.15122 103.615 7.15122H103.137V6.24863C104.199 6.30172 105.314 6.38137 106.376 6.38137C107.544 6.38137 108.739 6.32827 109.933 6.24863V7.15122H109.57C108.853 7.15122 108.455 7.33697 108.455 7.73518C108.501 8.25478 108.59 8.7698 108.72 9.27502L110.658 18.1153H110.711L113.605 9.06256C113.767 8.62776 113.865 8.1718 113.897 7.70874C113.897 7.23089 113.445 7.12464 112.755 7.12464H112.251V6.22205C113.074 6.27515 114.056 6.35479 114.693 6.35479C115.385 6.35024 116.077 6.30592 116.764 6.22205V7.12464C115.808 7.12464 115.357 7.84148 115.012 8.90338L110.764 21.8319H108.455L106.118 12.9385H106.065L103.172 21.8319H100.862L96.9329 8.82366C96.4816 7.36354 96.3754 7.17779 95.2339 7.17779L95.287 6.24863H95.279ZM126.446 10.8147H125.198C125.145 8.63782 124.508 7.25738 122.039 7.25738C120.844 7.25738 119.676 7.76183 119.676 9.30159C119.676 12.4076 127.455 11.266 127.455 16.8941C127.455 20.5045 124.747 21.9912 121.588 21.9912C119.811 21.9699 118.068 21.5045 116.517 20.6373C116.597 19.3896 116.623 17.5844 116.623 16.3367H118.11C118.11 18.6729 119.039 20.5843 121.455 20.5843C122.968 20.5843 124.349 19.9736 124.349 18.5401C124.349 14.9031 116.703 16.0446 116.703 10.5492C116.703 7.62902 118.853 5.95658 122.092 5.95658C123.605 5.95658 125.145 6.2751 126.632 6.56712L126.446 10.8147V10.8147Z" fill="#2E2E2E"/>
</svg>
