<svg width="144" height="26" viewBox="0 0 144 26" fill="none" xmlns="http://www.w3.org/2000/svg">
<path d="M10.9775 5.25122C10.9775 7.53014 10.9775 9.84597 10.9775 12.0789C11.0761 13.2876 10.7004 14.4869 9.92996 15.4235L10.1046 15.6074C10.3894 15.4145 10.8397 15.2859 10.9315 15.0286C11.3064 14.1487 11.5569 13.2209 11.6759 12.2719C11.7684 10.4352 11.7684 8.59504 11.6759 6.75837C11.5913 5.92832 11.7151 5.09035 12.036 4.32019C12.3569 3.55003 12.8648 2.87172 13.5137 2.3473C13.6365 2.2379 13.7231 2.09392 13.7618 1.93405C13.5872 2.05351 13.4034 2.15425 13.238 2.27371C12.4889 2.83323 11.6206 3.21258 10.701 3.38153C9.78131 3.55048 8.83505 3.50453 7.93592 3.24782C7.24763 3.04236 6.53885 2.91301 5.82237 2.86195C5.11891 2.88797 4.41851 2.96808 3.72726 3.1011C4.22262 1.99931 5.08237 1.10152 6.16186 0.559267C7.24134 0.0170154 8.47467 -0.136815 9.65429 0.123589C11.0332 0.383629 12.4262 0.561671 13.8262 0.656633C14.451 0.623895 15.0688 0.509486 15.664 0.316525C14.6164 2.65058 15.1218 5.07661 15.1402 7.53012L20.1299 0.252363C20.853 0.741276 21.6987 1.01765 22.5709 1.05013C23.4432 1.08262 24.3071 0.86965 25.0645 0.435877C24.2099 3.26614 21.7105 4.2038 18.6321 2.87137L16.2062 6.46403C17.0148 7.10727 17.7959 7.68619 18.5218 8.30187C18.8067 8.54842 19.0221 8.86521 19.1467 9.22078C19.7164 10.9667 20.2494 12.7126 20.7732 14.4678C20.9069 14.9653 21.1589 15.4234 21.5077 15.8026C21.8565 16.1818 22.2918 16.4709 22.7764 16.6457C23.3645 16.8846 23.9343 17.1969 24.5316 17.3991C25.5516 17.7482 25.9651 17.3994 25.9651 16.3702C25.9651 12.4832 25.9651 8.59599 25.9651 4.69978C26.073 3.65267 25.7988 2.60208 25.1932 1.74112L25.3678 1.59395L26.8656 2.97232C27.2825 2.16921 27.9451 1.52017 28.7567 1.12013C29.5684 0.720093 30.4866 0.590058 31.3775 0.748614C29.4845 1.42861 29.218 2.97239 29.218 4.65401C29.218 5.95888 29.218 7.26351 29.218 8.77972L33.0867 6.17014C33.7299 6.97879 34.3732 7.76918 34.9245 8.59621C35.0534 8.83514 35.1078 9.10681 35.0807 9.37693C35.0807 11.5456 35.0807 13.7143 35.0807 15.8829C35.1669 16.331 35.3899 16.7416 35.7191 17.0576C36.0483 17.3736 36.4673 17.5793 36.9186 17.6472C37.0349 17.6501 37.1504 17.6277 37.2569 17.5808C37.3634 17.5339 37.4582 17.464 37.5346 17.3762C37.6109 17.2884 37.6669 17.1848 37.6987 17.0729C37.7304 16.9609 37.737 16.8431 37.718 16.7283C37.718 14.6148 37.718 12.5013 37.718 10.3878C37.6991 10.1717 37.7438 9.95474 37.8467 9.7637C37.9495 9.57266 38.1061 9.41594 38.2969 9.31276C39.8867 8.30195 41.4488 7.24506 43.0569 6.17911C44.1964 7.22668 45.3266 8.24682 46.4201 9.31276C46.6191 9.57618 46.717 9.90225 46.6959 10.2317C46.6959 12.0695 46.6959 13.9534 46.6959 15.8188C46.6959 16.5539 47.8445 17.7577 48.5337 17.6566C48.8094 17.6566 49.0574 17.2339 49.2964 16.9858C49.3515 16.9307 49.2964 16.7744 49.2964 16.6641C49.2964 12.4647 49.2964 8.27421 49.2964 4.07475C49.2067 3.25388 49.0343 2.44429 48.7818 1.65811L50.2337 2.9445C50.6484 2.155 51.3013 1.5163 52.0997 1.11878C52.898 0.721266 53.8013 0.585426 54.6813 0.730218C52.9904 1.3367 52.6045 2.71494 52.5953 4.25872C52.5953 8.17331 52.5953 12.0879 52.5953 16.0117C52.6934 16.4214 52.9062 16.7947 53.209 17.0877C53.5117 17.3806 53.8917 17.581 54.3045 17.6656C54.8834 17.6656 55.0947 17.3348 55.0947 16.7467C55.0947 14.6332 55.0947 12.5197 55.0947 10.4062C55.068 10.2052 55.1019 10.001 55.1919 9.81934C55.2819 9.63766 55.4241 9.48688 55.6002 9.38635C57.245 8.34797 58.8623 7.2634 60.5715 6.14232L64.2472 10.9303C62.4828 12.033 60.7921 13.1541 59.0461 14.1649C58.3845 14.5417 58.4396 15.0377 58.4029 15.6074C58.3661 16.1772 58.798 16.2782 59.1472 16.4528C59.9374 16.8479 60.7644 17.1879 61.5271 17.6382C61.979 17.8867 62.4879 18.0133 63.0035 18.0052C63.5191 17.9972 64.0238 17.8549 64.4677 17.5924C64.5845 17.4943 64.6787 17.3719 64.7437 17.2339C64.8087 17.0959 64.8431 16.9454 64.8445 16.7929C64.8445 14.6794 64.8445 12.5749 64.8445 10.4614C64.817 10.2321 64.8593 10 64.9659 9.79511C65.0724 9.5902 65.2382 9.42198 65.4417 9.31276C67.0682 8.29277 68.658 7.22664 70.3212 6.14232L73.9969 10.9209L73.0136 11.5459C71.5985 12.4648 70.2569 13.3834 68.7682 14.1828C68.1617 14.532 68.1526 14.9915 68.125 15.5612C68.0975 16.131 68.5385 16.2872 68.9245 16.4801C69.9812 16.9672 71.0288 17.4728 72.1131 17.8863C72.5356 17.9789 72.9736 17.9739 73.3939 17.872C73.8143 17.7701 74.2059 17.5739 74.5391 17.2981C74.6861 17.2154 74.7688 16.8757 74.7688 16.6551C74.7688 14.6335 74.7688 12.6057 74.7688 10.5718C74.7433 10.2783 74.6419 9.99636 74.4747 9.75383C74.1531 9.2668 73.7763 8.83507 73.3904 8.31129L75.9634 6.19751C76.625 7.02453 77.259 7.78754 77.8563 8.57781C77.9917 8.78186 78.0623 9.02213 78.0585 9.267C78.0585 13.1632 78.0585 17.053 78.0585 20.937C78.0473 21.0581 78.0258 21.1781 77.9942 21.2955C76.6091 21.4594 75.3073 22.0428 74.2634 22.9678C72.1554 24.7898 69.4499 25.7713 66.6639 25.7245C65.3424 25.7697 64.0453 25.3613 62.9882 24.5669C62.5133 24.1992 62.1631 23.6937 61.9855 23.1199C61.808 22.546 61.8115 21.9314 61.9958 21.3596C62.2131 20.8088 62.5936 20.3376 63.0863 20.0091C63.5791 19.6806 64.1605 19.5105 64.7526 19.5218C65.3596 19.4714 65.9696 19.5728 66.5278 19.8166C67.086 20.0604 67.5749 20.439 67.9504 20.9186C67.5093 20.7807 67.1693 20.5603 66.8753 20.6063C66.2972 20.6237 65.7387 20.8194 65.2763 21.1667C65.1229 21.3972 65.0284 21.662 65.0011 21.9376C64.9739 22.2132 65.0148 22.4913 65.1201 22.7474C65.4919 23.4133 66.0468 23.9586 66.7191 24.3188C67.9638 24.8178 69.3348 24.9088 70.6345 24.5786C71.9342 24.2483 73.0955 23.5137 73.9509 22.4809C74.3699 21.8685 74.6404 21.1669 74.7412 20.4318C74.8062 19.4557 74.8062 18.4765 74.7412 17.5005C73.225 18.3091 71.8282 19.0259 70.4591 19.7978C70.2512 19.9283 70.0107 19.9974 69.7653 19.9974C69.5198 19.9974 69.2794 19.9283 69.0715 19.7978C67.8401 19.1729 66.5904 18.5662 65.3223 18.0057C64.9827 17.872 64.6051 17.872 64.2656 18.0057C63.0342 18.5662 61.8488 19.2372 60.5899 19.7978C60.2265 19.9397 59.823 19.9397 59.4596 19.7978C58.1547 19.2005 56.8683 18.5293 55.591 17.8585C55.4388 17.7457 55.25 17.6936 55.0615 17.7122C54.8729 17.7309 54.6981 17.8194 54.571 17.9599C53.7532 18.6767 52.8893 19.3291 51.9888 20.0643L49.3607 17.5924L46.2731 20.0916L43.3785 17.6014L41.1088 20.2204C40.0061 19.3566 39.0688 18.6583 38.1775 17.9231C38.1181 17.8485 38.0426 17.7882 37.9567 17.7468C37.8708 17.7054 37.7767 17.6835 37.6813 17.6835C37.5859 17.6835 37.4917 17.7054 37.4058 17.7468C37.3199 17.7882 37.2444 17.8485 37.185 17.9231C36.3488 18.6491 35.4759 19.3384 34.5753 20.0827C33.6564 19.2924 32.7375 18.548 31.938 17.7486C31.764 17.5098 31.6824 17.216 31.7083 16.9217C31.7083 15.2584 31.598 13.5764 31.7083 11.9223C31.7831 11.2629 31.7004 10.5955 31.4672 9.97413C31.234 9.35278 30.8569 8.7955 30.3667 8.34808C29.1537 8.82592 29.0526 8.98219 29.0526 10.2411C29.0526 11.9962 29.0526 13.7419 29.0526 15.4971C29.0157 15.7957 29.0633 16.0987 29.19 16.3716C29.3167 16.6445 29.5174 16.8765 29.7694 17.041C30.1619 17.3434 30.5362 17.6687 30.8905 18.0151L28.5104 20.0827L25.7996 17.5462C25.0737 18.2354 24.3478 18.8694 23.6953 19.577C23.6242 19.6763 23.5341 19.7607 23.4301 19.8247C23.3262 19.8887 23.2106 19.931 23.0899 19.9499C22.9693 19.9687 22.8461 19.9635 22.7276 19.9342C22.6091 19.9048 22.4976 19.8522 22.3997 19.7794C21.7339 19.4358 21.0498 19.1291 20.3505 18.8604C19.1976 18.4381 18.2397 17.6076 17.658 16.5264C16.9597 17.142 16.3164 17.7025 15.6824 18.2722L13.7251 20.0365C11.8569 18.8437 9.6484 18.2981 7.43967 18.4835C5.54248 18.5308 3.69384 19.0931 2.09156 20.11C1.51273 20.4907 1.01083 20.9771 0.612119 21.5436C-0.306799 23.0414 0.428335 24.4934 2.44995 25.0999C1.90009 25.1767 1.34203 25.0349 0.89541 24.7051C0.448791 24.3753 0.14919 23.8838 0.0607904 23.3357C-0.0626029 22.5642 0.00245427 21.7743 0.250474 21.0334C0.498494 20.2926 0.922102 19.6224 1.4851 19.0807C3.26026 17.2124 5.61424 15.9982 8.16565 15.6348C9.66349 15.3775 10.1321 14.9917 10.4078 13.4847C10.5025 12.9106 10.5517 12.3297 10.5548 11.7478C10.5548 9.96511 10.5548 8.19154 10.5548 6.40884C10.578 6.00226 10.6241 5.59746 10.6927 5.19603L10.9775 5.25122ZM16.3807 17.5094C16.5807 17.3159 16.7925 17.1349 17.0148 16.9674C17.6856 16.5355 17.7224 16.0484 17.4559 15.2857C17.0353 14.0586 16.6794 12.8104 16.3899 11.5459C16.2982 11.1768 16.1274 10.8317 15.8895 10.535C15.6515 10.2383 15.3519 9.99704 15.0115 9.82741C15.4434 12.8966 13.5964 14.3394 11.0327 15.4329C13.137 15.7821 14.9013 16.2046 16.3807 17.5094ZM41.1088 8.81651C41.1088 11.0403 41.2191 13.0159 41.1088 14.964C41.0581 15.4683 41.171 15.9758 41.4308 16.411C41.6906 16.8463 42.0835 17.1864 42.5515 17.3811C43.2223 17.7854 43.5899 17.5832 43.5991 16.8113C43.5991 15.0929 43.5991 13.3742 43.5991 11.6558C43.6113 11.4127 43.54 11.173 43.3969 10.9761C42.671 10.2685 41.9634 9.64354 41.1088 8.81651ZM68.3823 8.81651V14.2564L71.185 12.5016L68.3823 8.81651ZM58.605 14.2659L61.4353 12.5016L58.605 8.77972V14.2659Z" fill="#2E2E2E"/>
<path d="M88.5066 15.0193C88.6445 13.788 88.8742 12.5566 88.9018 11.3437C88.9569 8.66042 88.9018 5.96815 88.9018 3.23896C87.9135 2.95589 86.8658 2.95446 85.8769 3.23537C84.888 3.51629 83.9974 4.06833 83.3055 4.82867C83.2721 4.34134 83.3362 3.85201 83.494 3.38972C83.6518 2.92743 83.9001 2.50129 84.2244 2.13608C84.7651 1.44568 85.4664 0.898166 86.2672 0.540989C87.0681 0.183812 87.9441 0.0278385 88.819 0.0869148C90.7997 0.269656 92.7671 0.576566 94.7093 1.00583C96.5472 1.3734 98.385 1.49298 100.122 0.445418C100.122 2.72433 98.4217 4.01986 94.8747 4.43338V16.9397C95.9239 16.5837 96.8781 15.9934 97.6647 15.2132C98.4513 14.4329 99.0496 13.4834 99.4142 12.4371C99.5796 14.8722 97.3374 19.0352 92.9174 20.0092C90.9729 20.4337 88.9401 20.13 87.2043 19.1563C85.4684 18.1825 84.1499 16.6062 83.4985 14.7254C82.1018 10.6638 83.7926 5.74763 87.1742 4.17628C84.7207 8.77087 84.9688 12.5475 87.9828 15.5156L88.3964 15.1665L88.4423 15.8831C88.6445 15.7452 88.9661 15.6536 89.0396 15.4698C89.4187 14.7098 89.6731 13.8935 89.7931 13.0527C89.885 10.0295 89.7931 6.99716 89.8482 3.97392C89.8482 3.44095 89.6093 3.30327 89.0764 3.4503V4.36921C89.0764 7.25462 89.0764 10.1489 89.0764 13.0343C88.9701 13.7171 88.7787 14.3841 88.5066 15.0193V15.0193ZM93.2666 4.17628C93.2666 6.46438 93.2666 8.65141 93.2666 10.8384C93.2986 11.6452 93.1112 12.4454 92.7244 13.1541C92.3377 13.8629 91.7661 14.4535 91.0704 14.8632C90.3904 15.3226 89.6461 15.6811 88.8834 16.1222C90.3141 17.0225 92.0113 17.4021 93.6893 17.1973C94.3693 17.1329 94.6082 16.9491 94.6082 16.2048C94.6082 12.5291 94.6082 8.76162 94.6082 5.04001C94.6082 4.78271 94.6083 4.5161 94.5439 4.22204L93.2666 4.17628Z" fill="#2E2E2E"/>
<path d="M115.955 8.89019C115.877 9.17655 115.822 9.46857 115.789 9.76334C115.789 11.6012 115.789 13.4848 115.789 15.341C115.75 15.6664 115.798 15.9966 115.929 16.2972C116.059 16.5977 116.268 16.8574 116.534 17.0501C116.948 17.3804 117.343 17.7331 117.719 18.1067L115.605 20.1012C114.687 19.2925 113.694 18.5387 112.794 17.7209C112.617 17.4865 112.532 17.196 112.555 16.9033C112.555 14.9828 112.463 13.062 112.555 11.1507C112.601 10.5892 112.506 10.0251 112.278 9.50983C112.05 8.99456 111.696 8.54453 111.25 8.201C110.739 8.30523 110.29 8.60719 110.001 9.04095C109.712 9.4747 109.606 10.0051 109.706 10.5167C109.807 12.1232 109.807 13.7345 109.706 15.341C109.665 15.7124 109.729 16.0881 109.891 16.4246C110.054 16.7611 110.308 17.0446 110.625 17.243C110.965 17.4819 111.259 17.7852 111.663 18.1619L109.541 20.1743L106.444 17.5925L103.641 20.1196C102.722 19.3201 101.721 18.5481 100.802 17.7303C100.651 17.5061 100.586 17.2355 100.618 16.9675C100.618 15.0286 100.572 13.0806 100.618 11.1417C100.671 10.7032 100.623 10.2582 100.478 9.84096C100.333 9.42376 100.095 9.04533 99.7817 8.73404C99.6029 8.52704 99.4372 8.30918 99.2855 8.08165L101.803 6.1792C102.456 7.00622 103.108 7.78743 103.705 8.60527C103.842 8.87479 103.899 9.17764 103.871 9.47842C103.871 11.5368 103.871 13.5859 103.871 15.6443C103.88 16.0814 104.032 16.5034 104.304 16.8455C104.577 17.1875 104.954 17.4307 105.378 17.5373C106.159 17.7027 106.444 17.482 106.444 16.6642C106.444 14.7528 106.444 12.8323 106.444 10.921C106.486 10.5388 106.44 10.1523 106.309 9.79071C106.179 9.42913 105.967 9.10209 105.69 8.835C105.485 8.61323 105.301 8.37352 105.139 8.11844L107.62 6.22541L109.688 8.82602L113.676 6.24381L115.881 8.835L115.955 8.89019Z" fill="#2E2E2E"/>
<path d="M115.881 8.80705L119.897 6.05029C120.595 6.96921 121.257 7.75009 121.863 8.60469C121.97 8.86008 122.005 9.1395 121.964 9.41323C121.964 11.4992 121.964 13.5762 121.964 15.6621C122.065 16.1825 122.333 16.6556 122.728 17.0091C123.123 17.3626 123.623 17.5768 124.151 17.6193C124.666 17.5734 124.767 17.27 124.758 16.8198C124.758 14.6787 124.758 12.5376 124.758 10.3873C124.737 10.158 124.785 9.92751 124.896 9.72596C125.008 9.52441 125.177 9.36113 125.383 9.25708C127 8.23708 128.581 7.17143 130.216 6.10548L133.892 10.893C132.128 11.9957 130.446 13.1074 128.7 14.1182C128.455 14.2649 128.259 14.4814 128.138 14.7401C128.017 14.9988 127.976 15.2879 128.02 15.5702C128.02 16.195 128.48 16.2593 128.856 16.4891C129.518 16.8291 130.235 17.0954 130.869 17.4905C131.322 17.7877 131.845 17.9626 132.386 17.998C132.927 18.0334 133.468 17.9284 133.956 17.6929C134.036 17.6478 134.126 17.6243 134.218 17.6243C134.31 17.6243 134.4 17.6478 134.48 17.6929C133.892 18.0053 133.304 18.327 132.716 18.6118C131.723 19.108 130.722 19.9718 129.729 19.9718C128.629 19.8004 127.602 19.3155 126.77 18.575C125.309 17.5275 124.151 17.6559 123.03 19.0251C122.655 19.3927 122.249 19.7281 121.817 20.027C120.898 19.2183 119.897 18.4463 118.978 17.6009C118.815 17.3543 118.744 17.0583 118.776 16.7646C118.776 14.8808 118.665 12.9789 118.776 11.1043C118.815 10.5225 118.711 9.93985 118.472 9.40784C118.233 8.87583 117.867 8.41053 117.407 8.05325L115.991 8.86223L115.881 8.80705ZM128.02 14.3206L130.869 12.5469L128.02 8.80705V14.3206Z" fill="#2E2E2E"/>
<path d="M135.868 17.004L137.154 14.8718C136.483 14.495 135.748 14.1368 135.077 13.6774C134.932 13.5765 134.809 13.447 134.716 13.2969C134.623 13.1468 134.561 12.979 134.535 12.8042C134.475 11.8342 134.475 10.8614 134.535 9.89133C134.551 9.60292 134.68 9.33252 134.894 9.13798C136.152 8.12717 137.439 7.16213 138.689 6.19727C140.903 7.22645 141.491 7.23564 144 6.19727L140.278 11.2055C141.124 11.8304 141.978 12.4001 142.759 13.0434C143.009 13.2936 143.176 13.6143 143.237 13.9623C143.511 14.8775 143.434 15.8617 143.021 16.7231C142.608 17.5845 141.889 18.2612 141.004 18.621C140.756 18.7507 140.53 18.9182 140.334 19.1173C140.016 19.5271 139.555 19.8015 139.044 19.885C138.532 19.9686 138.008 19.8553 137.577 19.5678C136.917 19.2884 136.193 19.1947 135.484 19.2968C134.774 19.3988 134.106 19.6926 133.552 20.1466L133.414 19.981L135.463 17.3714L134.783 18.6394C135.523 18.1807 136.316 17.8135 137.145 17.546C138.063 17.4539 138.988 17.4724 139.902 17.6012C140.085 15.2487 140.049 15.1751 138.174 14.0633L135.868 17.004ZM137.705 8.46719V10.0753C137.705 11.5548 137.705 11.5546 139.185 12.1702L142.254 7.98933C141.621 8.47989 140.863 8.78175 140.066 8.85979C139.27 8.93784 138.467 8.78887 137.751 8.4304L137.705 8.46719Z" fill="#2E2E2E"/>
<path d="M76.0552 5.46218L74.0061 3.28424L76.1196 1.11572L78.1228 3.36725L76.0552 5.46218Z" fill="#2E2E2E"/>
<path d="M101.84 1.20801L103.926 3.30294L101.822 5.50826L99.8001 3.13782L101.84 1.20801Z" fill="#2E2E2E"/>
</svg>
