<svg width="126" height="25" viewBox="0 0 126 25" fill="none" xmlns="http://www.w3.org/2000/svg">
<path d="M0 24.2328V7.75386H0.389639H8.08079C9.48181 7.71195 10.8805 7.89696 12.2223 8.30203C13.199 8.56542 14.0395 9.18932 14.5743 10.048C14.8462 10.506 15.0179 11.0167 15.078 11.546C15.1381 12.0752 15.0853 12.6106 14.923 13.1179C14.7607 13.6252 14.4927 14.0923 14.1366 14.4883C13.7805 14.8844 13.3444 15.2011 12.8571 15.4163L12.3666 15.6467L12.9293 15.8489C13.5709 16.0391 14.1487 16.4001 14.6011 16.8931C15.0535 17.3862 15.3634 17.9928 15.4978 18.6483C15.7239 19.5965 15.6021 20.5943 15.1545 21.4603C14.707 22.3263 13.9634 23.0029 13.0592 23.3669C11.9123 23.911 10.6631 24.2063 9.39397 24.2328C6.34923 24.2328 3.29002 24.2328 0.245286 24.2328H0ZM4.70421 21.0002C6.01734 21.0002 7.28714 21.0002 8.54256 21.0002C9.03852 20.9597 9.52525 20.8432 9.98556 20.6542C10.2943 20.5421 10.5555 20.3276 10.7261 20.0469C10.8966 19.7661 10.9663 19.4354 10.9236 19.1098C10.9355 18.7859 10.8381 18.4675 10.647 18.2058C10.4559 17.944 10.1823 17.754 9.87019 17.6668C9.66852 17.5713 9.45498 17.5039 9.23526 17.4652C8.36946 17.4652 7.48923 17.3638 6.62343 17.3349C6.00293 17.3349 5.38245 17.3349 4.7331 17.3349L4.70421 21.0002ZM4.70421 14.2763H4.93505C5.94515 14.2763 6.95529 14.2763 7.95097 14.2763C8.49204 14.2431 9.02603 14.136 9.53823 13.9585C9.82663 13.878 10.0767 13.6971 10.2434 13.4484C10.4101 13.1996 10.4825 12.8995 10.4473 12.6022C10.4562 12.3125 10.369 12.0282 10.1993 11.7933C10.0297 11.5584 9.78716 11.3862 9.50943 11.3036C9.26737 11.1946 9.00892 11.1261 8.7446 11.1014C7.5902 11.1014 6.43576 11.1013 5.28136 11.0147H4.70421V14.2763Z" fill="#2E2E2E"/>
<path d="M27.9366 7.85491H32.9871C33.2902 7.85491 33.3623 7.95558 33.3623 8.22975C33.3623 13.3861 33.3623 18.5286 33.3623 23.6561C33.3623 23.9735 33.2613 24.0457 32.9583 24.0457H27.951V21.6064L27.6192 21.9531C26.6816 22.949 25.4996 23.6821 24.1908 24.0795C22.8819 24.477 21.4919 24.5247 20.1588 24.2183C19.1349 24.0747 18.2035 23.5485 17.5528 22.745C16.902 21.9416 16.5802 20.9208 16.6523 19.8893C16.6523 15.9788 16.6523 12.0688 16.6523 8.17268C16.6523 7.92737 16.6523 7.84082 16.9698 7.84082C18.5571 7.84082 20.13 7.84082 21.7028 7.84082C22.0203 7.84082 22.0636 7.94115 22.0636 8.22975V18.187C22.0667 18.5078 22.1054 18.8267 22.179 19.1389C22.2468 19.4757 22.4261 19.7803 22.6879 20.0028C22.9496 20.2253 23.2787 20.353 23.622 20.3656C24.5509 20.4989 25.4979 20.3269 26.3204 19.8752C26.8111 19.6299 27.2584 19.2979 27.7634 19.0093C27.8573 18.9542 27.9331 18.8734 27.9818 18.7761C28.0304 18.6788 28.0498 18.5693 28.0376 18.4611C28.0376 15.0845 28.0376 11.7175 28.0376 8.3601L27.9366 7.85491Z" fill="#2E2E2E"/>
<path d="M75.0651 23.9876H69.7115V13.8866C69.7264 13.6656 69.7264 13.4439 69.7115 13.2229C69.7044 12.9966 69.6515 12.7735 69.5559 12.5683C69.4603 12.3631 69.3241 12.1797 69.1555 12.0286C68.9869 11.8775 68.7893 11.7622 68.5749 11.6897C68.3604 11.6171 68.1335 11.5889 67.9078 11.6065C66.7674 11.5856 65.6501 11.9289 64.7187 12.5873C63.8818 13.1357 63.8818 13.1358 63.8818 14.1459V24.0165H58.8602C58.5571 24.0165 58.4561 23.9443 58.4561 23.6269C58.4561 18.4898 58.4561 13.3524 58.4561 8.21534C58.4561 7.89788 58.5571 7.8257 58.8457 7.8257C60.4042 7.8257 61.9626 7.8257 63.5066 7.8257C63.8097 7.8257 63.8962 7.91265 63.8818 8.20125C63.8818 8.87946 63.8818 9.5431 63.8818 10.2213C64.3416 9.78361 64.8232 9.36892 65.3248 8.97982C66.2597 8.28456 67.3414 7.81284 68.487 7.60023C69.6326 7.38763 70.8116 7.44035 71.9338 7.75383C72.8473 7.94283 73.6654 8.44593 74.2456 9.1764C74.8257 9.90688 75.1311 10.8184 75.1083 11.751C75.1083 12.7178 75.1083 13.6702 75.1083 14.637V24.0017L75.0651 23.9876Z" fill="#2E2E2E"/>
<path d="M81.4143 17.2634C81.3997 18.1274 81.7034 18.9664 82.2675 19.621C82.8316 20.2756 83.6168 20.7 84.4734 20.8132C86.4166 21.0723 88.3867 20.5992 90.0001 19.4857L90.7361 18.9664L92.8428 21.9384C92.2707 22.3259 91.6783 22.6826 91.068 23.0065C89.513 23.7855 87.8167 24.2422 86.0808 24.3488C84.345 24.4554 82.6055 24.2101 80.9669 23.6273C79.6339 23.1958 78.4614 22.3735 77.6018 21.2669C76.7423 20.1604 76.2355 18.8203 76.1473 17.422C75.8697 15.7007 76.0797 13.9365 76.7533 12.3285C77.1619 11.4079 77.7482 10.5769 78.4788 9.88353C79.2093 9.19016 80.0696 8.64762 81.0102 8.28763C83.165 7.36704 85.5727 7.22452 87.8212 7.8839C88.9601 8.18951 89.9996 8.78647 90.8372 9.61649C91.6748 10.4465 92.2816 11.4806 92.5975 12.6166C93.017 14.0444 93.2021 15.5312 93.1458 17.0182C93.1458 17.2491 93.016 17.2634 92.8428 17.2634H81.4431H81.4143ZM88.2396 14.3055C88.259 13.8872 88.1942 13.4689 88.0492 13.076C87.9041 12.6831 87.6817 12.3232 87.3951 12.0177C87.1086 11.7123 86.7636 11.4674 86.3808 11.2976C85.9979 11.1279 85.5848 11.0372 85.166 11.0299C84.7086 10.9966 84.2492 11.0553 83.8151 11.2032C83.381 11.3511 82.9811 11.5846 82.6392 11.8902C82.2972 12.1958 82.0202 12.5675 81.8246 12.9823C81.6291 13.3971 81.519 13.8473 81.5008 14.3055H88.2396Z" fill="#2E2E2E"/>
<path d="M49.7692 9.72997L47.6336 12.5441C46.9987 12.2266 46.3926 11.8949 45.7721 11.6063C44.5362 10.9872 43.1513 10.7272 41.775 10.8559C41.3483 10.9093 40.9363 11.0464 40.5629 11.2596C40.3946 11.3535 40.2544 11.4909 40.1568 11.657C40.0592 11.8232 40.0078 12.0125 40.0078 12.2052C40.0078 12.3979 40.0592 12.5872 40.1568 12.7534C40.2544 12.9195 40.3946 13.0562 40.5629 13.1501C40.9415 13.3777 41.3563 13.5389 41.7894 13.6264C42.9582 13.8717 44.1271 14.0592 45.2815 14.2901C46.3554 14.474 47.39 14.84 48.3406 15.3723C49.0622 15.7642 49.6409 16.3746 49.9936 17.1162C50.3462 17.8578 50.4546 18.6921 50.3031 19.4991C50.2008 20.4154 49.8377 21.2836 49.2571 21.9997C48.6765 22.7159 47.9027 23.2503 47.0275 23.54C45.4819 24.1492 43.8237 24.4196 42.1646 24.3333C40.1754 24.3529 38.2058 23.9395 36.3926 23.1214C35.6566 22.7751 34.9496 22.3276 34.1992 21.8947L36.3348 19.1532C37.1349 19.6143 37.9586 20.0335 38.8024 20.4088C40.4044 21.1236 42.1858 21.3349 43.9106 21.0147C44.1787 20.9507 44.4362 20.8487 44.6754 20.7117C44.881 20.6043 45.0533 20.4423 45.1735 20.2439C45.2938 20.0455 45.3574 19.8178 45.3574 19.5858C45.3574 19.3538 45.2938 19.1261 45.1735 18.9277C45.0533 18.7293 44.881 18.568 44.6754 18.4606C43.8573 18.057 42.972 17.8072 42.0636 17.7243C40.4818 17.5202 38.934 17.1084 37.4604 16.4983C36.8036 16.16 36.2416 15.6633 35.8251 15.0532C35.4085 14.443 35.1506 13.7383 35.0747 13.0035C34.9988 12.2687 35.1072 11.5263 35.3902 10.8439C35.6733 10.1615 36.1219 9.56054 36.6956 9.09513C37.7879 8.25534 39.1022 7.7537 40.4763 7.65213C42.9244 7.3226 45.4162 7.65638 47.6913 8.61883C48.3551 8.93629 48.9755 9.32593 49.7692 9.72997Z" fill="#2E2E2E"/>
<path d="M93.3767 21.9239L95.5412 19.1386C96.104 19.4849 96.6379 19.8315 97.2151 20.1201C98.8267 20.9428 100.635 21.3028 102.439 21.1594C102.938 21.0996 103.424 20.9629 103.882 20.7549C104.1 20.6625 104.284 20.5043 104.408 20.3026C104.532 20.1009 104.59 19.866 104.574 19.6297C104.583 19.3835 104.518 19.1399 104.387 18.9315C104.255 18.723 104.064 18.5592 103.838 18.4608C103.034 18.0815 102.17 17.8421 101.284 17.7534C99.9538 17.5741 98.644 17.2653 97.3739 16.8304C96.3739 16.5042 95.5075 15.8608 94.9063 14.9977C94.3138 13.9937 94.1243 12.8019 94.376 11.6636C94.6278 10.5253 95.3021 9.52542 96.2627 8.86495C97.2781 8.15589 98.4629 7.72727 99.6971 7.62346C102.119 7.29512 104.585 7.61947 106.84 8.56198C107.576 8.89387 108.283 9.34061 109.033 9.75908L106.898 12.5732C106.248 12.2413 105.642 11.9092 105.007 11.6206C103.776 11.0196 102.404 10.7655 101.039 10.885C100.675 10.9351 100.321 11.0371 99.9857 11.188C99.7709 11.2681 99.5876 11.4149 99.4629 11.6072C99.3381 11.7995 99.2786 12.0267 99.293 12.2554C99.2922 12.4798 99.3594 12.6992 99.4856 12.8846C99.6118 13.0701 99.7911 13.2132 100 13.2947C100.87 13.66 101.789 13.8934 102.727 13.9873C104.213 14.1667 105.668 14.5403 107.056 15.0985C107.615 15.3419 108.116 15.7006 108.527 16.1511C108.937 16.6016 109.248 17.1336 109.439 17.7125C109.63 18.2914 109.696 18.9043 109.634 19.5106C109.571 20.117 109.381 20.7033 109.077 21.2312C108.728 21.8534 108.257 22.3979 107.691 22.8321C107.126 23.2662 106.478 23.5809 105.787 23.7565C102.422 24.7968 98.7938 24.571 95.5845 23.1217C94.7764 22.7753 94.1271 22.3135 93.3767 21.9239Z" fill="#2E2E2E"/>
<path d="M109.495 21.8378L111.645 19.0814C112.563 19.7753 113.593 20.3077 114.69 20.6548C116.128 21.1687 117.676 21.2931 119.178 21.0155C119.449 20.9552 119.708 20.8474 119.942 20.6978C120.148 20.5903 120.32 20.429 120.441 20.2306C120.561 20.0322 120.624 19.8045 120.624 19.5725C120.624 19.3405 120.561 19.1129 120.441 18.9144C120.32 18.716 120.148 18.554 119.942 18.4466C119.12 18.0559 118.237 17.8118 117.331 17.7251C115.899 17.5414 114.494 17.1879 113.146 16.6717C112.352 16.4147 111.656 15.9201 111.152 15.2541C110.649 14.5881 110.363 13.7829 110.332 12.9487C110.251 12.0919 110.416 11.2302 110.807 10.4636C111.198 9.69692 111.799 9.05706 112.54 8.61964C113.752 7.8857 115.135 7.48329 116.551 7.45143C118.645 7.30653 120.744 7.6267 122.699 8.38924C123.541 8.72296 124.329 9.18002 125.036 9.74558L122.944 12.5019C122.453 12.2422 121.992 11.9676 121.501 11.7368C120.153 11.0114 118.626 10.6862 117.1 10.7989C116.737 10.844 116.382 10.9415 116.046 11.0878C115.831 11.1693 115.648 11.3162 115.521 11.5078C115.394 11.6994 115.33 11.9257 115.339 12.1553C115.32 12.3815 115.381 12.6075 115.51 12.7943C115.638 12.9812 115.828 13.1171 116.046 13.1798C116.806 13.4447 117.582 13.6619 118.37 13.8294C119.84 14.0259 121.29 14.3592 122.699 14.825C123.565 15.1152 124.334 15.6394 124.921 16.3399C125.27 16.7966 125.517 17.3223 125.646 17.8822C125.776 18.4421 125.784 19.0232 125.671 19.5866C125.539 20.4835 125.158 21.3255 124.571 22.0167C123.985 22.708 123.216 23.2208 122.352 23.4971C120.424 24.2182 118.35 24.4657 116.306 24.2186C114.216 24.0908 112.189 23.4515 110.404 22.3571C110.043 22.2416 109.784 22.0398 109.495 21.8378Z" fill="#2E2E2E"/>
<path d="M51.472 23.9728V23.598C51.472 18.4753 51.472 13.3669 51.472 8.24421C51.472 7.91232 51.5585 7.82568 51.8904 7.82568C53.42 7.82568 54.964 7.82568 56.4936 7.82568C56.7534 7.82568 56.8544 7.89817 56.8544 8.17234C56.8544 13.3383 56.8544 18.4898 56.8544 23.6557C56.8544 23.8866 56.8544 24.0165 56.5369 24.0165H51.8616L51.472 23.9728Z" fill="#2E2E2E"/>
<path d="M54.1415 6.19554C53.3453 6.18797 52.5841 5.86718 52.0224 5.30282C51.4608 4.73846 51.1438 3.97539 51.1401 3.17918C51.1476 2.38931 51.4647 1.63453 52.0233 1.07598C52.5818 0.517424 53.3372 0.199941 54.1271 0.192418C54.5225 0.190517 54.9143 0.266492 55.2801 0.416478C55.6459 0.566463 55.9785 0.787916 56.2588 1.06682C56.539 1.34572 56.7614 1.67687 56.9131 2.04197C57.0649 2.40707 57.143 2.79861 57.143 3.19398C57.143 3.99001 56.8267 4.75333 56.2639 5.31621C55.701 5.87909 54.9375 6.19554 54.1415 6.19554V6.19554Z" fill="#2E2E2E"/>
<path d="M15.9451 6.0508C15.873 6.52699 15.873 6.5271 15.368 6.5271H14.8773C14.8707 6.40694 14.8707 6.28651 14.8773 6.16635C14.8773 4.26159 14.8773 2.35682 14.8773 0.394335C14.8773 0.0624443 14.9927 -0.00973404 15.2957 0.004696C16.0172 0.004696 15.9307 -0.0963988 15.9307 0.639533C15.9307 1.37547 15.9307 1.79391 15.9307 2.4144C16.0273 2.37112 16.1192 2.31812 16.2048 2.25587C16.5767 2.00912 16.9985 1.84724 17.44 1.78238C17.8815 1.71752 18.3319 1.75093 18.759 1.88032C19.3269 2.02708 19.8151 2.39011 20.1196 2.89141C20.4242 3.39271 20.521 3.99318 20.3896 4.56481C20.3491 4.87264 20.2474 5.16927 20.0903 5.4371C19.9333 5.70493 19.7242 5.93844 19.4753 6.12408C19.2264 6.30971 18.9429 6.44304 18.6414 6.51724C18.3399 6.59144 18.0267 6.60492 17.7201 6.55599C17.1749 6.5458 16.6422 6.39138 16.176 6.10857C16.1021 6.07897 16.0243 6.0595 15.9451 6.0508V6.0508ZM15.9451 4.23295V4.46335C15.9451 5.40131 16.0606 5.53146 16.9552 5.83449C17.2043 5.95491 17.4796 6.01103 17.7559 5.99795C18.0323 5.98488 18.3011 5.9032 18.5377 5.7598C18.7743 5.6164 18.9712 5.41605 19.1107 5.1771C19.2501 4.93816 19.3277 4.66803 19.3362 4.39148C19.3798 4.18402 19.3796 3.96973 19.336 3.76228C19.2923 3.55484 19.206 3.35895 19.0826 3.18663C18.9591 3.01432 18.8012 2.8691 18.6188 2.76106C18.4364 2.65302 18.2335 2.58432 18.023 2.55884C17.4923 2.48201 16.9509 2.57806 16.479 2.83293C16.2836 2.89328 16.1177 3.02393 16.0136 3.20002C15.9096 3.37611 15.8749 3.58523 15.9163 3.78554C15.9251 3.93958 15.9202 4.09385 15.9019 4.24704L15.9451 4.23295Z" fill="#2E2E2E"/>
<path d="M5.13708 6.54168C4.84478 6.5779 4.54916 6.5779 4.25687 6.54168C4.11256 6.54168 4.04037 6.23893 3.93936 6.10906C3.46892 6.29422 2.98689 6.44822 2.49635 6.57057C1.98421 6.64263 1.46448 6.64263 0.95233 6.57057C0.733153 6.54761 0.526973 6.45561 0.363556 6.30776C0.200138 6.1599 0.0880309 5.96411 0.0433188 5.74831C-0.0109459 5.52541 0.00412336 5.29089 0.0866511 5.07684C0.169179 4.86278 0.315147 4.67929 0.505002 4.55051C1.15455 4.12289 1.89645 3.85575 2.66951 3.77123C3.11684 3.68465 3.56425 3.62707 4.01158 3.55492C4.04929 3.44131 4.05864 3.31999 4.03897 3.20192C4.0193 3.08384 3.97117 2.97235 3.89867 2.8771C3.82617 2.78186 3.73148 2.70626 3.62291 2.65586C3.51434 2.60546 3.39518 2.58212 3.27563 2.58822C2.70238 2.51958 2.12103 2.59859 1.58726 2.81862L1.2265 2.99195C0.649303 3.28055 0.649299 3.28066 0.230828 2.74675C0.738306 2.33167 1.35446 2.07119 2.00578 1.99636C2.61892 1.91723 3.23964 1.91723 3.85278 1.99636C4.03128 2.00318 4.2065 2.047 4.3674 2.1246C4.52829 2.20219 4.67139 2.31187 4.78786 2.4473C4.90433 2.58273 4.99161 2.74093 5.04425 2.91163C5.09688 3.08232 5.11381 3.26186 5.09383 3.43937C5.09383 4.20416 5.09383 4.96872 5.09383 5.73352C5.05054 5.9644 5.10822 6.22422 5.13708 6.54168ZM3.99714 4.10309C3.11559 4.14526 2.2495 4.35065 1.44299 4.70904C1.15439 4.85334 0.923512 5.05536 0.995662 5.43054C1.06781 5.80572 1.342 5.90724 1.64503 5.95053C2.4217 6.05233 3.20845 5.86189 3.85278 5.41645C3.88978 5.38959 3.92056 5.35484 3.94297 5.31499C3.96538 5.27514 3.97895 5.23091 3.98269 5.18534C4.01155 4.83902 3.99714 4.4927 3.99714 4.10309V4.10309Z" fill="#2E2E2E"/>
<path d="M9.36509 2.67445C9.79744 2.3599 10.2879 2.13433 10.8081 2.01073C11.5258 1.80384 12.2823 1.76878 13.0159 1.90927C13.354 1.93513 13.669 2.09117 13.8949 2.344C14.1208 2.59683 14.2402 2.92676 14.228 3.26561C14.228 3.90053 14.228 4.54999 14.228 5.18491C14.228 5.81984 14.228 6.05097 14.3001 6.52716C14.026 6.52716 13.723 6.52716 13.4344 6.52716C13.4344 6.52716 13.2901 6.42598 13.2612 6.35383C13.2101 6.23301 13.1714 6.10764 13.1458 5.97899C12.5255 6.40064 11.7888 6.61716 11.039 6.59903C10.597 6.60108 10.1578 6.52802 9.74029 6.38272C9.57806 6.31059 9.4367 6.1986 9.32933 6.0572C9.22196 5.9158 9.15206 5.74949 9.12615 5.57385C9.10023 5.39821 9.11915 5.21883 9.18111 5.05245C9.24306 4.88607 9.34607 4.73786 9.48056 4.62195C10.0437 4.16257 10.7229 3.86814 11.443 3.7708C11.9336 3.66979 12.4243 3.59741 12.886 3.53969C13.1169 3.53969 13.1602 3.39542 13.1458 3.20783C13.1182 3.01655 13.0229 2.84169 12.8773 2.71462C12.7317 2.58754 12.5454 2.51669 12.3521 2.51522C11.6313 2.43945 10.9048 2.59123 10.2742 2.94854C9.798 3.16499 9.74027 3.16507 9.36509 2.67445ZM13.1891 4.11746C12.3215 4.17104 11.4685 4.36587 10.6638 4.69452C10.535 4.76137 10.4218 4.85474 10.3319 4.9686C10.2673 5.02955 10.2189 5.10549 10.1911 5.18985C10.1634 5.2742 10.1571 5.36455 10.1729 5.45195C10.1887 5.53936 10.2259 5.62147 10.2814 5.69081C10.3369 5.76015 10.4089 5.8141 10.4907 5.84864C10.6309 5.91824 10.7823 5.9627 10.938 5.97899C11.6579 6.03913 12.3776 5.86159 12.987 5.4738C13.0348 5.4427 13.076 5.40248 13.1081 5.35543C13.1403 5.30838 13.163 5.25551 13.1746 5.19971C13.2035 4.83896 13.1891 4.49227 13.1891 4.10266V4.11746Z" fill="#2E2E2E"/>
<path d="M27.7056 6.54177C27.4026 6.54177 27.114 6.54177 26.8254 6.54177C26.8254 6.54177 26.6666 6.4413 26.6378 6.36915C26.5954 6.27124 26.5617 6.16921 26.5368 6.06547C26.0361 6.27009 25.5197 6.43463 24.9928 6.55657C24.4903 6.6286 23.9801 6.6286 23.4776 6.55657C23.2421 6.54343 23.0181 6.4504 22.8424 6.29305C22.6667 6.1357 22.5497 5.92325 22.5108 5.69063C22.4651 5.45506 22.4949 5.21142 22.5959 4.99378C22.697 4.77614 22.8641 4.59583 23.0735 4.47873C23.7129 4.09196 24.4252 3.84104 25.1659 3.74243L26.5079 3.54021C26.5407 3.44458 26.5526 3.3435 26.5429 3.24287C26.5331 3.14225 26.5018 3.04504 26.4512 2.95751C26.4006 2.86999 26.3319 2.79425 26.2495 2.73557C26.1672 2.67688 26.0732 2.63649 25.974 2.6172C25.1956 2.45135 24.3833 2.57987 23.6941 2.97795C23.1457 3.26655 23.1457 3.28109 22.7272 2.73275C22.7867 2.67633 22.8494 2.62283 22.9148 2.57351C23.938 1.94852 25.1573 1.72774 26.3348 1.95347C26.6896 1.98297 27.0186 2.15064 27.2508 2.42062C27.483 2.69059 27.5997 3.0412 27.5758 3.39648C27.5758 4.29114 27.5758 5.19969 27.5758 6.09436C27.6073 6.24662 27.6508 6.39627 27.7056 6.54177ZM26.5512 4.08909C25.6728 4.15233 24.8103 4.35687 23.9971 4.69504C23.8492 4.74883 23.7235 4.85062 23.6399 4.98392C23.5562 5.11722 23.5194 5.27407 23.5353 5.43063C23.5687 5.58069 23.6531 5.71496 23.7742 5.8097C23.8952 5.90444 24.0454 5.95429 24.1991 5.95062C24.9645 6.04932 25.7395 5.86403 26.378 5.43063C26.4222 5.40387 26.4605 5.36856 26.4902 5.32635C26.52 5.28414 26.5408 5.23604 26.5512 5.18543C26.5656 4.83911 26.5512 4.49313 26.5512 4.08909Z" fill="#2E2E2E"/>
<path d="M29.3218 2.53079C30.0145 2.03777 30.8537 1.79368 31.7028 1.83817C31.988 1.85958 32.2693 1.91795 32.5397 2.0115C32.773 2.08346 32.9767 2.22938 33.1198 2.42721C33.263 2.62504 33.338 2.8637 33.3334 3.10785C33.3334 4.16124 33.3334 5.22901 33.3334 6.29683C33.3334 6.48442 33.2612 6.54203 33.0736 6.54203C32.1068 6.54203 32.3088 6.67187 32.2944 5.79164C32.28 4.9114 32.2944 4.21927 32.2944 3.42562C32.309 3.31201 32.2989 3.19602 32.2647 3.08671C32.2305 2.9774 32.173 2.87719 32.0962 2.79219C32.0194 2.70719 31.9252 2.64003 31.8199 2.5949C31.7146 2.54978 31.6008 2.52777 31.4863 2.53079C30.7374 2.46366 29.9919 2.69138 29.4084 3.16562C29.364 3.21128 29.3296 3.26526 29.3073 3.32486C29.2849 3.38446 29.2751 3.44872 29.2785 3.51228C29.2785 4.37808 29.2785 5.25806 29.2785 6.13829V6.51314H28.2396C28.2331 6.41223 28.2331 6.31107 28.2396 6.21016C28.2396 4.8826 28.2396 3.56983 28.2396 2.2567C28.2396 1.99696 28.3117 1.86675 28.5714 1.91004H28.6436C29.2064 1.91004 29.2064 1.91029 29.3218 2.53079Z" fill="#2E2E2E"/>
<path d="M9.17748 1.83787C9.18478 1.93393 9.18478 2.02999 9.17748 2.12605C9.17748 2.55895 9.17753 2.55903 8.68691 2.57346C8.36349 2.56309 8.04162 2.62234 7.74293 2.74679C7.44424 2.87125 7.17565 3.05802 6.95528 3.29497C6.81495 3.45553 6.73346 3.65968 6.72435 3.87273C6.72435 4.65195 6.72435 5.44544 6.72435 6.22466C6.72435 6.45554 6.72442 6.55616 6.43582 6.54173C5.52673 6.54173 5.68543 6.67157 5.68543 5.79134C5.68543 4.6225 5.68543 3.43932 5.68543 2.27049C5.68543 1.99632 5.68542 1.86645 6.03174 1.90974C6.37806 1.95303 6.55125 1.91019 6.69555 2.0112C6.83985 2.11221 6.69554 2.41485 6.76769 2.68902C7.08638 2.38487 7.46591 2.15161 7.88129 2.00486C8.29667 1.85811 8.73845 1.80142 9.17748 1.83787V1.83787Z" fill="#2E2E2E"/>
<path d="M20.837 4.20466C20.837 3.54087 20.837 2.87656 20.837 2.21278C20.837 1.98189 20.9091 1.89537 21.14 1.9098C22.0202 1.9098 21.8759 1.7947 21.8759 2.61721C21.8759 3.80047 21.8759 4.98334 21.8759 6.18104C21.8759 6.46964 21.7893 6.55622 21.5007 6.54179C20.837 6.54179 20.837 6.54184 20.837 5.87806C20.837 5.21428 20.837 4.76743 20.837 4.20466Z" fill="#2E2E2E"/>
<path d="M21.3276 0.98631H21.1978C21.117 0.986511 21.0376 0.964848 20.9682 0.923601C20.8987 0.882354 20.8418 0.822705 20.8033 0.751681C20.7648 0.680657 20.7463 0.600573 20.7497 0.51987C20.7531 0.439167 20.7783 0.360536 20.8226 0.292991C20.8462 0.266495 20.8751 0.245175 20.9074 0.230283C20.9396 0.21539 20.9746 0.207862 21.0102 0.207031C21.1689 0.207031 21.3276 0.207031 21.4719 0.207031C21.6162 0.207031 21.9337 0.29333 21.9048 0.639651C21.876 0.985972 21.8904 0.98631 21.3276 0.98631Z" fill="#2E2E2E"/>
</svg>
